%TF.GenerationSoftware,KiCad,Pcbnew,(6.0.11-0)*%
%TF.CreationDate,2023-07-04T02:05:22-04:00*%
%TF.ProjectId,merp,6d657270-2e6b-4696-9361-645f70636258,rev?*%
%TF.SameCoordinates,Original*%
%TF.FileFunction,Copper,L2,Bot*%
%TF.FilePolarity,Positive*%
%FSLAX46Y46*%
G04 Gerber Fmt 4.6, Leading zero omitted, Abs format (unit mm)*
G04 Created by KiCad (PCBNEW (6.0.11-0)) date 2023-07-04 02:05:22*
%MOMM*%
%LPD*%
G01*
G04 APERTURE LIST*
G04 Aperture macros list*
%AMRoundRect*
0 Rectangle with rounded corners*
0 $1 Rounding radius*
0 $2 $3 $4 $5 $6 $7 $8 $9 X,Y pos of 4 corners*
0 Add a 4 corners polygon primitive as box body*
4,1,4,$2,$3,$4,$5,$6,$7,$8,$9,$2,$3,0*
0 Add four circle primitives for the rounded corners*
1,1,$1+$1,$2,$3*
1,1,$1+$1,$4,$5*
1,1,$1+$1,$6,$7*
1,1,$1+$1,$8,$9*
0 Add four rect primitives between the rounded corners*
20,1,$1+$1,$2,$3,$4,$5,0*
20,1,$1+$1,$4,$5,$6,$7,0*
20,1,$1+$1,$6,$7,$8,$9,0*
20,1,$1+$1,$8,$9,$2,$3,0*%
G04 Aperture macros list end*
%TA.AperFunction,ComponentPad*%
%ADD10C,1.600000*%
%TD*%
%TA.AperFunction,ComponentPad*%
%ADD11O,1.600000X1.600000*%
%TD*%
%TA.AperFunction,ComponentPad*%
%ADD12RoundRect,0.250000X0.600000X0.600000X-0.600000X0.600000X-0.600000X-0.600000X0.600000X-0.600000X0*%
%TD*%
%TA.AperFunction,ComponentPad*%
%ADD13C,1.700000*%
%TD*%
%TA.AperFunction,ComponentPad*%
%ADD14R,1.600000X1.600000*%
%TD*%
%TA.AperFunction,ComponentPad*%
%ADD15R,1.700000X1.700000*%
%TD*%
%TA.AperFunction,ComponentPad*%
%ADD16O,1.700000X1.700000*%
%TD*%
%TA.AperFunction,ComponentPad*%
%ADD17C,5.600000*%
%TD*%
%TA.AperFunction,ComponentPad*%
%ADD18R,1.800000X1.800000*%
%TD*%
%TA.AperFunction,ComponentPad*%
%ADD19C,1.800000*%
%TD*%
%TA.AperFunction,Conductor*%
%ADD20C,0.800000*%
%TD*%
G04 APERTURE END LIST*
D10*
%TO.P,R2,1*%
%TO.N,Net-(D2-Pad2)*%
X146620000Y-89820000D03*
D11*
%TO.P,R2,2*%
%TO.N,+12V*%
X139000000Y-89820000D03*
%TD*%
D12*
%TO.P,J2,1,Pin_1*%
%TO.N,-12V*%
X104556500Y-77184000D03*
D13*
%TO.P,J2,2,Pin_2*%
X102016500Y-77184000D03*
%TO.P,J2,3,Pin_3*%
%TO.N,GND*%
X104556500Y-74644000D03*
%TO.P,J2,4,Pin_4*%
X102016500Y-74644000D03*
%TO.P,J2,5,Pin_5*%
X104556500Y-72104000D03*
%TO.P,J2,6,Pin_6*%
X102016500Y-72104000D03*
%TO.P,J2,7,Pin_7*%
X104556500Y-69564000D03*
%TO.P,J2,8,Pin_8*%
X102016500Y-69564000D03*
%TO.P,J2,9,Pin_9*%
%TO.N,+12V*%
X104556500Y-67024000D03*
%TO.P,J2,10,Pin_10*%
X102016500Y-67024000D03*
%TO.P,J2,11,Pin_11*%
%TO.N,+5V*%
X104556500Y-64484000D03*
%TO.P,J2,12,Pin_12*%
X102016500Y-64484000D03*
%TO.P,J2,13,Pin_13*%
%TO.N,CV*%
X104556500Y-61944000D03*
%TO.P,J2,14,Pin_14*%
X102016500Y-61944000D03*
%TO.P,J2,15,Pin_15*%
%TO.N,GATE*%
X104556500Y-59404000D03*
%TO.P,J2,16,Pin_16*%
X102016500Y-59404000D03*
%TD*%
D14*
%TO.P,C3,1*%
%TO.N,GND*%
X118176500Y-88427349D03*
D10*
%TO.P,C3,2*%
%TO.N,-12V*%
X118176500Y-91927349D03*
%TD*%
D15*
%TO.P,J10,1,Pin_1*%
%TO.N,Net-(D3-Pad1)*%
X166140000Y-92910000D03*
D16*
%TO.P,J10,2,Pin_2*%
%TO.N,GND*%
X168680000Y-92910000D03*
%TD*%
D12*
%TO.P,J1,1,Pin_1*%
%TO.N,-12V*%
X90100000Y-77184000D03*
D13*
%TO.P,J1,2,Pin_2*%
X87560000Y-77184000D03*
%TO.P,J1,3,Pin_3*%
%TO.N,GND*%
X90100000Y-74644000D03*
%TO.P,J1,4,Pin_4*%
X87560000Y-74644000D03*
%TO.P,J1,5,Pin_5*%
X90100000Y-72104000D03*
%TO.P,J1,6,Pin_6*%
X87560000Y-72104000D03*
%TO.P,J1,7,Pin_7*%
X90100000Y-69564000D03*
%TO.P,J1,8,Pin_8*%
X87560000Y-69564000D03*
%TO.P,J1,9,Pin_9*%
%TO.N,+12V*%
X90100000Y-67024000D03*
%TO.P,J1,10,Pin_10*%
X87560000Y-67024000D03*
%TO.P,J1,11,Pin_11*%
%TO.N,+5V*%
X90100000Y-64484000D03*
%TO.P,J1,12,Pin_12*%
X87560000Y-64484000D03*
%TO.P,J1,13,Pin_13*%
%TO.N,CV*%
X90100000Y-61944000D03*
%TO.P,J1,14,Pin_14*%
X87560000Y-61944000D03*
%TO.P,J1,15,Pin_15*%
%TO.N,GATE*%
X90100000Y-59404000D03*
%TO.P,J1,16,Pin_16*%
X87560000Y-59404000D03*
%TD*%
D15*
%TO.P,J9,1,Pin_1*%
%TO.N,GND*%
X159880000Y-92910000D03*
D16*
%TO.P,J9,2,Pin_2*%
%TO.N,Net-(D2-Pad2)*%
X162420000Y-92910000D03*
%TD*%
D17*
%TO.P,H3,1,1*%
%TO.N,GND*%
X80518000Y-54610000D03*
%TD*%
D14*
%TO.P,C2,1*%
%TO.N,+12V*%
X103720000Y-88427349D03*
D10*
%TO.P,C2,2*%
%TO.N,GND*%
X103720000Y-91927349D03*
%TD*%
D12*
%TO.P,J4,1,Pin_1*%
%TO.N,-12V*%
X133469500Y-77184000D03*
D13*
%TO.P,J4,2,Pin_2*%
X130929500Y-77184000D03*
%TO.P,J4,3,Pin_3*%
%TO.N,GND*%
X133469500Y-74644000D03*
%TO.P,J4,4,Pin_4*%
X130929500Y-74644000D03*
%TO.P,J4,5,Pin_5*%
X133469500Y-72104000D03*
%TO.P,J4,6,Pin_6*%
X130929500Y-72104000D03*
%TO.P,J4,7,Pin_7*%
X133469500Y-69564000D03*
%TO.P,J4,8,Pin_8*%
X130929500Y-69564000D03*
%TO.P,J4,9,Pin_9*%
%TO.N,+12V*%
X133469500Y-67024000D03*
%TO.P,J4,10,Pin_10*%
X130929500Y-67024000D03*
%TO.P,J4,11,Pin_11*%
%TO.N,+5V*%
X133469500Y-64484000D03*
%TO.P,J4,12,Pin_12*%
X130929500Y-64484000D03*
%TO.P,J4,13,Pin_13*%
%TO.N,CV*%
X133469500Y-61944000D03*
%TO.P,J4,14,Pin_14*%
X130929500Y-61944000D03*
%TO.P,J4,15,Pin_15*%
%TO.N,GATE*%
X133469500Y-59404000D03*
%TO.P,J4,16,Pin_16*%
X130929500Y-59404000D03*
%TD*%
D14*
%TO.P,C1,1*%
%TO.N,+5V*%
X89263500Y-88427349D03*
D10*
%TO.P,C1,2*%
%TO.N,GND*%
X89263500Y-91927349D03*
%TD*%
D12*
%TO.P,J3,1,Pin_1*%
%TO.N,-12V*%
X119013000Y-77184000D03*
D13*
%TO.P,J3,2,Pin_2*%
X116473000Y-77184000D03*
%TO.P,J3,3,Pin_3*%
%TO.N,GND*%
X119013000Y-74644000D03*
%TO.P,J3,4,Pin_4*%
X116473000Y-74644000D03*
%TO.P,J3,5,Pin_5*%
X119013000Y-72104000D03*
%TO.P,J3,6,Pin_6*%
X116473000Y-72104000D03*
%TO.P,J3,7,Pin_7*%
X119013000Y-69564000D03*
%TO.P,J3,8,Pin_8*%
X116473000Y-69564000D03*
%TO.P,J3,9,Pin_9*%
%TO.N,+12V*%
X119013000Y-67024000D03*
%TO.P,J3,10,Pin_10*%
X116473000Y-67024000D03*
%TO.P,J3,11,Pin_11*%
%TO.N,+5V*%
X119013000Y-64484000D03*
%TO.P,J3,12,Pin_12*%
X116473000Y-64484000D03*
%TO.P,J3,13,Pin_13*%
%TO.N,CV*%
X119013000Y-61944000D03*
%TO.P,J3,14,Pin_14*%
X116473000Y-61944000D03*
%TO.P,J3,15,Pin_15*%
%TO.N,GATE*%
X119013000Y-59404000D03*
%TO.P,J3,16,Pin_16*%
X116473000Y-59404000D03*
%TD*%
D18*
%TO.P,D3,1,K*%
%TO.N,Net-(D3-Pad1)*%
X166140000Y-87210000D03*
D19*
%TO.P,D3,2,A*%
%TO.N,GND*%
X168680000Y-87210000D03*
%TD*%
D10*
%TO.P,R3,1*%
%TO.N,Net-(D3-Pad1)*%
X146620000Y-93560001D03*
D11*
%TO.P,R3,2*%
%TO.N,-12V*%
X139000000Y-93560001D03*
%TD*%
D17*
%TO.P,H2,1,1*%
%TO.N,GND*%
X174244000Y-55118000D03*
%TD*%
D18*
%TO.P,D1,1,K*%
%TO.N,GND*%
X153620000Y-87210000D03*
D19*
%TO.P,D1,2,A*%
%TO.N,Net-(D1-Pad2)*%
X156160000Y-87210000D03*
%TD*%
D15*
%TO.P,J8,1,Pin_1*%
%TO.N,GND*%
X153620000Y-92910000D03*
D16*
%TO.P,J8,2,Pin_2*%
%TO.N,Net-(D1-Pad2)*%
X156160000Y-92910000D03*
%TD*%
D18*
%TO.P,D2,1,K*%
%TO.N,GND*%
X159880000Y-87210000D03*
D19*
%TO.P,D2,2,A*%
%TO.N,Net-(D2-Pad2)*%
X162420000Y-87210000D03*
%TD*%
D17*
%TO.P,H1,1,1*%
%TO.N,GND*%
X174140000Y-93400000D03*
%TD*%
D10*
%TO.P,R1,1*%
%TO.N,Net-(D1-Pad2)*%
X146620000Y-86080000D03*
D11*
%TO.P,R1,2*%
%TO.N,+5V*%
X139000000Y-86080000D03*
%TD*%
D12*
%TO.P,J5,1,Pin_1*%
%TO.N,-12V*%
X147926000Y-77184000D03*
D13*
%TO.P,J5,2,Pin_2*%
X145386000Y-77184000D03*
%TO.P,J5,3,Pin_3*%
%TO.N,GND*%
X147926000Y-74644000D03*
%TO.P,J5,4,Pin_4*%
X145386000Y-74644000D03*
%TO.P,J5,5,Pin_5*%
X147926000Y-72104000D03*
%TO.P,J5,6,Pin_6*%
X145386000Y-72104000D03*
%TO.P,J5,7,Pin_7*%
X147926000Y-69564000D03*
%TO.P,J5,8,Pin_8*%
X145386000Y-69564000D03*
%TO.P,J5,9,Pin_9*%
%TO.N,+12V*%
X147926000Y-67024000D03*
%TO.P,J5,10,Pin_10*%
X145386000Y-67024000D03*
%TO.P,J5,11,Pin_11*%
%TO.N,+5V*%
X147926000Y-64484000D03*
%TO.P,J5,12,Pin_12*%
X145386000Y-64484000D03*
%TO.P,J5,13,Pin_13*%
%TO.N,CV*%
X147926000Y-61944000D03*
%TO.P,J5,14,Pin_14*%
X145386000Y-61944000D03*
%TO.P,J5,15,Pin_15*%
%TO.N,GATE*%
X147926000Y-59404000D03*
%TO.P,J5,16,Pin_16*%
X145386000Y-59404000D03*
%TD*%
D17*
%TO.P,H4,1,1*%
%TO.N,GND*%
X80518000Y-93400000D03*
%TD*%
D12*
%TO.P,J11,1,Pin_1*%
%TO.N,-12V*%
X162382500Y-77184000D03*
D13*
%TO.P,J11,2,Pin_2*%
X159842500Y-77184000D03*
%TO.P,J11,3,Pin_3*%
%TO.N,GND*%
X162382500Y-74644000D03*
%TO.P,J11,4,Pin_4*%
X159842500Y-74644000D03*
%TO.P,J11,5,Pin_5*%
X162382500Y-72104000D03*
%TO.P,J11,6,Pin_6*%
X159842500Y-72104000D03*
%TO.P,J11,7,Pin_7*%
X162382500Y-69564000D03*
%TO.P,J11,8,Pin_8*%
X159842500Y-69564000D03*
%TO.P,J11,9,Pin_9*%
%TO.N,+12V*%
X162382500Y-67024000D03*
%TO.P,J11,10,Pin_10*%
X159842500Y-67024000D03*
%TO.P,J11,11,Pin_11*%
%TO.N,+5V*%
X162382500Y-64484000D03*
%TO.P,J11,12,Pin_12*%
X159842500Y-64484000D03*
%TO.P,J11,13,Pin_13*%
%TO.N,CV*%
X162382500Y-61944000D03*
%TO.P,J11,14,Pin_14*%
X159842500Y-61944000D03*
%TO.P,J11,15,Pin_15*%
%TO.N,GATE*%
X162382500Y-59404000D03*
%TO.P,J11,16,Pin_16*%
X159842500Y-59404000D03*
%TD*%
D15*
%TO.P,J12,1,Pin_1*%
%TO.N,-12V*%
X81530000Y-88350000D03*
D16*
%TO.P,J12,2,Pin_2*%
%TO.N,GND*%
X81530000Y-85810000D03*
%TO.P,J12,3,Pin_3*%
%TO.N,+12V*%
X81530000Y-83270000D03*
%TO.P,J12,4,Pin_4*%
%TO.N,+5V*%
X81530000Y-80730000D03*
%TD*%
D15*
%TO.P,J6,1,-12V*%
%TO.N,-12V*%
X81530000Y-77184000D03*
D16*
%TO.P,J6,2,GND*%
%TO.N,GND*%
X81530000Y-74644000D03*
%TO.P,J6,3,GND*%
X81530000Y-72104000D03*
%TO.P,J6,4,GND*%
X81530000Y-69564000D03*
%TO.P,J6,5,+12V*%
%TO.N,+12V*%
X81530000Y-67024000D03*
%TO.P,J6,6,+5V*%
%TO.N,+5V*%
X81530000Y-64484000D03*
%TO.P,J6,7,CV*%
%TO.N,CV*%
X81530000Y-61944000D03*
%TO.P,J6,8,Gate*%
%TO.N,GATE*%
X81530000Y-59404000D03*
%TD*%
D15*
%TO.P,J7,1,-12V*%
%TO.N,-12V*%
X167055000Y-77184000D03*
D16*
%TO.P,J7,2,GND*%
%TO.N,GND*%
X167055000Y-74644000D03*
%TO.P,J7,3,GND*%
X167055000Y-72104000D03*
%TO.P,J7,4,GND*%
X167055000Y-69564000D03*
%TO.P,J7,5,+12V*%
%TO.N,+12V*%
X167055000Y-67024000D03*
%TO.P,J7,6,+5V*%
%TO.N,+5V*%
X167055000Y-64484000D03*
%TO.P,J7,7,CV*%
%TO.N,CV*%
X167055000Y-61944000D03*
%TO.P,J7,8,Gate*%
%TO.N,GATE*%
X167055000Y-59404000D03*
%TD*%
D20*
%TO.N,+12V*%
X82980000Y-81820000D02*
X82980000Y-68474000D01*
X81530000Y-83270000D02*
X82980000Y-81820000D01*
X82980000Y-68474000D02*
X81530000Y-67024000D01*
%TO.N,-12V*%
X81530000Y-88350000D02*
X80070000Y-86890000D01*
X80070000Y-86890000D02*
X80070000Y-78644000D01*
X80070000Y-78644000D02*
X81530000Y-77184000D01*
%TD*%
%TA.AperFunction,Conductor*%
%TO.N,GND*%
G36*
X176883621Y-52098502D02*
G01*
X176930114Y-52152158D01*
X176941500Y-52204500D01*
X176941500Y-96595500D01*
X176921498Y-96663621D01*
X176867842Y-96710114D01*
X176815500Y-96721500D01*
X78084500Y-96721500D01*
X78016379Y-96701498D01*
X77969886Y-96647842D01*
X77958500Y-96595500D01*
X77958500Y-93560001D01*
X137686502Y-93560001D01*
X137706457Y-93788088D01*
X137707881Y-93793401D01*
X137707881Y-93793403D01*
X137730473Y-93877715D01*
X137765716Y-94009244D01*
X137768039Y-94014225D01*
X137768039Y-94014226D01*
X137860151Y-94211763D01*
X137860154Y-94211768D01*
X137862477Y-94216750D01*
X137993802Y-94404301D01*
X138155700Y-94566199D01*
X138160208Y-94569356D01*
X138160211Y-94569358D01*
X138238389Y-94624099D01*
X138343251Y-94697524D01*
X138348233Y-94699847D01*
X138348238Y-94699850D01*
X138545775Y-94791962D01*
X138550757Y-94794285D01*
X138556065Y-94795707D01*
X138556067Y-94795708D01*
X138766598Y-94852120D01*
X138766600Y-94852120D01*
X138771913Y-94853544D01*
X139000000Y-94873499D01*
X139228087Y-94853544D01*
X139233400Y-94852120D01*
X139233402Y-94852120D01*
X139443933Y-94795708D01*
X139443935Y-94795707D01*
X139449243Y-94794285D01*
X139454225Y-94791962D01*
X139651762Y-94699850D01*
X139651767Y-94699847D01*
X139656749Y-94697524D01*
X139761611Y-94624099D01*
X139839789Y-94569358D01*
X139839792Y-94569356D01*
X139844300Y-94566199D01*
X140006198Y-94404301D01*
X140137523Y-94216750D01*
X140139846Y-94211768D01*
X140139849Y-94211763D01*
X140231961Y-94014226D01*
X140231961Y-94014225D01*
X140234284Y-94009244D01*
X140269528Y-93877715D01*
X140292119Y-93793403D01*
X140292119Y-93793401D01*
X140293543Y-93788088D01*
X140313498Y-93560001D01*
X145306502Y-93560001D01*
X145326457Y-93788088D01*
X145327881Y-93793401D01*
X145327881Y-93793403D01*
X145350473Y-93877715D01*
X145385716Y-94009244D01*
X145388039Y-94014225D01*
X145388039Y-94014226D01*
X145480151Y-94211763D01*
X145480154Y-94211768D01*
X145482477Y-94216750D01*
X145613802Y-94404301D01*
X145775700Y-94566199D01*
X145780208Y-94569356D01*
X145780211Y-94569358D01*
X145858389Y-94624099D01*
X145963251Y-94697524D01*
X145968233Y-94699847D01*
X145968238Y-94699850D01*
X146165775Y-94791962D01*
X146170757Y-94794285D01*
X146176065Y-94795707D01*
X146176067Y-94795708D01*
X146386598Y-94852120D01*
X146386600Y-94852120D01*
X146391913Y-94853544D01*
X146620000Y-94873499D01*
X146848087Y-94853544D01*
X146853400Y-94852120D01*
X146853402Y-94852120D01*
X147063933Y-94795708D01*
X147063935Y-94795707D01*
X147069243Y-94794285D01*
X147074225Y-94791962D01*
X147271762Y-94699850D01*
X147271767Y-94699847D01*
X147276749Y-94697524D01*
X147381611Y-94624099D01*
X147459789Y-94569358D01*
X147459792Y-94569356D01*
X147464300Y-94566199D01*
X147626198Y-94404301D01*
X147757523Y-94216750D01*
X147759846Y-94211768D01*
X147759849Y-94211763D01*
X147851961Y-94014226D01*
X147851961Y-94014225D01*
X147854284Y-94009244D01*
X147889528Y-93877715D01*
X147912119Y-93793403D01*
X147912119Y-93793401D01*
X147913543Y-93788088D01*
X147933498Y-93560001D01*
X147913543Y-93331914D01*
X147912119Y-93326599D01*
X147855707Y-93116068D01*
X147855706Y-93116066D01*
X147854284Y-93110758D01*
X147851961Y-93105776D01*
X147759849Y-92908239D01*
X147759846Y-92908234D01*
X147757523Y-92903252D01*
X147738928Y-92876695D01*
X154797251Y-92876695D01*
X154797548Y-92881848D01*
X154797548Y-92881851D01*
X154803011Y-92976590D01*
X154810110Y-93099715D01*
X154811247Y-93104761D01*
X154811248Y-93104767D01*
X154831119Y-93192939D01*
X154859222Y-93317639D01*
X154943266Y-93524616D01*
X155059987Y-93715088D01*
X155206250Y-93883938D01*
X155378126Y-94026632D01*
X155571000Y-94139338D01*
X155779692Y-94219030D01*
X155784760Y-94220061D01*
X155784763Y-94220062D01*
X155892017Y-94241883D01*
X155998597Y-94263567D01*
X156003772Y-94263757D01*
X156003774Y-94263757D01*
X156216673Y-94271564D01*
X156216677Y-94271564D01*
X156221837Y-94271753D01*
X156226957Y-94271097D01*
X156226959Y-94271097D01*
X156438288Y-94244025D01*
X156438289Y-94244025D01*
X156443416Y-94243368D01*
X156448366Y-94241883D01*
X156652429Y-94180661D01*
X156652434Y-94180659D01*
X156657384Y-94179174D01*
X156857994Y-94080896D01*
X157039860Y-93951173D01*
X157198096Y-93793489D01*
X157257594Y-93710689D01*
X157325435Y-93616277D01*
X157328453Y-93612077D01*
X157354191Y-93560001D01*
X157425136Y-93416453D01*
X157425137Y-93416451D01*
X157427430Y-93411811D01*
X157485436Y-93220892D01*
X157490865Y-93203023D01*
X157490865Y-93203021D01*
X157492370Y-93198069D01*
X157521529Y-92976590D01*
X157521611Y-92973240D01*
X157523074Y-92913365D01*
X157523074Y-92913361D01*
X157523156Y-92910000D01*
X157520418Y-92876695D01*
X161057251Y-92876695D01*
X161057548Y-92881848D01*
X161057548Y-92881851D01*
X161063011Y-92976590D01*
X161070110Y-93099715D01*
X161071247Y-93104761D01*
X161071248Y-93104767D01*
X161091119Y-93192939D01*
X161119222Y-93317639D01*
X161203266Y-93524616D01*
X161319987Y-93715088D01*
X161466250Y-93883938D01*
X161638126Y-94026632D01*
X161831000Y-94139338D01*
X162039692Y-94219030D01*
X162044760Y-94220061D01*
X162044763Y-94220062D01*
X162152017Y-94241883D01*
X162258597Y-94263567D01*
X162263772Y-94263757D01*
X162263774Y-94263757D01*
X162476673Y-94271564D01*
X162476677Y-94271564D01*
X162481837Y-94271753D01*
X162486957Y-94271097D01*
X162486959Y-94271097D01*
X162698288Y-94244025D01*
X162698289Y-94244025D01*
X162703416Y-94243368D01*
X162708366Y-94241883D01*
X162912429Y-94180661D01*
X162912434Y-94180659D01*
X162917384Y-94179174D01*
X163117994Y-94080896D01*
X163299860Y-93951173D01*
X163443400Y-93808134D01*
X164781500Y-93808134D01*
X164788255Y-93870316D01*
X164839385Y-94006705D01*
X164926739Y-94123261D01*
X165043295Y-94210615D01*
X165179684Y-94261745D01*
X165241866Y-94268500D01*
X167038134Y-94268500D01*
X167100316Y-94261745D01*
X167236705Y-94210615D01*
X167353261Y-94123261D01*
X167440615Y-94006705D01*
X167491745Y-93870316D01*
X167498500Y-93808134D01*
X167498500Y-92011866D01*
X167491745Y-91949684D01*
X167440615Y-91813295D01*
X167353261Y-91696739D01*
X167236705Y-91609385D01*
X167100316Y-91558255D01*
X167038134Y-91551500D01*
X165241866Y-91551500D01*
X165179684Y-91558255D01*
X165043295Y-91609385D01*
X164926739Y-91696739D01*
X164839385Y-91813295D01*
X164788255Y-91949684D01*
X164781500Y-92011866D01*
X164781500Y-93808134D01*
X163443400Y-93808134D01*
X163458096Y-93793489D01*
X163517594Y-93710689D01*
X163585435Y-93616277D01*
X163588453Y-93612077D01*
X163614191Y-93560001D01*
X163685136Y-93416453D01*
X163685137Y-93416451D01*
X163687430Y-93411811D01*
X163745436Y-93220892D01*
X163750865Y-93203023D01*
X163750865Y-93203021D01*
X163752370Y-93198069D01*
X163781529Y-92976590D01*
X163781611Y-92973240D01*
X163783074Y-92913365D01*
X163783074Y-92913361D01*
X163783156Y-92910000D01*
X163764852Y-92687361D01*
X163710431Y-92470702D01*
X163621354Y-92265840D01*
X163553369Y-92160751D01*
X163502822Y-92082617D01*
X163502820Y-92082614D01*
X163500014Y-92078277D01*
X163349670Y-91913051D01*
X163345619Y-91909852D01*
X163345615Y-91909848D01*
X163178414Y-91777800D01*
X163178410Y-91777798D01*
X163174359Y-91774598D01*
X162978789Y-91666638D01*
X162973920Y-91664914D01*
X162973916Y-91664912D01*
X162773087Y-91593795D01*
X162773083Y-91593794D01*
X162768212Y-91592069D01*
X162763119Y-91591162D01*
X162763116Y-91591161D01*
X162553373Y-91553800D01*
X162553367Y-91553799D01*
X162548284Y-91552894D01*
X162474452Y-91551992D01*
X162330081Y-91550228D01*
X162330079Y-91550228D01*
X162324911Y-91550165D01*
X162104091Y-91583955D01*
X161891756Y-91653357D01*
X161693607Y-91756507D01*
X161689474Y-91759610D01*
X161689471Y-91759612D01*
X161519100Y-91887530D01*
X161514965Y-91890635D01*
X161360629Y-92052138D01*
X161234743Y-92236680D01*
X161140688Y-92439305D01*
X161080989Y-92654570D01*
X161057251Y-92876695D01*
X157520418Y-92876695D01*
X157504852Y-92687361D01*
X157450431Y-92470702D01*
X157361354Y-92265840D01*
X157293369Y-92160751D01*
X157242822Y-92082617D01*
X157242820Y-92082614D01*
X157240014Y-92078277D01*
X157089670Y-91913051D01*
X157085619Y-91909852D01*
X157085615Y-91909848D01*
X156918414Y-91777800D01*
X156918410Y-91777798D01*
X156914359Y-91774598D01*
X156718789Y-91666638D01*
X156713920Y-91664914D01*
X156713916Y-91664912D01*
X156513087Y-91593795D01*
X156513083Y-91593794D01*
X156508212Y-91592069D01*
X156503119Y-91591162D01*
X156503116Y-91591161D01*
X156293373Y-91553800D01*
X156293367Y-91553799D01*
X156288284Y-91552894D01*
X156214452Y-91551992D01*
X156070081Y-91550228D01*
X156070079Y-91550228D01*
X156064911Y-91550165D01*
X155844091Y-91583955D01*
X155631756Y-91653357D01*
X155433607Y-91756507D01*
X155429474Y-91759610D01*
X155429471Y-91759612D01*
X155259100Y-91887530D01*
X155254965Y-91890635D01*
X155100629Y-92052138D01*
X154974743Y-92236680D01*
X154880688Y-92439305D01*
X154820989Y-92654570D01*
X154797251Y-92876695D01*
X147738928Y-92876695D01*
X147626198Y-92715701D01*
X147464300Y-92553803D01*
X147459792Y-92550646D01*
X147459789Y-92550644D01*
X147338839Y-92465954D01*
X147276749Y-92422478D01*
X147271767Y-92420155D01*
X147271762Y-92420152D01*
X147074225Y-92328040D01*
X147074224Y-92328040D01*
X147069243Y-92325717D01*
X147063935Y-92324295D01*
X147063933Y-92324294D01*
X146853402Y-92267882D01*
X146853400Y-92267882D01*
X146848087Y-92266458D01*
X146620000Y-92246503D01*
X146391913Y-92266458D01*
X146386600Y-92267882D01*
X146386598Y-92267882D01*
X146176067Y-92324294D01*
X146176065Y-92324295D01*
X146170757Y-92325717D01*
X146165776Y-92328040D01*
X146165775Y-92328040D01*
X145968238Y-92420152D01*
X145968233Y-92420155D01*
X145963251Y-92422478D01*
X145901161Y-92465954D01*
X145780211Y-92550644D01*
X145780208Y-92550646D01*
X145775700Y-92553803D01*
X145613802Y-92715701D01*
X145482477Y-92903252D01*
X145480154Y-92908234D01*
X145480151Y-92908239D01*
X145388039Y-93105776D01*
X145385716Y-93110758D01*
X145384294Y-93116066D01*
X145384293Y-93116068D01*
X145327881Y-93326599D01*
X145326457Y-93331914D01*
X145306502Y-93560001D01*
X140313498Y-93560001D01*
X140293543Y-93331914D01*
X140292119Y-93326599D01*
X140235707Y-93116068D01*
X140235706Y-93116066D01*
X140234284Y-93110758D01*
X140231961Y-93105776D01*
X140139849Y-92908239D01*
X140139846Y-92908234D01*
X140137523Y-92903252D01*
X140006198Y-92715701D01*
X139844300Y-92553803D01*
X139839792Y-92550646D01*
X139839789Y-92550644D01*
X139718839Y-92465954D01*
X139656749Y-92422478D01*
X139651767Y-92420155D01*
X139651762Y-92420152D01*
X139454225Y-92328040D01*
X139454224Y-92328040D01*
X139449243Y-92325717D01*
X139443935Y-92324295D01*
X139443933Y-92324294D01*
X139233402Y-92267882D01*
X139233400Y-92267882D01*
X139228087Y-92266458D01*
X139000000Y-92246503D01*
X138771913Y-92266458D01*
X138766600Y-92267882D01*
X138766598Y-92267882D01*
X138556067Y-92324294D01*
X138556065Y-92324295D01*
X138550757Y-92325717D01*
X138545776Y-92328040D01*
X138545775Y-92328040D01*
X138348238Y-92420152D01*
X138348233Y-92420155D01*
X138343251Y-92422478D01*
X138281161Y-92465954D01*
X138160211Y-92550644D01*
X138160208Y-92550646D01*
X138155700Y-92553803D01*
X137993802Y-92715701D01*
X137862477Y-92903252D01*
X137860154Y-92908234D01*
X137860151Y-92908239D01*
X137768039Y-93105776D01*
X137765716Y-93110758D01*
X137764294Y-93116066D01*
X137764293Y-93116068D01*
X137707881Y-93326599D01*
X137706457Y-93331914D01*
X137686502Y-93560001D01*
X77958500Y-93560001D01*
X77958500Y-91927349D01*
X116863002Y-91927349D01*
X116882957Y-92155436D01*
X116884381Y-92160749D01*
X116884381Y-92160751D01*
X116913813Y-92270590D01*
X116942216Y-92376592D01*
X116944539Y-92381573D01*
X116944539Y-92381574D01*
X117036651Y-92579111D01*
X117036654Y-92579116D01*
X117038977Y-92584098D01*
X117170302Y-92771649D01*
X117332200Y-92933547D01*
X117336708Y-92936704D01*
X117336711Y-92936706D01*
X117398410Y-92979908D01*
X117519751Y-93064872D01*
X117524733Y-93067195D01*
X117524738Y-93067198D01*
X117722275Y-93159310D01*
X117727257Y-93161633D01*
X117732565Y-93163055D01*
X117732567Y-93163056D01*
X117943098Y-93219468D01*
X117943100Y-93219468D01*
X117948413Y-93220892D01*
X118176500Y-93240847D01*
X118404587Y-93220892D01*
X118409900Y-93219468D01*
X118409902Y-93219468D01*
X118620433Y-93163056D01*
X118620435Y-93163055D01*
X118625743Y-93161633D01*
X118630725Y-93159310D01*
X118828262Y-93067198D01*
X118828267Y-93067195D01*
X118833249Y-93064872D01*
X118954590Y-92979908D01*
X119016289Y-92936706D01*
X119016292Y-92936704D01*
X119020800Y-92933547D01*
X119182698Y-92771649D01*
X119314023Y-92584098D01*
X119316346Y-92579116D01*
X119316349Y-92579111D01*
X119408461Y-92381574D01*
X119408461Y-92381573D01*
X119410784Y-92376592D01*
X119439188Y-92270590D01*
X119468619Y-92160751D01*
X119468619Y-92160749D01*
X119470043Y-92155436D01*
X119489998Y-91927349D01*
X119470043Y-91699262D01*
X119461971Y-91669137D01*
X119412207Y-91483416D01*
X119412206Y-91483414D01*
X119410784Y-91478106D01*
X119408461Y-91473124D01*
X119316349Y-91275587D01*
X119316346Y-91275582D01*
X119314023Y-91270600D01*
X119218023Y-91133498D01*
X119185857Y-91087560D01*
X119185855Y-91087557D01*
X119182698Y-91083049D01*
X119020800Y-90921151D01*
X119016292Y-90917994D01*
X119016289Y-90917992D01*
X118879628Y-90822301D01*
X118833249Y-90789826D01*
X118828267Y-90787503D01*
X118828262Y-90787500D01*
X118630725Y-90695388D01*
X118630724Y-90695388D01*
X118625743Y-90693065D01*
X118620435Y-90691643D01*
X118620433Y-90691642D01*
X118409902Y-90635230D01*
X118409900Y-90635230D01*
X118404587Y-90633806D01*
X118176500Y-90613851D01*
X117948413Y-90633806D01*
X117943100Y-90635230D01*
X117943098Y-90635230D01*
X117732567Y-90691642D01*
X117732565Y-90691643D01*
X117727257Y-90693065D01*
X117722276Y-90695388D01*
X117722275Y-90695388D01*
X117524738Y-90787500D01*
X117524733Y-90787503D01*
X117519751Y-90789826D01*
X117473372Y-90822301D01*
X117336711Y-90917992D01*
X117336708Y-90917994D01*
X117332200Y-90921151D01*
X117170302Y-91083049D01*
X117167145Y-91087557D01*
X117167143Y-91087560D01*
X117134977Y-91133498D01*
X117038977Y-91270600D01*
X117036654Y-91275582D01*
X117036651Y-91275587D01*
X116944539Y-91473124D01*
X116942216Y-91478106D01*
X116940794Y-91483414D01*
X116940793Y-91483416D01*
X116891029Y-91669137D01*
X116882957Y-91699262D01*
X116863002Y-91927349D01*
X77958500Y-91927349D01*
X77958500Y-89820000D01*
X137686502Y-89820000D01*
X137706457Y-90048087D01*
X137765716Y-90269243D01*
X137768039Y-90274224D01*
X137768039Y-90274225D01*
X137860151Y-90471762D01*
X137860154Y-90471767D01*
X137862477Y-90476749D01*
X137865634Y-90481257D01*
X137958813Y-90614330D01*
X137993802Y-90664300D01*
X138155700Y-90826198D01*
X138160208Y-90829355D01*
X138160211Y-90829357D01*
X138238389Y-90884098D01*
X138343251Y-90957523D01*
X138348233Y-90959846D01*
X138348238Y-90959849D01*
X138545775Y-91051961D01*
X138550757Y-91054284D01*
X138556065Y-91055706D01*
X138556067Y-91055707D01*
X138766598Y-91112119D01*
X138766600Y-91112119D01*
X138771913Y-91113543D01*
X139000000Y-91133498D01*
X139228087Y-91113543D01*
X139233400Y-91112119D01*
X139233402Y-91112119D01*
X139443933Y-91055707D01*
X139443935Y-91055706D01*
X139449243Y-91054284D01*
X139454225Y-91051961D01*
X139651762Y-90959849D01*
X139651767Y-90959846D01*
X139656749Y-90957523D01*
X139761611Y-90884098D01*
X139839789Y-90829357D01*
X139839792Y-90829355D01*
X139844300Y-90826198D01*
X140006198Y-90664300D01*
X140041188Y-90614330D01*
X140134366Y-90481257D01*
X140137523Y-90476749D01*
X140139846Y-90471767D01*
X140139849Y-90471762D01*
X140231961Y-90274225D01*
X140231961Y-90274224D01*
X140234284Y-90269243D01*
X140293543Y-90048087D01*
X140313498Y-89820000D01*
X145306502Y-89820000D01*
X145326457Y-90048087D01*
X145385716Y-90269243D01*
X145388039Y-90274224D01*
X145388039Y-90274225D01*
X145480151Y-90471762D01*
X145480154Y-90471767D01*
X145482477Y-90476749D01*
X145485634Y-90481257D01*
X145578813Y-90614330D01*
X145613802Y-90664300D01*
X145775700Y-90826198D01*
X145780208Y-90829355D01*
X145780211Y-90829357D01*
X145858389Y-90884098D01*
X145963251Y-90957523D01*
X145968233Y-90959846D01*
X145968238Y-90959849D01*
X146165775Y-91051961D01*
X146170757Y-91054284D01*
X146176065Y-91055706D01*
X146176067Y-91055707D01*
X146386598Y-91112119D01*
X146386600Y-91112119D01*
X146391913Y-91113543D01*
X146620000Y-91133498D01*
X146848087Y-91113543D01*
X146853400Y-91112119D01*
X146853402Y-91112119D01*
X147063933Y-91055707D01*
X147063935Y-91055706D01*
X147069243Y-91054284D01*
X147074225Y-91051961D01*
X147271762Y-90959849D01*
X147271767Y-90959846D01*
X147276749Y-90957523D01*
X147381611Y-90884098D01*
X147459789Y-90829357D01*
X147459792Y-90829355D01*
X147464300Y-90826198D01*
X147626198Y-90664300D01*
X147661188Y-90614330D01*
X147754366Y-90481257D01*
X147757523Y-90476749D01*
X147759846Y-90471767D01*
X147759849Y-90471762D01*
X147851961Y-90274225D01*
X147851961Y-90274224D01*
X147854284Y-90269243D01*
X147913543Y-90048087D01*
X147933498Y-89820000D01*
X147913543Y-89591913D01*
X147876560Y-89453891D01*
X147855707Y-89376067D01*
X147855706Y-89376065D01*
X147854284Y-89370757D01*
X147835190Y-89329809D01*
X147759849Y-89168238D01*
X147759846Y-89168233D01*
X147757523Y-89163251D01*
X147626198Y-88975700D01*
X147464300Y-88813802D01*
X147459792Y-88810645D01*
X147459789Y-88810643D01*
X147381611Y-88755902D01*
X147276749Y-88682477D01*
X147271767Y-88680154D01*
X147271762Y-88680151D01*
X147074225Y-88588039D01*
X147074224Y-88588039D01*
X147069243Y-88585716D01*
X147063935Y-88584294D01*
X147063933Y-88584293D01*
X146853402Y-88527881D01*
X146853400Y-88527881D01*
X146848087Y-88526457D01*
X146620000Y-88506502D01*
X146391913Y-88526457D01*
X146386600Y-88527881D01*
X146386598Y-88527881D01*
X146176067Y-88584293D01*
X146176065Y-88584294D01*
X146170757Y-88585716D01*
X146165776Y-88588039D01*
X146165775Y-88588039D01*
X145968238Y-88680151D01*
X145968233Y-88680154D01*
X145963251Y-88682477D01*
X145858389Y-88755902D01*
X145780211Y-88810643D01*
X145780208Y-88810645D01*
X145775700Y-88813802D01*
X145613802Y-88975700D01*
X145482477Y-89163251D01*
X145480154Y-89168233D01*
X145480151Y-89168238D01*
X145404810Y-89329809D01*
X145385716Y-89370757D01*
X145384294Y-89376065D01*
X145384293Y-89376067D01*
X145363440Y-89453891D01*
X145326457Y-89591913D01*
X145306502Y-89820000D01*
X140313498Y-89820000D01*
X140293543Y-89591913D01*
X140256560Y-89453891D01*
X140235707Y-89376067D01*
X140235706Y-89376065D01*
X140234284Y-89370757D01*
X140215190Y-89329809D01*
X140139849Y-89168238D01*
X140139846Y-89168233D01*
X140137523Y-89163251D01*
X140006198Y-88975700D01*
X139844300Y-88813802D01*
X139839792Y-88810645D01*
X139839789Y-88810643D01*
X139761611Y-88755902D01*
X139656749Y-88682477D01*
X139651767Y-88680154D01*
X139651762Y-88680151D01*
X139454225Y-88588039D01*
X139454224Y-88588039D01*
X139449243Y-88585716D01*
X139443935Y-88584294D01*
X139443933Y-88584293D01*
X139233402Y-88527881D01*
X139233400Y-88527881D01*
X139228087Y-88526457D01*
X139000000Y-88506502D01*
X138771913Y-88526457D01*
X138766600Y-88527881D01*
X138766598Y-88527881D01*
X138556067Y-88584293D01*
X138556065Y-88584294D01*
X138550757Y-88585716D01*
X138545776Y-88588039D01*
X138545775Y-88588039D01*
X138348238Y-88680151D01*
X138348233Y-88680154D01*
X138343251Y-88682477D01*
X138238389Y-88755902D01*
X138160211Y-88810643D01*
X138160208Y-88810645D01*
X138155700Y-88813802D01*
X137993802Y-88975700D01*
X137862477Y-89163251D01*
X137860154Y-89168233D01*
X137860151Y-89168238D01*
X137784810Y-89329809D01*
X137765716Y-89370757D01*
X137764294Y-89376065D01*
X137764293Y-89376067D01*
X137743440Y-89453891D01*
X137706457Y-89591913D01*
X137686502Y-89820000D01*
X77958500Y-89820000D01*
X77958500Y-86842190D01*
X79157748Y-86842190D01*
X79158093Y-86848777D01*
X79158093Y-86848782D01*
X79161327Y-86910480D01*
X79161500Y-86917074D01*
X79161500Y-86937610D01*
X79161844Y-86940882D01*
X79161844Y-86940884D01*
X79163647Y-86958042D01*
X79164164Y-86964616D01*
X79166073Y-87001029D01*
X79167743Y-87032903D01*
X79169453Y-87039284D01*
X79169453Y-87039286D01*
X79171383Y-87046491D01*
X79174985Y-87065925D01*
X79175766Y-87073354D01*
X79175768Y-87073363D01*
X79176458Y-87079928D01*
X79197600Y-87144997D01*
X79199467Y-87151299D01*
X79217171Y-87217370D01*
X79223559Y-87229907D01*
X79231125Y-87248173D01*
X79235473Y-87261556D01*
X79238776Y-87267278D01*
X79238777Y-87267279D01*
X79269667Y-87320782D01*
X79272814Y-87326577D01*
X79303871Y-87387530D01*
X79308024Y-87392658D01*
X79308025Y-87392660D01*
X79312727Y-87398466D01*
X79323927Y-87414763D01*
X79327657Y-87421224D01*
X79327660Y-87421228D01*
X79330960Y-87426944D01*
X79335377Y-87431850D01*
X79335381Y-87431855D01*
X79376722Y-87477769D01*
X79381006Y-87482784D01*
X79393928Y-87498741D01*
X79408443Y-87513256D01*
X79412984Y-87518041D01*
X79458747Y-87568866D01*
X79464086Y-87572745D01*
X79464087Y-87572746D01*
X79470135Y-87577140D01*
X79485168Y-87589981D01*
X80134595Y-88239408D01*
X80168621Y-88301720D01*
X80171500Y-88328503D01*
X80171500Y-89248134D01*
X80178255Y-89310316D01*
X80229385Y-89446705D01*
X80316739Y-89563261D01*
X80433295Y-89650615D01*
X80569684Y-89701745D01*
X80631866Y-89708500D01*
X82428134Y-89708500D01*
X82490316Y-89701745D01*
X82626705Y-89650615D01*
X82743261Y-89563261D01*
X82830615Y-89446705D01*
X82881745Y-89310316D01*
X82885529Y-89275483D01*
X87955000Y-89275483D01*
X87961755Y-89337665D01*
X88012885Y-89474054D01*
X88100239Y-89590610D01*
X88216795Y-89677964D01*
X88353184Y-89729094D01*
X88415366Y-89735849D01*
X90111634Y-89735849D01*
X90173816Y-89729094D01*
X90310205Y-89677964D01*
X90426761Y-89590610D01*
X90514115Y-89474054D01*
X90565245Y-89337665D01*
X90572000Y-89275483D01*
X102411500Y-89275483D01*
X102418255Y-89337665D01*
X102469385Y-89474054D01*
X102556739Y-89590610D01*
X102673295Y-89677964D01*
X102809684Y-89729094D01*
X102871866Y-89735849D01*
X104568134Y-89735849D01*
X104630316Y-89729094D01*
X104766705Y-89677964D01*
X104883261Y-89590610D01*
X104970615Y-89474054D01*
X105021745Y-89337665D01*
X105028500Y-89275483D01*
X105028500Y-87579215D01*
X105021745Y-87517033D01*
X104970615Y-87380644D01*
X104883261Y-87264088D01*
X104766705Y-87176734D01*
X104630316Y-87125604D01*
X104568134Y-87118849D01*
X102871866Y-87118849D01*
X102809684Y-87125604D01*
X102673295Y-87176734D01*
X102556739Y-87264088D01*
X102469385Y-87380644D01*
X102418255Y-87517033D01*
X102411500Y-87579215D01*
X102411500Y-89275483D01*
X90572000Y-89275483D01*
X90572000Y-87579215D01*
X90565245Y-87517033D01*
X90514115Y-87380644D01*
X90426761Y-87264088D01*
X90310205Y-87176734D01*
X90173816Y-87125604D01*
X90111634Y-87118849D01*
X88415366Y-87118849D01*
X88353184Y-87125604D01*
X88216795Y-87176734D01*
X88100239Y-87264088D01*
X88012885Y-87380644D01*
X87961755Y-87517033D01*
X87955000Y-87579215D01*
X87955000Y-89275483D01*
X82885529Y-89275483D01*
X82888500Y-89248134D01*
X82888500Y-87451866D01*
X82881745Y-87389684D01*
X82830615Y-87253295D01*
X82743261Y-87136739D01*
X82626705Y-87049385D01*
X82490316Y-86998255D01*
X82428134Y-86991500D01*
X81508503Y-86991500D01*
X81440382Y-86971498D01*
X81419408Y-86954595D01*
X81015405Y-86550592D01*
X80981379Y-86488280D01*
X80978500Y-86461497D01*
X80978500Y-86080000D01*
X137686502Y-86080000D01*
X137706457Y-86308087D01*
X137707881Y-86313400D01*
X137707881Y-86313402D01*
X137761069Y-86511899D01*
X137765716Y-86529243D01*
X137768039Y-86534224D01*
X137768039Y-86534225D01*
X137860151Y-86731762D01*
X137860154Y-86731767D01*
X137862477Y-86736749D01*
X137993802Y-86924300D01*
X138155700Y-87086198D01*
X138160208Y-87089355D01*
X138160211Y-87089357D01*
X138202330Y-87118849D01*
X138343251Y-87217523D01*
X138348233Y-87219846D01*
X138348238Y-87219849D01*
X138482293Y-87282359D01*
X138550757Y-87314284D01*
X138556065Y-87315706D01*
X138556067Y-87315707D01*
X138766598Y-87372119D01*
X138766600Y-87372119D01*
X138771913Y-87373543D01*
X139000000Y-87393498D01*
X139228087Y-87373543D01*
X139233400Y-87372119D01*
X139233402Y-87372119D01*
X139443933Y-87315707D01*
X139443935Y-87315706D01*
X139449243Y-87314284D01*
X139517707Y-87282359D01*
X139651762Y-87219849D01*
X139651767Y-87219846D01*
X139656749Y-87217523D01*
X139797670Y-87118849D01*
X139839789Y-87089357D01*
X139839792Y-87089355D01*
X139844300Y-87086198D01*
X140006198Y-86924300D01*
X140137523Y-86736749D01*
X140139846Y-86731767D01*
X140139849Y-86731762D01*
X140231961Y-86534225D01*
X140231961Y-86534224D01*
X140234284Y-86529243D01*
X140238932Y-86511899D01*
X140292119Y-86313402D01*
X140292119Y-86313400D01*
X140293543Y-86308087D01*
X140313498Y-86080000D01*
X145306502Y-86080000D01*
X145326457Y-86308087D01*
X145327881Y-86313400D01*
X145327881Y-86313402D01*
X145381069Y-86511899D01*
X145385716Y-86529243D01*
X145388039Y-86534224D01*
X145388039Y-86534225D01*
X145480151Y-86731762D01*
X145480154Y-86731767D01*
X145482477Y-86736749D01*
X145613802Y-86924300D01*
X145775700Y-87086198D01*
X145780208Y-87089355D01*
X145780211Y-87089357D01*
X145822330Y-87118849D01*
X145963251Y-87217523D01*
X145968233Y-87219846D01*
X145968238Y-87219849D01*
X146102293Y-87282359D01*
X146170757Y-87314284D01*
X146176065Y-87315706D01*
X146176067Y-87315707D01*
X146386598Y-87372119D01*
X146386600Y-87372119D01*
X146391913Y-87373543D01*
X146620000Y-87393498D01*
X146848087Y-87373543D01*
X146853400Y-87372119D01*
X146853402Y-87372119D01*
X147063933Y-87315707D01*
X147063935Y-87315706D01*
X147069243Y-87314284D01*
X147137707Y-87282359D01*
X147271762Y-87219849D01*
X147271767Y-87219846D01*
X147276749Y-87217523D01*
X147336808Y-87175469D01*
X154747095Y-87175469D01*
X154747392Y-87180622D01*
X154747392Y-87180625D01*
X154758515Y-87373543D01*
X154760427Y-87406697D01*
X154761564Y-87411743D01*
X154761565Y-87411749D01*
X154787063Y-87524889D01*
X154811346Y-87632642D01*
X154813288Y-87637424D01*
X154813289Y-87637428D01*
X154896540Y-87842450D01*
X154898484Y-87847237D01*
X155019501Y-88044719D01*
X155171147Y-88219784D01*
X155349349Y-88367730D01*
X155549322Y-88484584D01*
X155554147Y-88486426D01*
X155554148Y-88486427D01*
X155628665Y-88514883D01*
X155765694Y-88567209D01*
X155770760Y-88568240D01*
X155770761Y-88568240D01*
X155823846Y-88579040D01*
X155992656Y-88613385D01*
X156122089Y-88618131D01*
X156218949Y-88621683D01*
X156218953Y-88621683D01*
X156224113Y-88621872D01*
X156229233Y-88621216D01*
X156229235Y-88621216D01*
X156303166Y-88611745D01*
X156453847Y-88592442D01*
X156458795Y-88590957D01*
X156458802Y-88590956D01*
X156670747Y-88527369D01*
X156675690Y-88525886D01*
X156756236Y-88486427D01*
X156879049Y-88426262D01*
X156879052Y-88426260D01*
X156883684Y-88423991D01*
X157072243Y-88289494D01*
X157236303Y-88126005D01*
X157371458Y-87937917D01*
X157418641Y-87842450D01*
X157471784Y-87734922D01*
X157471785Y-87734920D01*
X157474078Y-87730280D01*
X157541408Y-87508671D01*
X157571640Y-87279041D01*
X157571830Y-87271268D01*
X157573245Y-87213365D01*
X157573245Y-87213361D01*
X157573327Y-87210000D01*
X157570488Y-87175469D01*
X161007095Y-87175469D01*
X161007392Y-87180622D01*
X161007392Y-87180625D01*
X161018515Y-87373543D01*
X161020427Y-87406697D01*
X161021564Y-87411743D01*
X161021565Y-87411749D01*
X161047063Y-87524889D01*
X161071346Y-87632642D01*
X161073288Y-87637424D01*
X161073289Y-87637428D01*
X161156540Y-87842450D01*
X161158484Y-87847237D01*
X161279501Y-88044719D01*
X161431147Y-88219784D01*
X161609349Y-88367730D01*
X161809322Y-88484584D01*
X161814147Y-88486426D01*
X161814148Y-88486427D01*
X161888665Y-88514883D01*
X162025694Y-88567209D01*
X162030760Y-88568240D01*
X162030761Y-88568240D01*
X162083846Y-88579040D01*
X162252656Y-88613385D01*
X162382089Y-88618131D01*
X162478949Y-88621683D01*
X162478953Y-88621683D01*
X162484113Y-88621872D01*
X162489233Y-88621216D01*
X162489235Y-88621216D01*
X162563166Y-88611745D01*
X162713847Y-88592442D01*
X162718795Y-88590957D01*
X162718802Y-88590956D01*
X162930747Y-88527369D01*
X162935690Y-88525886D01*
X163016236Y-88486427D01*
X163139049Y-88426262D01*
X163139052Y-88426260D01*
X163143684Y-88423991D01*
X163332243Y-88289494D01*
X163464062Y-88158134D01*
X164731500Y-88158134D01*
X164738255Y-88220316D01*
X164789385Y-88356705D01*
X164876739Y-88473261D01*
X164993295Y-88560615D01*
X165129684Y-88611745D01*
X165191866Y-88618500D01*
X167088134Y-88618500D01*
X167150316Y-88611745D01*
X167286705Y-88560615D01*
X167403261Y-88473261D01*
X167490615Y-88356705D01*
X167541745Y-88220316D01*
X167548500Y-88158134D01*
X167548500Y-86261866D01*
X167541745Y-86199684D01*
X167490615Y-86063295D01*
X167403261Y-85946739D01*
X167286705Y-85859385D01*
X167150316Y-85808255D01*
X167088134Y-85801500D01*
X165191866Y-85801500D01*
X165129684Y-85808255D01*
X164993295Y-85859385D01*
X164876739Y-85946739D01*
X164789385Y-86063295D01*
X164738255Y-86199684D01*
X164731500Y-86261866D01*
X164731500Y-88158134D01*
X163464062Y-88158134D01*
X163496303Y-88126005D01*
X163631458Y-87937917D01*
X163678641Y-87842450D01*
X163731784Y-87734922D01*
X163731785Y-87734920D01*
X163734078Y-87730280D01*
X163801408Y-87508671D01*
X163831640Y-87279041D01*
X163831830Y-87271268D01*
X163833245Y-87213365D01*
X163833245Y-87213361D01*
X163833327Y-87210000D01*
X163818225Y-87026308D01*
X163814773Y-86984318D01*
X163814772Y-86984312D01*
X163814349Y-86979167D01*
X163773993Y-86818501D01*
X163759184Y-86759544D01*
X163759183Y-86759540D01*
X163757925Y-86754533D01*
X163755866Y-86749797D01*
X163667630Y-86546868D01*
X163667628Y-86546865D01*
X163665570Y-86542131D01*
X163539764Y-86347665D01*
X163498765Y-86302607D01*
X163412260Y-86207540D01*
X163383887Y-86176358D01*
X163379836Y-86173159D01*
X163379832Y-86173155D01*
X163206177Y-86036011D01*
X163206172Y-86036008D01*
X163202123Y-86032810D01*
X163197607Y-86030317D01*
X163197604Y-86030315D01*
X163003879Y-85923373D01*
X163003875Y-85923371D01*
X162999355Y-85920876D01*
X162994486Y-85919152D01*
X162994482Y-85919150D01*
X162785903Y-85845288D01*
X162785899Y-85845287D01*
X162781028Y-85843562D01*
X162775935Y-85842655D01*
X162775932Y-85842654D01*
X162558095Y-85803851D01*
X162558089Y-85803850D01*
X162553006Y-85802945D01*
X162480096Y-85802054D01*
X162326581Y-85800179D01*
X162326579Y-85800179D01*
X162321411Y-85800116D01*
X162092464Y-85835150D01*
X161872314Y-85907106D01*
X161867726Y-85909494D01*
X161867722Y-85909496D01*
X161671461Y-86011663D01*
X161666872Y-86014052D01*
X161662739Y-86017155D01*
X161662736Y-86017157D01*
X161485790Y-86150012D01*
X161481655Y-86153117D01*
X161321639Y-86320564D01*
X161318725Y-86324836D01*
X161318724Y-86324837D01*
X161303152Y-86347665D01*
X161191119Y-86511899D01*
X161093602Y-86721981D01*
X161031707Y-86945169D01*
X161007095Y-87175469D01*
X157570488Y-87175469D01*
X157558225Y-87026308D01*
X157554773Y-86984318D01*
X157554772Y-86984312D01*
X157554349Y-86979167D01*
X157513993Y-86818501D01*
X157499184Y-86759544D01*
X157499183Y-86759540D01*
X157497925Y-86754533D01*
X157495866Y-86749797D01*
X157407630Y-86546868D01*
X157407628Y-86546865D01*
X157405570Y-86542131D01*
X157279764Y-86347665D01*
X157238765Y-86302607D01*
X157152260Y-86207540D01*
X157123887Y-86176358D01*
X157119836Y-86173159D01*
X157119832Y-86173155D01*
X156946177Y-86036011D01*
X156946172Y-86036008D01*
X156942123Y-86032810D01*
X156937607Y-86030317D01*
X156937604Y-86030315D01*
X156743879Y-85923373D01*
X156743875Y-85923371D01*
X156739355Y-85920876D01*
X156734486Y-85919152D01*
X156734482Y-85919150D01*
X156525903Y-85845288D01*
X156525899Y-85845287D01*
X156521028Y-85843562D01*
X156515935Y-85842655D01*
X156515932Y-85842654D01*
X156298095Y-85803851D01*
X156298089Y-85803850D01*
X156293006Y-85802945D01*
X156220096Y-85802054D01*
X156066581Y-85800179D01*
X156066579Y-85800179D01*
X156061411Y-85800116D01*
X155832464Y-85835150D01*
X155612314Y-85907106D01*
X155607726Y-85909494D01*
X155607722Y-85909496D01*
X155411461Y-86011663D01*
X155406872Y-86014052D01*
X155402739Y-86017155D01*
X155402736Y-86017157D01*
X155225790Y-86150012D01*
X155221655Y-86153117D01*
X155061639Y-86320564D01*
X155058725Y-86324836D01*
X155058724Y-86324837D01*
X155043152Y-86347665D01*
X154931119Y-86511899D01*
X154833602Y-86721981D01*
X154771707Y-86945169D01*
X154747095Y-87175469D01*
X147336808Y-87175469D01*
X147417670Y-87118849D01*
X147459789Y-87089357D01*
X147459792Y-87089355D01*
X147464300Y-87086198D01*
X147626198Y-86924300D01*
X147757523Y-86736749D01*
X147759846Y-86731767D01*
X147759849Y-86731762D01*
X147851961Y-86534225D01*
X147851961Y-86534224D01*
X147854284Y-86529243D01*
X147858932Y-86511899D01*
X147912119Y-86313402D01*
X147912119Y-86313400D01*
X147913543Y-86308087D01*
X147933498Y-86080000D01*
X147913543Y-85851913D01*
X147911768Y-85845288D01*
X147855707Y-85636067D01*
X147855706Y-85636065D01*
X147854284Y-85630757D01*
X147851961Y-85625775D01*
X147759849Y-85428238D01*
X147759846Y-85428233D01*
X147757523Y-85423251D01*
X147626198Y-85235700D01*
X147464300Y-85073802D01*
X147459792Y-85070645D01*
X147459789Y-85070643D01*
X147381611Y-85015902D01*
X147276749Y-84942477D01*
X147271767Y-84940154D01*
X147271762Y-84940151D01*
X147074225Y-84848039D01*
X147074224Y-84848039D01*
X147069243Y-84845716D01*
X147063935Y-84844294D01*
X147063933Y-84844293D01*
X146853402Y-84787881D01*
X146853400Y-84787881D01*
X146848087Y-84786457D01*
X146620000Y-84766502D01*
X146391913Y-84786457D01*
X146386600Y-84787881D01*
X146386598Y-84787881D01*
X146176067Y-84844293D01*
X146176065Y-84844294D01*
X146170757Y-84845716D01*
X146165776Y-84848039D01*
X146165775Y-84848039D01*
X145968238Y-84940151D01*
X145968233Y-84940154D01*
X145963251Y-84942477D01*
X145858389Y-85015902D01*
X145780211Y-85070643D01*
X145780208Y-85070645D01*
X145775700Y-85073802D01*
X145613802Y-85235700D01*
X145482477Y-85423251D01*
X145480154Y-85428233D01*
X145480151Y-85428238D01*
X145388039Y-85625775D01*
X145385716Y-85630757D01*
X145384294Y-85636065D01*
X145384293Y-85636067D01*
X145328232Y-85845288D01*
X145326457Y-85851913D01*
X145306502Y-86080000D01*
X140313498Y-86080000D01*
X140293543Y-85851913D01*
X140291768Y-85845288D01*
X140235707Y-85636067D01*
X140235706Y-85636065D01*
X140234284Y-85630757D01*
X140231961Y-85625775D01*
X140139849Y-85428238D01*
X140139846Y-85428233D01*
X140137523Y-85423251D01*
X140006198Y-85235700D01*
X139844300Y-85073802D01*
X139839792Y-85070645D01*
X139839789Y-85070643D01*
X139761611Y-85015902D01*
X139656749Y-84942477D01*
X139651767Y-84940154D01*
X139651762Y-84940151D01*
X139454225Y-84848039D01*
X139454224Y-84848039D01*
X139449243Y-84845716D01*
X139443935Y-84844294D01*
X139443933Y-84844293D01*
X139233402Y-84787881D01*
X139233400Y-84787881D01*
X139228087Y-84786457D01*
X139000000Y-84766502D01*
X138771913Y-84786457D01*
X138766600Y-84787881D01*
X138766598Y-84787881D01*
X138556067Y-84844293D01*
X138556065Y-84844294D01*
X138550757Y-84845716D01*
X138545776Y-84848039D01*
X138545775Y-84848039D01*
X138348238Y-84940151D01*
X138348233Y-84940154D01*
X138343251Y-84942477D01*
X138238389Y-85015902D01*
X138160211Y-85070643D01*
X138160208Y-85070645D01*
X138155700Y-85073802D01*
X137993802Y-85235700D01*
X137862477Y-85423251D01*
X137860154Y-85428233D01*
X137860151Y-85428238D01*
X137768039Y-85625775D01*
X137765716Y-85630757D01*
X137764294Y-85636065D01*
X137764293Y-85636067D01*
X137708232Y-85845288D01*
X137706457Y-85851913D01*
X137686502Y-86080000D01*
X80978500Y-86080000D01*
X80978500Y-84696647D01*
X80998502Y-84628526D01*
X81052158Y-84582033D01*
X81122432Y-84571929D01*
X81139698Y-84576415D01*
X81139893Y-84575742D01*
X81144862Y-84577186D01*
X81149692Y-84579030D01*
X81154760Y-84580061D01*
X81154763Y-84580062D01*
X81262017Y-84601883D01*
X81368597Y-84623567D01*
X81373772Y-84623757D01*
X81373774Y-84623757D01*
X81586673Y-84631564D01*
X81586677Y-84631564D01*
X81591837Y-84631753D01*
X81596957Y-84631097D01*
X81596959Y-84631097D01*
X81808288Y-84604025D01*
X81808289Y-84604025D01*
X81813416Y-84603368D01*
X81884529Y-84582033D01*
X82022429Y-84540661D01*
X82022434Y-84540659D01*
X82027384Y-84539174D01*
X82227994Y-84440896D01*
X82409860Y-84311173D01*
X82568096Y-84153489D01*
X82698453Y-83972077D01*
X82797430Y-83771811D01*
X82862370Y-83558069D01*
X82891529Y-83336590D01*
X82893156Y-83270000D01*
X82892880Y-83266641D01*
X82891986Y-83255763D01*
X82906340Y-83186233D01*
X82928467Y-83156346D01*
X83564832Y-82519981D01*
X83579865Y-82507140D01*
X83585913Y-82502746D01*
X83585914Y-82502745D01*
X83591253Y-82498866D01*
X83637016Y-82448041D01*
X83641557Y-82443256D01*
X83656072Y-82428741D01*
X83668994Y-82412784D01*
X83673278Y-82407769D01*
X83714619Y-82361855D01*
X83714623Y-82361850D01*
X83719040Y-82356944D01*
X83722340Y-82351228D01*
X83722343Y-82351224D01*
X83726073Y-82344763D01*
X83737273Y-82328466D01*
X83741975Y-82322660D01*
X83741976Y-82322658D01*
X83746129Y-82317530D01*
X83777188Y-82256574D01*
X83780336Y-82250777D01*
X83811224Y-82197277D01*
X83814527Y-82191556D01*
X83818875Y-82178174D01*
X83826438Y-82159915D01*
X83832830Y-82147370D01*
X83850537Y-82081288D01*
X83852409Y-82074969D01*
X83871501Y-82016210D01*
X83871501Y-82016209D01*
X83873542Y-82009928D01*
X83875014Y-81995925D01*
X83878615Y-81976496D01*
X83882257Y-81962903D01*
X83885836Y-81894616D01*
X83886353Y-81888042D01*
X83888156Y-81870884D01*
X83888156Y-81870882D01*
X83888500Y-81867610D01*
X83888500Y-81847074D01*
X83888673Y-81840480D01*
X83891907Y-81778782D01*
X83891907Y-81778777D01*
X83892252Y-81772190D01*
X83890051Y-81758293D01*
X83888500Y-81738583D01*
X83888500Y-77150695D01*
X86197251Y-77150695D01*
X86197548Y-77155848D01*
X86197548Y-77155851D01*
X86205548Y-77294592D01*
X86210110Y-77373715D01*
X86211247Y-77378761D01*
X86211248Y-77378767D01*
X86235304Y-77485508D01*
X86259222Y-77591639D01*
X86343266Y-77798616D01*
X86367154Y-77837598D01*
X86430008Y-77940166D01*
X86459987Y-77989088D01*
X86606250Y-78157938D01*
X86778126Y-78300632D01*
X86971000Y-78413338D01*
X87179692Y-78493030D01*
X87184760Y-78494061D01*
X87184763Y-78494062D01*
X87292017Y-78515883D01*
X87398597Y-78537567D01*
X87403772Y-78537757D01*
X87403774Y-78537757D01*
X87616673Y-78545564D01*
X87616677Y-78545564D01*
X87621837Y-78545753D01*
X87626957Y-78545097D01*
X87626959Y-78545097D01*
X87838288Y-78518025D01*
X87838289Y-78518025D01*
X87843416Y-78517368D01*
X87897650Y-78501097D01*
X88052429Y-78454661D01*
X88052434Y-78454659D01*
X88057384Y-78453174D01*
X88257994Y-78354896D01*
X88439860Y-78225173D01*
X88598096Y-78067489D01*
X88598671Y-78068066D01*
X88654391Y-78031562D01*
X88725385Y-78030939D01*
X88785446Y-78068796D01*
X88805051Y-78098691D01*
X88806133Y-78101000D01*
X88808450Y-78107946D01*
X88901522Y-78258348D01*
X89026697Y-78383305D01*
X89032927Y-78387145D01*
X89032928Y-78387146D01*
X89170090Y-78471694D01*
X89177262Y-78476115D01*
X89231371Y-78494062D01*
X89338611Y-78529632D01*
X89338613Y-78529632D01*
X89345139Y-78531797D01*
X89351975Y-78532497D01*
X89351978Y-78532498D01*
X89395031Y-78536909D01*
X89449600Y-78542500D01*
X90750400Y-78542500D01*
X90753646Y-78542163D01*
X90753650Y-78542163D01*
X90849308Y-78532238D01*
X90849312Y-78532237D01*
X90856166Y-78531526D01*
X90862702Y-78529345D01*
X90862704Y-78529345D01*
X91012919Y-78479229D01*
X91023946Y-78475550D01*
X91174348Y-78382478D01*
X91299305Y-78257303D01*
X91330053Y-78207421D01*
X91388275Y-78112968D01*
X91388276Y-78112966D01*
X91392115Y-78106738D01*
X91432597Y-77984689D01*
X91445632Y-77945389D01*
X91445632Y-77945387D01*
X91447797Y-77938861D01*
X91458500Y-77834400D01*
X91458500Y-77150695D01*
X100653751Y-77150695D01*
X100654048Y-77155848D01*
X100654048Y-77155851D01*
X100662048Y-77294592D01*
X100666610Y-77373715D01*
X100667747Y-77378761D01*
X100667748Y-77378767D01*
X100691804Y-77485508D01*
X100715722Y-77591639D01*
X100799766Y-77798616D01*
X100823654Y-77837598D01*
X100886508Y-77940166D01*
X100916487Y-77989088D01*
X101062750Y-78157938D01*
X101234626Y-78300632D01*
X101427500Y-78413338D01*
X101636192Y-78493030D01*
X101641260Y-78494061D01*
X101641263Y-78494062D01*
X101748517Y-78515883D01*
X101855097Y-78537567D01*
X101860272Y-78537757D01*
X101860274Y-78537757D01*
X102073173Y-78545564D01*
X102073177Y-78545564D01*
X102078337Y-78545753D01*
X102083457Y-78545097D01*
X102083459Y-78545097D01*
X102294788Y-78518025D01*
X102294789Y-78518025D01*
X102299916Y-78517368D01*
X102354150Y-78501097D01*
X102508929Y-78454661D01*
X102508934Y-78454659D01*
X102513884Y-78453174D01*
X102714494Y-78354896D01*
X102896360Y-78225173D01*
X103054596Y-78067489D01*
X103055171Y-78068066D01*
X103110891Y-78031562D01*
X103181885Y-78030939D01*
X103241946Y-78068796D01*
X103261551Y-78098691D01*
X103262633Y-78101000D01*
X103264950Y-78107946D01*
X103358022Y-78258348D01*
X103483197Y-78383305D01*
X103489427Y-78387145D01*
X103489428Y-78387146D01*
X103626590Y-78471694D01*
X103633762Y-78476115D01*
X103687871Y-78494062D01*
X103795111Y-78529632D01*
X103795113Y-78529632D01*
X103801639Y-78531797D01*
X103808475Y-78532497D01*
X103808478Y-78532498D01*
X103851531Y-78536909D01*
X103906100Y-78542500D01*
X105206900Y-78542500D01*
X105210146Y-78542163D01*
X105210150Y-78542163D01*
X105305808Y-78532238D01*
X105305812Y-78532237D01*
X105312666Y-78531526D01*
X105319202Y-78529345D01*
X105319204Y-78529345D01*
X105469419Y-78479229D01*
X105480446Y-78475550D01*
X105630848Y-78382478D01*
X105755805Y-78257303D01*
X105786553Y-78207421D01*
X105844775Y-78112968D01*
X105844776Y-78112966D01*
X105848615Y-78106738D01*
X105889097Y-77984689D01*
X105902132Y-77945389D01*
X105902132Y-77945387D01*
X105904297Y-77938861D01*
X105915000Y-77834400D01*
X105915000Y-77150695D01*
X115110251Y-77150695D01*
X115110548Y-77155848D01*
X115110548Y-77155851D01*
X115118548Y-77294592D01*
X115123110Y-77373715D01*
X115124247Y-77378761D01*
X115124248Y-77378767D01*
X115148304Y-77485508D01*
X115172222Y-77591639D01*
X115256266Y-77798616D01*
X115280154Y-77837598D01*
X115343008Y-77940166D01*
X115372987Y-77989088D01*
X115519250Y-78157938D01*
X115691126Y-78300632D01*
X115884000Y-78413338D01*
X116092692Y-78493030D01*
X116097760Y-78494061D01*
X116097763Y-78494062D01*
X116205017Y-78515883D01*
X116311597Y-78537567D01*
X116316772Y-78537757D01*
X116316774Y-78537757D01*
X116529673Y-78545564D01*
X116529677Y-78545564D01*
X116534837Y-78545753D01*
X116539957Y-78545097D01*
X116539959Y-78545097D01*
X116751288Y-78518025D01*
X116751289Y-78518025D01*
X116756416Y-78517368D01*
X116810650Y-78501097D01*
X116965429Y-78454661D01*
X116965434Y-78454659D01*
X116970384Y-78453174D01*
X117170994Y-78354896D01*
X117352860Y-78225173D01*
X117511096Y-78067489D01*
X117511671Y-78068066D01*
X117567391Y-78031562D01*
X117638385Y-78030939D01*
X117698446Y-78068796D01*
X117718051Y-78098691D01*
X117719133Y-78101000D01*
X117721450Y-78107946D01*
X117814522Y-78258348D01*
X117939697Y-78383305D01*
X117945927Y-78387145D01*
X117945928Y-78387146D01*
X118083090Y-78471694D01*
X118090262Y-78476115D01*
X118144371Y-78494062D01*
X118251611Y-78529632D01*
X118251613Y-78529632D01*
X118258139Y-78531797D01*
X118264975Y-78532497D01*
X118264978Y-78532498D01*
X118308031Y-78536909D01*
X118362600Y-78542500D01*
X119663400Y-78542500D01*
X119666646Y-78542163D01*
X119666650Y-78542163D01*
X119762308Y-78532238D01*
X119762312Y-78532237D01*
X119769166Y-78531526D01*
X119775702Y-78529345D01*
X119775704Y-78529345D01*
X119925919Y-78479229D01*
X119936946Y-78475550D01*
X120087348Y-78382478D01*
X120212305Y-78257303D01*
X120243053Y-78207421D01*
X120301275Y-78112968D01*
X120301276Y-78112966D01*
X120305115Y-78106738D01*
X120345597Y-77984689D01*
X120358632Y-77945389D01*
X120358632Y-77945387D01*
X120360797Y-77938861D01*
X120371500Y-77834400D01*
X120371500Y-77150695D01*
X129566751Y-77150695D01*
X129567048Y-77155848D01*
X129567048Y-77155851D01*
X129575048Y-77294592D01*
X129579610Y-77373715D01*
X129580747Y-77378761D01*
X129580748Y-77378767D01*
X129604804Y-77485508D01*
X129628722Y-77591639D01*
X129712766Y-77798616D01*
X129736654Y-77837598D01*
X129799508Y-77940166D01*
X129829487Y-77989088D01*
X129975750Y-78157938D01*
X130147626Y-78300632D01*
X130340500Y-78413338D01*
X130549192Y-78493030D01*
X130554260Y-78494061D01*
X130554263Y-78494062D01*
X130661517Y-78515883D01*
X130768097Y-78537567D01*
X130773272Y-78537757D01*
X130773274Y-78537757D01*
X130986173Y-78545564D01*
X130986177Y-78545564D01*
X130991337Y-78545753D01*
X130996457Y-78545097D01*
X130996459Y-78545097D01*
X131207788Y-78518025D01*
X131207789Y-78518025D01*
X131212916Y-78517368D01*
X131267150Y-78501097D01*
X131421929Y-78454661D01*
X131421934Y-78454659D01*
X131426884Y-78453174D01*
X131627494Y-78354896D01*
X131809360Y-78225173D01*
X131967596Y-78067489D01*
X131968171Y-78068066D01*
X132023891Y-78031562D01*
X132094885Y-78030939D01*
X132154946Y-78068796D01*
X132174551Y-78098691D01*
X132175633Y-78101000D01*
X132177950Y-78107946D01*
X132271022Y-78258348D01*
X132396197Y-78383305D01*
X132402427Y-78387145D01*
X132402428Y-78387146D01*
X132539590Y-78471694D01*
X132546762Y-78476115D01*
X132600871Y-78494062D01*
X132708111Y-78529632D01*
X132708113Y-78529632D01*
X132714639Y-78531797D01*
X132721475Y-78532497D01*
X132721478Y-78532498D01*
X132764531Y-78536909D01*
X132819100Y-78542500D01*
X134119900Y-78542500D01*
X134123146Y-78542163D01*
X134123150Y-78542163D01*
X134218808Y-78532238D01*
X134218812Y-78532237D01*
X134225666Y-78531526D01*
X134232202Y-78529345D01*
X134232204Y-78529345D01*
X134382419Y-78479229D01*
X134393446Y-78475550D01*
X134543848Y-78382478D01*
X134668805Y-78257303D01*
X134699553Y-78207421D01*
X134757775Y-78112968D01*
X134757776Y-78112966D01*
X134761615Y-78106738D01*
X134802097Y-77984689D01*
X134815132Y-77945389D01*
X134815132Y-77945387D01*
X134817297Y-77938861D01*
X134828000Y-77834400D01*
X134828000Y-77150695D01*
X144023251Y-77150695D01*
X144023548Y-77155848D01*
X144023548Y-77155851D01*
X144031548Y-77294592D01*
X144036110Y-77373715D01*
X144037247Y-77378761D01*
X144037248Y-77378767D01*
X144061304Y-77485508D01*
X144085222Y-77591639D01*
X144169266Y-77798616D01*
X144193154Y-77837598D01*
X144256008Y-77940166D01*
X144285987Y-77989088D01*
X144432250Y-78157938D01*
X144604126Y-78300632D01*
X144797000Y-78413338D01*
X145005692Y-78493030D01*
X145010760Y-78494061D01*
X145010763Y-78494062D01*
X145118017Y-78515883D01*
X145224597Y-78537567D01*
X145229772Y-78537757D01*
X145229774Y-78537757D01*
X145442673Y-78545564D01*
X145442677Y-78545564D01*
X145447837Y-78545753D01*
X145452957Y-78545097D01*
X145452959Y-78545097D01*
X145664288Y-78518025D01*
X145664289Y-78518025D01*
X145669416Y-78517368D01*
X145723650Y-78501097D01*
X145878429Y-78454661D01*
X145878434Y-78454659D01*
X145883384Y-78453174D01*
X146083994Y-78354896D01*
X146265860Y-78225173D01*
X146424096Y-78067489D01*
X146424671Y-78068066D01*
X146480391Y-78031562D01*
X146551385Y-78030939D01*
X146611446Y-78068796D01*
X146631051Y-78098691D01*
X146632133Y-78101000D01*
X146634450Y-78107946D01*
X146727522Y-78258348D01*
X146852697Y-78383305D01*
X146858927Y-78387145D01*
X146858928Y-78387146D01*
X146996090Y-78471694D01*
X147003262Y-78476115D01*
X147057371Y-78494062D01*
X147164611Y-78529632D01*
X147164613Y-78529632D01*
X147171139Y-78531797D01*
X147177975Y-78532497D01*
X147177978Y-78532498D01*
X147221031Y-78536909D01*
X147275600Y-78542500D01*
X148576400Y-78542500D01*
X148579646Y-78542163D01*
X148579650Y-78542163D01*
X148675308Y-78532238D01*
X148675312Y-78532237D01*
X148682166Y-78531526D01*
X148688702Y-78529345D01*
X148688704Y-78529345D01*
X148838919Y-78479229D01*
X148849946Y-78475550D01*
X149000348Y-78382478D01*
X149125305Y-78257303D01*
X149156053Y-78207421D01*
X149214275Y-78112968D01*
X149214276Y-78112966D01*
X149218115Y-78106738D01*
X149258597Y-77984689D01*
X149271632Y-77945389D01*
X149271632Y-77945387D01*
X149273797Y-77938861D01*
X149284500Y-77834400D01*
X149284500Y-77150695D01*
X158479751Y-77150695D01*
X158480048Y-77155848D01*
X158480048Y-77155851D01*
X158488048Y-77294592D01*
X158492610Y-77373715D01*
X158493747Y-77378761D01*
X158493748Y-77378767D01*
X158517804Y-77485508D01*
X158541722Y-77591639D01*
X158625766Y-77798616D01*
X158649654Y-77837598D01*
X158712508Y-77940166D01*
X158742487Y-77989088D01*
X158888750Y-78157938D01*
X159060626Y-78300632D01*
X159253500Y-78413338D01*
X159462192Y-78493030D01*
X159467260Y-78494061D01*
X159467263Y-78494062D01*
X159574517Y-78515883D01*
X159681097Y-78537567D01*
X159686272Y-78537757D01*
X159686274Y-78537757D01*
X159899173Y-78545564D01*
X159899177Y-78545564D01*
X159904337Y-78545753D01*
X159909457Y-78545097D01*
X159909459Y-78545097D01*
X160120788Y-78518025D01*
X160120789Y-78518025D01*
X160125916Y-78517368D01*
X160180150Y-78501097D01*
X160334929Y-78454661D01*
X160334934Y-78454659D01*
X160339884Y-78453174D01*
X160540494Y-78354896D01*
X160722360Y-78225173D01*
X160880596Y-78067489D01*
X160881171Y-78068066D01*
X160936891Y-78031562D01*
X161007885Y-78030939D01*
X161067946Y-78068796D01*
X161087551Y-78098691D01*
X161088633Y-78101000D01*
X161090950Y-78107946D01*
X161184022Y-78258348D01*
X161309197Y-78383305D01*
X161315427Y-78387145D01*
X161315428Y-78387146D01*
X161452590Y-78471694D01*
X161459762Y-78476115D01*
X161513871Y-78494062D01*
X161621111Y-78529632D01*
X161621113Y-78529632D01*
X161627639Y-78531797D01*
X161634475Y-78532497D01*
X161634478Y-78532498D01*
X161677531Y-78536909D01*
X161732100Y-78542500D01*
X163032900Y-78542500D01*
X163036146Y-78542163D01*
X163036150Y-78542163D01*
X163131808Y-78532238D01*
X163131812Y-78532237D01*
X163138666Y-78531526D01*
X163145202Y-78529345D01*
X163145204Y-78529345D01*
X163295419Y-78479229D01*
X163306446Y-78475550D01*
X163456848Y-78382478D01*
X163581805Y-78257303D01*
X163612553Y-78207421D01*
X163670775Y-78112968D01*
X163670776Y-78112966D01*
X163674615Y-78106738D01*
X163682776Y-78082134D01*
X165696500Y-78082134D01*
X165703255Y-78144316D01*
X165754385Y-78280705D01*
X165841739Y-78397261D01*
X165958295Y-78484615D01*
X166094684Y-78535745D01*
X166156866Y-78542500D01*
X167953134Y-78542500D01*
X168015316Y-78535745D01*
X168151705Y-78484615D01*
X168268261Y-78397261D01*
X168355615Y-78280705D01*
X168406745Y-78144316D01*
X168413500Y-78082134D01*
X168413500Y-76285866D01*
X168406745Y-76223684D01*
X168355615Y-76087295D01*
X168268261Y-75970739D01*
X168151705Y-75883385D01*
X168015316Y-75832255D01*
X167953134Y-75825500D01*
X166156866Y-75825500D01*
X166094684Y-75832255D01*
X165958295Y-75883385D01*
X165841739Y-75970739D01*
X165754385Y-76087295D01*
X165703255Y-76223684D01*
X165696500Y-76285866D01*
X165696500Y-78082134D01*
X163682776Y-78082134D01*
X163715097Y-77984689D01*
X163728132Y-77945389D01*
X163728132Y-77945387D01*
X163730297Y-77938861D01*
X163741000Y-77834400D01*
X163741000Y-76533600D01*
X163730026Y-76427834D01*
X163696098Y-76326138D01*
X163676368Y-76267002D01*
X163674050Y-76260054D01*
X163580978Y-76109652D01*
X163455803Y-75984695D01*
X163449572Y-75980854D01*
X163311468Y-75895725D01*
X163311466Y-75895724D01*
X163305238Y-75891885D01*
X163144754Y-75838655D01*
X163143889Y-75838368D01*
X163143887Y-75838368D01*
X163137361Y-75836203D01*
X163130525Y-75835503D01*
X163130522Y-75835502D01*
X163087469Y-75831091D01*
X163032900Y-75825500D01*
X161732100Y-75825500D01*
X161728854Y-75825837D01*
X161728850Y-75825837D01*
X161633192Y-75835762D01*
X161633188Y-75835763D01*
X161626334Y-75836474D01*
X161619798Y-75838655D01*
X161619796Y-75838655D01*
X161557131Y-75859562D01*
X161458554Y-75892450D01*
X161308152Y-75985522D01*
X161302979Y-75990704D01*
X161245186Y-76048598D01*
X161183195Y-76110697D01*
X161179355Y-76116927D01*
X161179354Y-76116928D01*
X161108706Y-76231540D01*
X161090385Y-76261262D01*
X161088079Y-76268213D01*
X161086061Y-76272542D01*
X161039144Y-76325828D01*
X160970867Y-76345290D01*
X160902907Y-76324749D01*
X160878672Y-76304094D01*
X160775652Y-76190876D01*
X160775642Y-76190867D01*
X160772170Y-76187051D01*
X160768119Y-76183852D01*
X160768115Y-76183848D01*
X160600914Y-76051800D01*
X160600910Y-76051798D01*
X160596859Y-76048598D01*
X160401289Y-75940638D01*
X160396420Y-75938914D01*
X160396416Y-75938912D01*
X160195587Y-75867795D01*
X160195583Y-75867794D01*
X160190712Y-75866069D01*
X160185619Y-75865162D01*
X160185616Y-75865161D01*
X159975873Y-75827800D01*
X159975867Y-75827799D01*
X159970784Y-75826894D01*
X159896952Y-75825992D01*
X159752581Y-75824228D01*
X159752579Y-75824228D01*
X159747411Y-75824165D01*
X159526591Y-75857955D01*
X159314256Y-75927357D01*
X159283943Y-75943137D01*
X159194178Y-75989866D01*
X159116107Y-76030507D01*
X159111974Y-76033610D01*
X159111971Y-76033612D01*
X158941600Y-76161530D01*
X158937465Y-76164635D01*
X158783129Y-76326138D01*
X158657243Y-76510680D01*
X158563188Y-76713305D01*
X158503489Y-76928570D01*
X158479751Y-77150695D01*
X149284500Y-77150695D01*
X149284500Y-76533600D01*
X149273526Y-76427834D01*
X149239598Y-76326138D01*
X149219868Y-76267002D01*
X149217550Y-76260054D01*
X149124478Y-76109652D01*
X148999303Y-75984695D01*
X148993072Y-75980854D01*
X148854968Y-75895725D01*
X148854966Y-75895724D01*
X148848738Y-75891885D01*
X148688254Y-75838655D01*
X148687389Y-75838368D01*
X148687387Y-75838368D01*
X148680861Y-75836203D01*
X148674025Y-75835503D01*
X148674022Y-75835502D01*
X148630969Y-75831091D01*
X148576400Y-75825500D01*
X147275600Y-75825500D01*
X147272354Y-75825837D01*
X147272350Y-75825837D01*
X147176692Y-75835762D01*
X147176688Y-75835763D01*
X147169834Y-75836474D01*
X147163298Y-75838655D01*
X147163296Y-75838655D01*
X147100631Y-75859562D01*
X147002054Y-75892450D01*
X146851652Y-75985522D01*
X146846479Y-75990704D01*
X146788686Y-76048598D01*
X146726695Y-76110697D01*
X146722855Y-76116927D01*
X146722854Y-76116928D01*
X146652206Y-76231540D01*
X146633885Y-76261262D01*
X146631579Y-76268213D01*
X146629561Y-76272542D01*
X146582644Y-76325828D01*
X146514367Y-76345290D01*
X146446407Y-76324749D01*
X146422172Y-76304094D01*
X146319152Y-76190876D01*
X146319142Y-76190867D01*
X146315670Y-76187051D01*
X146311619Y-76183852D01*
X146311615Y-76183848D01*
X146144414Y-76051800D01*
X146144410Y-76051798D01*
X146140359Y-76048598D01*
X145944789Y-75940638D01*
X145939920Y-75938914D01*
X145939916Y-75938912D01*
X145739087Y-75867795D01*
X145739083Y-75867794D01*
X145734212Y-75866069D01*
X145729119Y-75865162D01*
X145729116Y-75865161D01*
X145519373Y-75827800D01*
X145519367Y-75827799D01*
X145514284Y-75826894D01*
X145440452Y-75825992D01*
X145296081Y-75824228D01*
X145296079Y-75824228D01*
X145290911Y-75824165D01*
X145070091Y-75857955D01*
X144857756Y-75927357D01*
X144827443Y-75943137D01*
X144737678Y-75989866D01*
X144659607Y-76030507D01*
X144655474Y-76033610D01*
X144655471Y-76033612D01*
X144485100Y-76161530D01*
X144480965Y-76164635D01*
X144326629Y-76326138D01*
X144200743Y-76510680D01*
X144106688Y-76713305D01*
X144046989Y-76928570D01*
X144023251Y-77150695D01*
X134828000Y-77150695D01*
X134828000Y-76533600D01*
X134817026Y-76427834D01*
X134783098Y-76326138D01*
X134763368Y-76267002D01*
X134761050Y-76260054D01*
X134667978Y-76109652D01*
X134542803Y-75984695D01*
X134536572Y-75980854D01*
X134398468Y-75895725D01*
X134398466Y-75895724D01*
X134392238Y-75891885D01*
X134231754Y-75838655D01*
X134230889Y-75838368D01*
X134230887Y-75838368D01*
X134224361Y-75836203D01*
X134217525Y-75835503D01*
X134217522Y-75835502D01*
X134174469Y-75831091D01*
X134119900Y-75825500D01*
X132819100Y-75825500D01*
X132815854Y-75825837D01*
X132815850Y-75825837D01*
X132720192Y-75835762D01*
X132720188Y-75835763D01*
X132713334Y-75836474D01*
X132706798Y-75838655D01*
X132706796Y-75838655D01*
X132644131Y-75859562D01*
X132545554Y-75892450D01*
X132395152Y-75985522D01*
X132389979Y-75990704D01*
X132332186Y-76048598D01*
X132270195Y-76110697D01*
X132266355Y-76116927D01*
X132266354Y-76116928D01*
X132195706Y-76231540D01*
X132177385Y-76261262D01*
X132175079Y-76268213D01*
X132173061Y-76272542D01*
X132126144Y-76325828D01*
X132057867Y-76345290D01*
X131989907Y-76324749D01*
X131965672Y-76304094D01*
X131862652Y-76190876D01*
X131862642Y-76190867D01*
X131859170Y-76187051D01*
X131855119Y-76183852D01*
X131855115Y-76183848D01*
X131687914Y-76051800D01*
X131687910Y-76051798D01*
X131683859Y-76048598D01*
X131488289Y-75940638D01*
X131483420Y-75938914D01*
X131483416Y-75938912D01*
X131282587Y-75867795D01*
X131282583Y-75867794D01*
X131277712Y-75866069D01*
X131272619Y-75865162D01*
X131272616Y-75865161D01*
X131062873Y-75827800D01*
X131062867Y-75827799D01*
X131057784Y-75826894D01*
X130983952Y-75825992D01*
X130839581Y-75824228D01*
X130839579Y-75824228D01*
X130834411Y-75824165D01*
X130613591Y-75857955D01*
X130401256Y-75927357D01*
X130370943Y-75943137D01*
X130281178Y-75989866D01*
X130203107Y-76030507D01*
X130198974Y-76033610D01*
X130198971Y-76033612D01*
X130028600Y-76161530D01*
X130024465Y-76164635D01*
X129870129Y-76326138D01*
X129744243Y-76510680D01*
X129650188Y-76713305D01*
X129590489Y-76928570D01*
X129566751Y-77150695D01*
X120371500Y-77150695D01*
X120371500Y-76533600D01*
X120360526Y-76427834D01*
X120326598Y-76326138D01*
X120306868Y-76267002D01*
X120304550Y-76260054D01*
X120211478Y-76109652D01*
X120086303Y-75984695D01*
X120080072Y-75980854D01*
X119941968Y-75895725D01*
X119941966Y-75895724D01*
X119935738Y-75891885D01*
X119775254Y-75838655D01*
X119774389Y-75838368D01*
X119774387Y-75838368D01*
X119767861Y-75836203D01*
X119761025Y-75835503D01*
X119761022Y-75835502D01*
X119717969Y-75831091D01*
X119663400Y-75825500D01*
X118362600Y-75825500D01*
X118359354Y-75825837D01*
X118359350Y-75825837D01*
X118263692Y-75835762D01*
X118263688Y-75835763D01*
X118256834Y-75836474D01*
X118250298Y-75838655D01*
X118250296Y-75838655D01*
X118187631Y-75859562D01*
X118089054Y-75892450D01*
X117938652Y-75985522D01*
X117933479Y-75990704D01*
X117875686Y-76048598D01*
X117813695Y-76110697D01*
X117809855Y-76116927D01*
X117809854Y-76116928D01*
X117739206Y-76231540D01*
X117720885Y-76261262D01*
X117718579Y-76268213D01*
X117716561Y-76272542D01*
X117669644Y-76325828D01*
X117601367Y-76345290D01*
X117533407Y-76324749D01*
X117509172Y-76304094D01*
X117406152Y-76190876D01*
X117406142Y-76190867D01*
X117402670Y-76187051D01*
X117398619Y-76183852D01*
X117398615Y-76183848D01*
X117231414Y-76051800D01*
X117231410Y-76051798D01*
X117227359Y-76048598D01*
X117031789Y-75940638D01*
X117026920Y-75938914D01*
X117026916Y-75938912D01*
X116826087Y-75867795D01*
X116826083Y-75867794D01*
X116821212Y-75866069D01*
X116816119Y-75865162D01*
X116816116Y-75865161D01*
X116606373Y-75827800D01*
X116606367Y-75827799D01*
X116601284Y-75826894D01*
X116527452Y-75825992D01*
X116383081Y-75824228D01*
X116383079Y-75824228D01*
X116377911Y-75824165D01*
X116157091Y-75857955D01*
X115944756Y-75927357D01*
X115914443Y-75943137D01*
X115824678Y-75989866D01*
X115746607Y-76030507D01*
X115742474Y-76033610D01*
X115742471Y-76033612D01*
X115572100Y-76161530D01*
X115567965Y-76164635D01*
X115413629Y-76326138D01*
X115287743Y-76510680D01*
X115193688Y-76713305D01*
X115133989Y-76928570D01*
X115110251Y-77150695D01*
X105915000Y-77150695D01*
X105915000Y-76533600D01*
X105904026Y-76427834D01*
X105870098Y-76326138D01*
X105850368Y-76267002D01*
X105848050Y-76260054D01*
X105754978Y-76109652D01*
X105629803Y-75984695D01*
X105623572Y-75980854D01*
X105485468Y-75895725D01*
X105485466Y-75895724D01*
X105479238Y-75891885D01*
X105318754Y-75838655D01*
X105317889Y-75838368D01*
X105317887Y-75838368D01*
X105311361Y-75836203D01*
X105304525Y-75835503D01*
X105304522Y-75835502D01*
X105261469Y-75831091D01*
X105206900Y-75825500D01*
X103906100Y-75825500D01*
X103902854Y-75825837D01*
X103902850Y-75825837D01*
X103807192Y-75835762D01*
X103807188Y-75835763D01*
X103800334Y-75836474D01*
X103793798Y-75838655D01*
X103793796Y-75838655D01*
X103731131Y-75859562D01*
X103632554Y-75892450D01*
X103482152Y-75985522D01*
X103476979Y-75990704D01*
X103419186Y-76048598D01*
X103357195Y-76110697D01*
X103353355Y-76116927D01*
X103353354Y-76116928D01*
X103282706Y-76231540D01*
X103264385Y-76261262D01*
X103262079Y-76268213D01*
X103260061Y-76272542D01*
X103213144Y-76325828D01*
X103144867Y-76345290D01*
X103076907Y-76324749D01*
X103052672Y-76304094D01*
X102949652Y-76190876D01*
X102949642Y-76190867D01*
X102946170Y-76187051D01*
X102942119Y-76183852D01*
X102942115Y-76183848D01*
X102774914Y-76051800D01*
X102774910Y-76051798D01*
X102770859Y-76048598D01*
X102575289Y-75940638D01*
X102570420Y-75938914D01*
X102570416Y-75938912D01*
X102369587Y-75867795D01*
X102369583Y-75867794D01*
X102364712Y-75866069D01*
X102359619Y-75865162D01*
X102359616Y-75865161D01*
X102149873Y-75827800D01*
X102149867Y-75827799D01*
X102144784Y-75826894D01*
X102070952Y-75825992D01*
X101926581Y-75824228D01*
X101926579Y-75824228D01*
X101921411Y-75824165D01*
X101700591Y-75857955D01*
X101488256Y-75927357D01*
X101457943Y-75943137D01*
X101368178Y-75989866D01*
X101290107Y-76030507D01*
X101285974Y-76033610D01*
X101285971Y-76033612D01*
X101115600Y-76161530D01*
X101111465Y-76164635D01*
X100957129Y-76326138D01*
X100831243Y-76510680D01*
X100737188Y-76713305D01*
X100677489Y-76928570D01*
X100653751Y-77150695D01*
X91458500Y-77150695D01*
X91458500Y-76533600D01*
X91447526Y-76427834D01*
X91413598Y-76326138D01*
X91393868Y-76267002D01*
X91391550Y-76260054D01*
X91298478Y-76109652D01*
X91173303Y-75984695D01*
X91167072Y-75980854D01*
X91028968Y-75895725D01*
X91028966Y-75895724D01*
X91022738Y-75891885D01*
X90862254Y-75838655D01*
X90861389Y-75838368D01*
X90861387Y-75838368D01*
X90854861Y-75836203D01*
X90848025Y-75835503D01*
X90848022Y-75835502D01*
X90804969Y-75831091D01*
X90750400Y-75825500D01*
X89449600Y-75825500D01*
X89446354Y-75825837D01*
X89446350Y-75825837D01*
X89350692Y-75835762D01*
X89350688Y-75835763D01*
X89343834Y-75836474D01*
X89337298Y-75838655D01*
X89337296Y-75838655D01*
X89274631Y-75859562D01*
X89176054Y-75892450D01*
X89025652Y-75985522D01*
X89020479Y-75990704D01*
X88962686Y-76048598D01*
X88900695Y-76110697D01*
X88896855Y-76116927D01*
X88896854Y-76116928D01*
X88826206Y-76231540D01*
X88807885Y-76261262D01*
X88805579Y-76268213D01*
X88803561Y-76272542D01*
X88756644Y-76325828D01*
X88688367Y-76345290D01*
X88620407Y-76324749D01*
X88596172Y-76304094D01*
X88493152Y-76190876D01*
X88493142Y-76190867D01*
X88489670Y-76187051D01*
X88485619Y-76183852D01*
X88485615Y-76183848D01*
X88318414Y-76051800D01*
X88318410Y-76051798D01*
X88314359Y-76048598D01*
X88118789Y-75940638D01*
X88113920Y-75938914D01*
X88113916Y-75938912D01*
X87913087Y-75867795D01*
X87913083Y-75867794D01*
X87908212Y-75866069D01*
X87903119Y-75865162D01*
X87903116Y-75865161D01*
X87693373Y-75827800D01*
X87693367Y-75827799D01*
X87688284Y-75826894D01*
X87614452Y-75825992D01*
X87470081Y-75824228D01*
X87470079Y-75824228D01*
X87464911Y-75824165D01*
X87244091Y-75857955D01*
X87031756Y-75927357D01*
X87001443Y-75943137D01*
X86911678Y-75989866D01*
X86833607Y-76030507D01*
X86829474Y-76033610D01*
X86829471Y-76033612D01*
X86659100Y-76161530D01*
X86654965Y-76164635D01*
X86500629Y-76326138D01*
X86374743Y-76510680D01*
X86280688Y-76713305D01*
X86220989Y-76928570D01*
X86197251Y-77150695D01*
X83888500Y-77150695D01*
X83888500Y-68555417D01*
X83890051Y-68535707D01*
X83891220Y-68528327D01*
X83891220Y-68528326D01*
X83892252Y-68521810D01*
X83888673Y-68453520D01*
X83888500Y-68446926D01*
X83888500Y-68426390D01*
X83886462Y-68406999D01*
X83886353Y-68405958D01*
X83885836Y-68399384D01*
X83882603Y-68337696D01*
X83882603Y-68337694D01*
X83882257Y-68331097D01*
X83878615Y-68317504D01*
X83875014Y-68298075D01*
X83874232Y-68290639D01*
X83873542Y-68284072D01*
X83852407Y-68219025D01*
X83850535Y-68212706D01*
X83834538Y-68153003D01*
X83834537Y-68153000D01*
X83832830Y-68146630D01*
X83826438Y-68134085D01*
X83818874Y-68115823D01*
X83816568Y-68108726D01*
X83814527Y-68102444D01*
X83811224Y-68096723D01*
X83780336Y-68043223D01*
X83777188Y-68037426D01*
X83749126Y-67982351D01*
X83749124Y-67982348D01*
X83746129Y-67976470D01*
X83737273Y-67965533D01*
X83726073Y-67949237D01*
X83722343Y-67942776D01*
X83722340Y-67942772D01*
X83719040Y-67937056D01*
X83714623Y-67932150D01*
X83714619Y-67932145D01*
X83673278Y-67886231D01*
X83668994Y-67881216D01*
X83658148Y-67867823D01*
X83656072Y-67865259D01*
X83641557Y-67850744D01*
X83637016Y-67845959D01*
X83617864Y-67824689D01*
X83591253Y-67795134D01*
X83579865Y-67786860D01*
X83564832Y-67774019D01*
X82929474Y-67138661D01*
X82895448Y-67076349D01*
X82892607Y-67046491D01*
X82893074Y-67027368D01*
X82893074Y-67027363D01*
X82893156Y-67024000D01*
X82890418Y-66990695D01*
X86197251Y-66990695D01*
X86197548Y-66995848D01*
X86197548Y-66995851D01*
X86203011Y-67090590D01*
X86210110Y-67213715D01*
X86211247Y-67218761D01*
X86211248Y-67218767D01*
X86231119Y-67306939D01*
X86259222Y-67431639D01*
X86343266Y-67638616D01*
X86394019Y-67721438D01*
X86457291Y-67824688D01*
X86459987Y-67829088D01*
X86606250Y-67997938D01*
X86682846Y-68061529D01*
X86770255Y-68134097D01*
X86778126Y-68140632D01*
X86971000Y-68253338D01*
X87179692Y-68333030D01*
X87184760Y-68334061D01*
X87184763Y-68334062D01*
X87292017Y-68355883D01*
X87398597Y-68377567D01*
X87403772Y-68377757D01*
X87403774Y-68377757D01*
X87616673Y-68385564D01*
X87616677Y-68385564D01*
X87621837Y-68385753D01*
X87626957Y-68385097D01*
X87626959Y-68385097D01*
X87838288Y-68358025D01*
X87838289Y-68358025D01*
X87843416Y-68357368D01*
X87908986Y-68337696D01*
X88052429Y-68294661D01*
X88052434Y-68294659D01*
X88057384Y-68293174D01*
X88257994Y-68194896D01*
X88439860Y-68065173D01*
X88598096Y-67907489D01*
X88657594Y-67824689D01*
X88728453Y-67726077D01*
X88729776Y-67727028D01*
X88776645Y-67683857D01*
X88846580Y-67671625D01*
X88912026Y-67699144D01*
X88939875Y-67730994D01*
X88999987Y-67829088D01*
X89146250Y-67997938D01*
X89222846Y-68061529D01*
X89310255Y-68134097D01*
X89318126Y-68140632D01*
X89511000Y-68253338D01*
X89719692Y-68333030D01*
X89724760Y-68334061D01*
X89724763Y-68334062D01*
X89832017Y-68355883D01*
X89938597Y-68377567D01*
X89943772Y-68377757D01*
X89943774Y-68377757D01*
X90156673Y-68385564D01*
X90156677Y-68385564D01*
X90161837Y-68385753D01*
X90166957Y-68385097D01*
X90166959Y-68385097D01*
X90378288Y-68358025D01*
X90378289Y-68358025D01*
X90383416Y-68357368D01*
X90448986Y-68337696D01*
X90592429Y-68294661D01*
X90592434Y-68294659D01*
X90597384Y-68293174D01*
X90797994Y-68194896D01*
X90979860Y-68065173D01*
X91138096Y-67907489D01*
X91197594Y-67824689D01*
X91265435Y-67730277D01*
X91268453Y-67726077D01*
X91289320Y-67683857D01*
X91365136Y-67530453D01*
X91365137Y-67530451D01*
X91367430Y-67525811D01*
X91432370Y-67312069D01*
X91461529Y-67090590D01*
X91461877Y-67076349D01*
X91463074Y-67027365D01*
X91463074Y-67027361D01*
X91463156Y-67024000D01*
X91460418Y-66990695D01*
X100653751Y-66990695D01*
X100654048Y-66995848D01*
X100654048Y-66995851D01*
X100659511Y-67090590D01*
X100666610Y-67213715D01*
X100667747Y-67218761D01*
X100667748Y-67218767D01*
X100687619Y-67306939D01*
X100715722Y-67431639D01*
X100799766Y-67638616D01*
X100850519Y-67721438D01*
X100913791Y-67824688D01*
X100916487Y-67829088D01*
X101062750Y-67997938D01*
X101139346Y-68061529D01*
X101226755Y-68134097D01*
X101234626Y-68140632D01*
X101427500Y-68253338D01*
X101636192Y-68333030D01*
X101641260Y-68334061D01*
X101641263Y-68334062D01*
X101748517Y-68355883D01*
X101855097Y-68377567D01*
X101860272Y-68377757D01*
X101860274Y-68377757D01*
X102073173Y-68385564D01*
X102073177Y-68385564D01*
X102078337Y-68385753D01*
X102083457Y-68385097D01*
X102083459Y-68385097D01*
X102294788Y-68358025D01*
X102294789Y-68358025D01*
X102299916Y-68357368D01*
X102365486Y-68337696D01*
X102508929Y-68294661D01*
X102508934Y-68294659D01*
X102513884Y-68293174D01*
X102714494Y-68194896D01*
X102896360Y-68065173D01*
X103054596Y-67907489D01*
X103114094Y-67824689D01*
X103184953Y-67726077D01*
X103186276Y-67727028D01*
X103233145Y-67683857D01*
X103303080Y-67671625D01*
X103368526Y-67699144D01*
X103396375Y-67730994D01*
X103456487Y-67829088D01*
X103602750Y-67997938D01*
X103679346Y-68061529D01*
X103766755Y-68134097D01*
X103774626Y-68140632D01*
X103967500Y-68253338D01*
X104176192Y-68333030D01*
X104181260Y-68334061D01*
X104181263Y-68334062D01*
X104288517Y-68355883D01*
X104395097Y-68377567D01*
X104400272Y-68377757D01*
X104400274Y-68377757D01*
X104613173Y-68385564D01*
X104613177Y-68385564D01*
X104618337Y-68385753D01*
X104623457Y-68385097D01*
X104623459Y-68385097D01*
X104834788Y-68358025D01*
X104834789Y-68358025D01*
X104839916Y-68357368D01*
X104905486Y-68337696D01*
X105048929Y-68294661D01*
X105048934Y-68294659D01*
X105053884Y-68293174D01*
X105254494Y-68194896D01*
X105436360Y-68065173D01*
X105594596Y-67907489D01*
X105654094Y-67824689D01*
X105721935Y-67730277D01*
X105724953Y-67726077D01*
X105745820Y-67683857D01*
X105821636Y-67530453D01*
X105821637Y-67530451D01*
X105823930Y-67525811D01*
X105888870Y-67312069D01*
X105918029Y-67090590D01*
X105918377Y-67076349D01*
X105919574Y-67027365D01*
X105919574Y-67027361D01*
X105919656Y-67024000D01*
X105916918Y-66990695D01*
X115110251Y-66990695D01*
X115110548Y-66995848D01*
X115110548Y-66995851D01*
X115116011Y-67090590D01*
X115123110Y-67213715D01*
X115124247Y-67218761D01*
X115124248Y-67218767D01*
X115144119Y-67306939D01*
X115172222Y-67431639D01*
X115256266Y-67638616D01*
X115307019Y-67721438D01*
X115370291Y-67824688D01*
X115372987Y-67829088D01*
X115519250Y-67997938D01*
X115595846Y-68061529D01*
X115683255Y-68134097D01*
X115691126Y-68140632D01*
X115884000Y-68253338D01*
X116092692Y-68333030D01*
X116097760Y-68334061D01*
X116097763Y-68334062D01*
X116205017Y-68355883D01*
X116311597Y-68377567D01*
X116316772Y-68377757D01*
X116316774Y-68377757D01*
X116529673Y-68385564D01*
X116529677Y-68385564D01*
X116534837Y-68385753D01*
X116539957Y-68385097D01*
X116539959Y-68385097D01*
X116751288Y-68358025D01*
X116751289Y-68358025D01*
X116756416Y-68357368D01*
X116821986Y-68337696D01*
X116965429Y-68294661D01*
X116965434Y-68294659D01*
X116970384Y-68293174D01*
X117170994Y-68194896D01*
X117352860Y-68065173D01*
X117511096Y-67907489D01*
X117570594Y-67824689D01*
X117641453Y-67726077D01*
X117642776Y-67727028D01*
X117689645Y-67683857D01*
X117759580Y-67671625D01*
X117825026Y-67699144D01*
X117852875Y-67730994D01*
X117912987Y-67829088D01*
X118059250Y-67997938D01*
X118135846Y-68061529D01*
X118223255Y-68134097D01*
X118231126Y-68140632D01*
X118424000Y-68253338D01*
X118632692Y-68333030D01*
X118637760Y-68334061D01*
X118637763Y-68334062D01*
X118745017Y-68355883D01*
X118851597Y-68377567D01*
X118856772Y-68377757D01*
X118856774Y-68377757D01*
X119069673Y-68385564D01*
X119069677Y-68385564D01*
X119074837Y-68385753D01*
X119079957Y-68385097D01*
X119079959Y-68385097D01*
X119291288Y-68358025D01*
X119291289Y-68358025D01*
X119296416Y-68357368D01*
X119361986Y-68337696D01*
X119505429Y-68294661D01*
X119505434Y-68294659D01*
X119510384Y-68293174D01*
X119710994Y-68194896D01*
X119892860Y-68065173D01*
X120051096Y-67907489D01*
X120110594Y-67824689D01*
X120178435Y-67730277D01*
X120181453Y-67726077D01*
X120202320Y-67683857D01*
X120278136Y-67530453D01*
X120278137Y-67530451D01*
X120280430Y-67525811D01*
X120345370Y-67312069D01*
X120374529Y-67090590D01*
X120374877Y-67076349D01*
X120376074Y-67027365D01*
X120376074Y-67027361D01*
X120376156Y-67024000D01*
X120373418Y-66990695D01*
X129566751Y-66990695D01*
X129567048Y-66995848D01*
X129567048Y-66995851D01*
X129572511Y-67090590D01*
X129579610Y-67213715D01*
X129580747Y-67218761D01*
X129580748Y-67218767D01*
X129600619Y-67306939D01*
X129628722Y-67431639D01*
X129712766Y-67638616D01*
X129763519Y-67721438D01*
X129826791Y-67824688D01*
X129829487Y-67829088D01*
X129975750Y-67997938D01*
X130052346Y-68061529D01*
X130139755Y-68134097D01*
X130147626Y-68140632D01*
X130340500Y-68253338D01*
X130549192Y-68333030D01*
X130554260Y-68334061D01*
X130554263Y-68334062D01*
X130661517Y-68355883D01*
X130768097Y-68377567D01*
X130773272Y-68377757D01*
X130773274Y-68377757D01*
X130986173Y-68385564D01*
X130986177Y-68385564D01*
X130991337Y-68385753D01*
X130996457Y-68385097D01*
X130996459Y-68385097D01*
X131207788Y-68358025D01*
X131207789Y-68358025D01*
X131212916Y-68357368D01*
X131278486Y-68337696D01*
X131421929Y-68294661D01*
X131421934Y-68294659D01*
X131426884Y-68293174D01*
X131627494Y-68194896D01*
X131809360Y-68065173D01*
X131967596Y-67907489D01*
X132027094Y-67824689D01*
X132097953Y-67726077D01*
X132099276Y-67727028D01*
X132146145Y-67683857D01*
X132216080Y-67671625D01*
X132281526Y-67699144D01*
X132309375Y-67730994D01*
X132369487Y-67829088D01*
X132515750Y-67997938D01*
X132592346Y-68061529D01*
X132679755Y-68134097D01*
X132687626Y-68140632D01*
X132880500Y-68253338D01*
X133089192Y-68333030D01*
X133094260Y-68334061D01*
X133094263Y-68334062D01*
X133201517Y-68355883D01*
X133308097Y-68377567D01*
X133313272Y-68377757D01*
X133313274Y-68377757D01*
X133526173Y-68385564D01*
X133526177Y-68385564D01*
X133531337Y-68385753D01*
X133536457Y-68385097D01*
X133536459Y-68385097D01*
X133747788Y-68358025D01*
X133747789Y-68358025D01*
X133752916Y-68357368D01*
X133818486Y-68337696D01*
X133961929Y-68294661D01*
X133961934Y-68294659D01*
X133966884Y-68293174D01*
X134167494Y-68194896D01*
X134349360Y-68065173D01*
X134507596Y-67907489D01*
X134567094Y-67824689D01*
X134634935Y-67730277D01*
X134637953Y-67726077D01*
X134658820Y-67683857D01*
X134734636Y-67530453D01*
X134734637Y-67530451D01*
X134736930Y-67525811D01*
X134801870Y-67312069D01*
X134831029Y-67090590D01*
X134831377Y-67076349D01*
X134832574Y-67027365D01*
X134832574Y-67027361D01*
X134832656Y-67024000D01*
X134829918Y-66990695D01*
X144023251Y-66990695D01*
X144023548Y-66995848D01*
X144023548Y-66995851D01*
X144029011Y-67090590D01*
X144036110Y-67213715D01*
X144037247Y-67218761D01*
X144037248Y-67218767D01*
X144057119Y-67306939D01*
X144085222Y-67431639D01*
X144169266Y-67638616D01*
X144220019Y-67721438D01*
X144283291Y-67824688D01*
X144285987Y-67829088D01*
X144432250Y-67997938D01*
X144508846Y-68061529D01*
X144596255Y-68134097D01*
X144604126Y-68140632D01*
X144797000Y-68253338D01*
X145005692Y-68333030D01*
X145010760Y-68334061D01*
X145010763Y-68334062D01*
X145118017Y-68355883D01*
X145224597Y-68377567D01*
X145229772Y-68377757D01*
X145229774Y-68377757D01*
X145442673Y-68385564D01*
X145442677Y-68385564D01*
X145447837Y-68385753D01*
X145452957Y-68385097D01*
X145452959Y-68385097D01*
X145664288Y-68358025D01*
X145664289Y-68358025D01*
X145669416Y-68357368D01*
X145734986Y-68337696D01*
X145878429Y-68294661D01*
X145878434Y-68294659D01*
X145883384Y-68293174D01*
X146083994Y-68194896D01*
X146265860Y-68065173D01*
X146424096Y-67907489D01*
X146483594Y-67824689D01*
X146554453Y-67726077D01*
X146555776Y-67727028D01*
X146602645Y-67683857D01*
X146672580Y-67671625D01*
X146738026Y-67699144D01*
X146765875Y-67730994D01*
X146825987Y-67829088D01*
X146972250Y-67997938D01*
X147048846Y-68061529D01*
X147136255Y-68134097D01*
X147144126Y-68140632D01*
X147337000Y-68253338D01*
X147545692Y-68333030D01*
X147550760Y-68334061D01*
X147550763Y-68334062D01*
X147658017Y-68355883D01*
X147764597Y-68377567D01*
X147769772Y-68377757D01*
X147769774Y-68377757D01*
X147982673Y-68385564D01*
X147982677Y-68385564D01*
X147987837Y-68385753D01*
X147992957Y-68385097D01*
X147992959Y-68385097D01*
X148204288Y-68358025D01*
X148204289Y-68358025D01*
X148209416Y-68357368D01*
X148274986Y-68337696D01*
X148418429Y-68294661D01*
X148418434Y-68294659D01*
X148423384Y-68293174D01*
X148623994Y-68194896D01*
X148805860Y-68065173D01*
X148964096Y-67907489D01*
X149023594Y-67824689D01*
X149091435Y-67730277D01*
X149094453Y-67726077D01*
X149115320Y-67683857D01*
X149191136Y-67530453D01*
X149191137Y-67530451D01*
X149193430Y-67525811D01*
X149258370Y-67312069D01*
X149287529Y-67090590D01*
X149287877Y-67076349D01*
X149289074Y-67027365D01*
X149289074Y-67027361D01*
X149289156Y-67024000D01*
X149286418Y-66990695D01*
X158479751Y-66990695D01*
X158480048Y-66995848D01*
X158480048Y-66995851D01*
X158485511Y-67090590D01*
X158492610Y-67213715D01*
X158493747Y-67218761D01*
X158493748Y-67218767D01*
X158513619Y-67306939D01*
X158541722Y-67431639D01*
X158625766Y-67638616D01*
X158676519Y-67721438D01*
X158739791Y-67824688D01*
X158742487Y-67829088D01*
X158888750Y-67997938D01*
X158965346Y-68061529D01*
X159052755Y-68134097D01*
X159060626Y-68140632D01*
X159253500Y-68253338D01*
X159462192Y-68333030D01*
X159467260Y-68334061D01*
X159467263Y-68334062D01*
X159574517Y-68355883D01*
X159681097Y-68377567D01*
X159686272Y-68377757D01*
X159686274Y-68377757D01*
X159899173Y-68385564D01*
X159899177Y-68385564D01*
X159904337Y-68385753D01*
X159909457Y-68385097D01*
X159909459Y-68385097D01*
X160120788Y-68358025D01*
X160120789Y-68358025D01*
X160125916Y-68357368D01*
X160191486Y-68337696D01*
X160334929Y-68294661D01*
X160334934Y-68294659D01*
X160339884Y-68293174D01*
X160540494Y-68194896D01*
X160722360Y-68065173D01*
X160880596Y-67907489D01*
X160940094Y-67824689D01*
X161010953Y-67726077D01*
X161012276Y-67727028D01*
X161059145Y-67683857D01*
X161129080Y-67671625D01*
X161194526Y-67699144D01*
X161222375Y-67730994D01*
X161282487Y-67829088D01*
X161428750Y-67997938D01*
X161505346Y-68061529D01*
X161592755Y-68134097D01*
X161600626Y-68140632D01*
X161793500Y-68253338D01*
X162002192Y-68333030D01*
X162007260Y-68334061D01*
X162007263Y-68334062D01*
X162114517Y-68355883D01*
X162221097Y-68377567D01*
X162226272Y-68377757D01*
X162226274Y-68377757D01*
X162439173Y-68385564D01*
X162439177Y-68385564D01*
X162444337Y-68385753D01*
X162449457Y-68385097D01*
X162449459Y-68385097D01*
X162660788Y-68358025D01*
X162660789Y-68358025D01*
X162665916Y-68357368D01*
X162731486Y-68337696D01*
X162874929Y-68294661D01*
X162874934Y-68294659D01*
X162879884Y-68293174D01*
X163080494Y-68194896D01*
X163262360Y-68065173D01*
X163420596Y-67907489D01*
X163480094Y-67824689D01*
X163547935Y-67730277D01*
X163550953Y-67726077D01*
X163571820Y-67683857D01*
X163647636Y-67530453D01*
X163647637Y-67530451D01*
X163649930Y-67525811D01*
X163714870Y-67312069D01*
X163744029Y-67090590D01*
X163744377Y-67076349D01*
X163745574Y-67027365D01*
X163745574Y-67027361D01*
X163745656Y-67024000D01*
X163742918Y-66990695D01*
X165692251Y-66990695D01*
X165692548Y-66995848D01*
X165692548Y-66995851D01*
X165698011Y-67090590D01*
X165705110Y-67213715D01*
X165706247Y-67218761D01*
X165706248Y-67218767D01*
X165726119Y-67306939D01*
X165754222Y-67431639D01*
X165838266Y-67638616D01*
X165889019Y-67721438D01*
X165952291Y-67824688D01*
X165954987Y-67829088D01*
X166101250Y-67997938D01*
X166177846Y-68061529D01*
X166265255Y-68134097D01*
X166273126Y-68140632D01*
X166466000Y-68253338D01*
X166674692Y-68333030D01*
X166679760Y-68334061D01*
X166679763Y-68334062D01*
X166787017Y-68355883D01*
X166893597Y-68377567D01*
X166898772Y-68377757D01*
X166898774Y-68377757D01*
X167111673Y-68385564D01*
X167111677Y-68385564D01*
X167116837Y-68385753D01*
X167121957Y-68385097D01*
X167121959Y-68385097D01*
X167333288Y-68358025D01*
X167333289Y-68358025D01*
X167338416Y-68357368D01*
X167403986Y-68337696D01*
X167547429Y-68294661D01*
X167547434Y-68294659D01*
X167552384Y-68293174D01*
X167752994Y-68194896D01*
X167934860Y-68065173D01*
X168093096Y-67907489D01*
X168152594Y-67824689D01*
X168220435Y-67730277D01*
X168223453Y-67726077D01*
X168244320Y-67683857D01*
X168320136Y-67530453D01*
X168320137Y-67530451D01*
X168322430Y-67525811D01*
X168387370Y-67312069D01*
X168416529Y-67090590D01*
X168416877Y-67076349D01*
X168418074Y-67027365D01*
X168418074Y-67027361D01*
X168418156Y-67024000D01*
X168399852Y-66801361D01*
X168345431Y-66584702D01*
X168256354Y-66379840D01*
X168135014Y-66192277D01*
X167984670Y-66027051D01*
X167980619Y-66023852D01*
X167980615Y-66023848D01*
X167813414Y-65891800D01*
X167813410Y-65891798D01*
X167809359Y-65888598D01*
X167768053Y-65865796D01*
X167718084Y-65815364D01*
X167703312Y-65745921D01*
X167728428Y-65679516D01*
X167755780Y-65652909D01*
X167799603Y-65621650D01*
X167934860Y-65525173D01*
X168093096Y-65367489D01*
X168152594Y-65284689D01*
X168220435Y-65190277D01*
X168223453Y-65186077D01*
X168244320Y-65143857D01*
X168320136Y-64990453D01*
X168320137Y-64990451D01*
X168322430Y-64985811D01*
X168387370Y-64772069D01*
X168416529Y-64550590D01*
X168418156Y-64484000D01*
X168399852Y-64261361D01*
X168345431Y-64044702D01*
X168256354Y-63839840D01*
X168135014Y-63652277D01*
X167984670Y-63487051D01*
X167980619Y-63483852D01*
X167980615Y-63483848D01*
X167813414Y-63351800D01*
X167813410Y-63351798D01*
X167809359Y-63348598D01*
X167768053Y-63325796D01*
X167718084Y-63275364D01*
X167703312Y-63205921D01*
X167728428Y-63139516D01*
X167755780Y-63112909D01*
X167799603Y-63081650D01*
X167934860Y-62985173D01*
X168093096Y-62827489D01*
X168152594Y-62744689D01*
X168220435Y-62650277D01*
X168223453Y-62646077D01*
X168244320Y-62603857D01*
X168320136Y-62450453D01*
X168320137Y-62450451D01*
X168322430Y-62445811D01*
X168387370Y-62232069D01*
X168416529Y-62010590D01*
X168418156Y-61944000D01*
X168399852Y-61721361D01*
X168345431Y-61504702D01*
X168256354Y-61299840D01*
X168135014Y-61112277D01*
X167984670Y-60947051D01*
X167980619Y-60943852D01*
X167980615Y-60943848D01*
X167813414Y-60811800D01*
X167813410Y-60811798D01*
X167809359Y-60808598D01*
X167768053Y-60785796D01*
X167718084Y-60735364D01*
X167703312Y-60665921D01*
X167728428Y-60599516D01*
X167755780Y-60572909D01*
X167799603Y-60541650D01*
X167934860Y-60445173D01*
X168093096Y-60287489D01*
X168152594Y-60204689D01*
X168220435Y-60110277D01*
X168223453Y-60106077D01*
X168244320Y-60063857D01*
X168320136Y-59910453D01*
X168320137Y-59910451D01*
X168322430Y-59905811D01*
X168387370Y-59692069D01*
X168416529Y-59470590D01*
X168418156Y-59404000D01*
X168399852Y-59181361D01*
X168345431Y-58964702D01*
X168256354Y-58759840D01*
X168135014Y-58572277D01*
X167984670Y-58407051D01*
X167980619Y-58403852D01*
X167980615Y-58403848D01*
X167813414Y-58271800D01*
X167813410Y-58271798D01*
X167809359Y-58268598D01*
X167613789Y-58160638D01*
X167608920Y-58158914D01*
X167608916Y-58158912D01*
X167408087Y-58087795D01*
X167408083Y-58087794D01*
X167403212Y-58086069D01*
X167398119Y-58085162D01*
X167398116Y-58085161D01*
X167188373Y-58047800D01*
X167188367Y-58047799D01*
X167183284Y-58046894D01*
X167109452Y-58045992D01*
X166965081Y-58044228D01*
X166965079Y-58044228D01*
X166959911Y-58044165D01*
X166739091Y-58077955D01*
X166526756Y-58147357D01*
X166328607Y-58250507D01*
X166324474Y-58253610D01*
X166324471Y-58253612D01*
X166300247Y-58271800D01*
X166149965Y-58384635D01*
X165995629Y-58546138D01*
X165869743Y-58730680D01*
X165775688Y-58933305D01*
X165715989Y-59148570D01*
X165692251Y-59370695D01*
X165692548Y-59375848D01*
X165692548Y-59375851D01*
X165698011Y-59470590D01*
X165705110Y-59593715D01*
X165706247Y-59598761D01*
X165706248Y-59598767D01*
X165726119Y-59686939D01*
X165754222Y-59811639D01*
X165838266Y-60018616D01*
X165889019Y-60101438D01*
X165952291Y-60204688D01*
X165954987Y-60209088D01*
X166101250Y-60377938D01*
X166273126Y-60520632D01*
X166343595Y-60561811D01*
X166346445Y-60563476D01*
X166395169Y-60615114D01*
X166408240Y-60684897D01*
X166381509Y-60750669D01*
X166341055Y-60784027D01*
X166328607Y-60790507D01*
X166324474Y-60793610D01*
X166324471Y-60793612D01*
X166300247Y-60811800D01*
X166149965Y-60924635D01*
X165995629Y-61086138D01*
X165869743Y-61270680D01*
X165775688Y-61473305D01*
X165715989Y-61688570D01*
X165692251Y-61910695D01*
X165692548Y-61915848D01*
X165692548Y-61915851D01*
X165698011Y-62010590D01*
X165705110Y-62133715D01*
X165706247Y-62138761D01*
X165706248Y-62138767D01*
X165726119Y-62226939D01*
X165754222Y-62351639D01*
X165838266Y-62558616D01*
X165889019Y-62641438D01*
X165952291Y-62744688D01*
X165954987Y-62749088D01*
X166101250Y-62917938D01*
X166273126Y-63060632D01*
X166343595Y-63101811D01*
X166346445Y-63103476D01*
X166395169Y-63155114D01*
X166408240Y-63224897D01*
X166381509Y-63290669D01*
X166341055Y-63324027D01*
X166328607Y-63330507D01*
X166324474Y-63333610D01*
X166324471Y-63333612D01*
X166300247Y-63351800D01*
X166149965Y-63464635D01*
X165995629Y-63626138D01*
X165869743Y-63810680D01*
X165775688Y-64013305D01*
X165715989Y-64228570D01*
X165692251Y-64450695D01*
X165692548Y-64455848D01*
X165692548Y-64455851D01*
X165698011Y-64550590D01*
X165705110Y-64673715D01*
X165706247Y-64678761D01*
X165706248Y-64678767D01*
X165726119Y-64766939D01*
X165754222Y-64891639D01*
X165838266Y-65098616D01*
X165889019Y-65181438D01*
X165952291Y-65284688D01*
X165954987Y-65289088D01*
X166101250Y-65457938D01*
X166273126Y-65600632D01*
X166343595Y-65641811D01*
X166346445Y-65643476D01*
X166395169Y-65695114D01*
X166408240Y-65764897D01*
X166381509Y-65830669D01*
X166341055Y-65864027D01*
X166328607Y-65870507D01*
X166324474Y-65873610D01*
X166324471Y-65873612D01*
X166300247Y-65891800D01*
X166149965Y-66004635D01*
X165995629Y-66166138D01*
X165869743Y-66350680D01*
X165775688Y-66553305D01*
X165715989Y-66768570D01*
X165692251Y-66990695D01*
X163742918Y-66990695D01*
X163727352Y-66801361D01*
X163672931Y-66584702D01*
X163583854Y-66379840D01*
X163462514Y-66192277D01*
X163312170Y-66027051D01*
X163308119Y-66023852D01*
X163308115Y-66023848D01*
X163140914Y-65891800D01*
X163140910Y-65891798D01*
X163136859Y-65888598D01*
X163095553Y-65865796D01*
X163045584Y-65815364D01*
X163030812Y-65745921D01*
X163055928Y-65679516D01*
X163083280Y-65652909D01*
X163127103Y-65621650D01*
X163262360Y-65525173D01*
X163420596Y-65367489D01*
X163480094Y-65284689D01*
X163547935Y-65190277D01*
X163550953Y-65186077D01*
X163571820Y-65143857D01*
X163647636Y-64990453D01*
X163647637Y-64990451D01*
X163649930Y-64985811D01*
X163714870Y-64772069D01*
X163744029Y-64550590D01*
X163745656Y-64484000D01*
X163727352Y-64261361D01*
X163672931Y-64044702D01*
X163583854Y-63839840D01*
X163462514Y-63652277D01*
X163312170Y-63487051D01*
X163308119Y-63483852D01*
X163308115Y-63483848D01*
X163140914Y-63351800D01*
X163140910Y-63351798D01*
X163136859Y-63348598D01*
X163095553Y-63325796D01*
X163045584Y-63275364D01*
X163030812Y-63205921D01*
X163055928Y-63139516D01*
X163083280Y-63112909D01*
X163127103Y-63081650D01*
X163262360Y-62985173D01*
X163420596Y-62827489D01*
X163480094Y-62744689D01*
X163547935Y-62650277D01*
X163550953Y-62646077D01*
X163571820Y-62603857D01*
X163647636Y-62450453D01*
X163647637Y-62450451D01*
X163649930Y-62445811D01*
X163714870Y-62232069D01*
X163744029Y-62010590D01*
X163745656Y-61944000D01*
X163727352Y-61721361D01*
X163672931Y-61504702D01*
X163583854Y-61299840D01*
X163462514Y-61112277D01*
X163312170Y-60947051D01*
X163308119Y-60943852D01*
X163308115Y-60943848D01*
X163140914Y-60811800D01*
X163140910Y-60811798D01*
X163136859Y-60808598D01*
X163095553Y-60785796D01*
X163045584Y-60735364D01*
X163030812Y-60665921D01*
X163055928Y-60599516D01*
X163083280Y-60572909D01*
X163127103Y-60541650D01*
X163262360Y-60445173D01*
X163420596Y-60287489D01*
X163480094Y-60204689D01*
X163547935Y-60110277D01*
X163550953Y-60106077D01*
X163571820Y-60063857D01*
X163647636Y-59910453D01*
X163647637Y-59910451D01*
X163649930Y-59905811D01*
X163714870Y-59692069D01*
X163744029Y-59470590D01*
X163745656Y-59404000D01*
X163727352Y-59181361D01*
X163672931Y-58964702D01*
X163583854Y-58759840D01*
X163462514Y-58572277D01*
X163312170Y-58407051D01*
X163308119Y-58403852D01*
X163308115Y-58403848D01*
X163140914Y-58271800D01*
X163140910Y-58271798D01*
X163136859Y-58268598D01*
X162941289Y-58160638D01*
X162936420Y-58158914D01*
X162936416Y-58158912D01*
X162735587Y-58087795D01*
X162735583Y-58087794D01*
X162730712Y-58086069D01*
X162725619Y-58085162D01*
X162725616Y-58085161D01*
X162515873Y-58047800D01*
X162515867Y-58047799D01*
X162510784Y-58046894D01*
X162436952Y-58045992D01*
X162292581Y-58044228D01*
X162292579Y-58044228D01*
X162287411Y-58044165D01*
X162066591Y-58077955D01*
X161854256Y-58147357D01*
X161656107Y-58250507D01*
X161651974Y-58253610D01*
X161651971Y-58253612D01*
X161627747Y-58271800D01*
X161477465Y-58384635D01*
X161323129Y-58546138D01*
X161215701Y-58703621D01*
X161160793Y-58748621D01*
X161090268Y-58756792D01*
X161026521Y-58725538D01*
X161005824Y-58701054D01*
X160925322Y-58576617D01*
X160925320Y-58576614D01*
X160922514Y-58572277D01*
X160772170Y-58407051D01*
X160768119Y-58403852D01*
X160768115Y-58403848D01*
X160600914Y-58271800D01*
X160600910Y-58271798D01*
X160596859Y-58268598D01*
X160401289Y-58160638D01*
X160396420Y-58158914D01*
X160396416Y-58158912D01*
X160195587Y-58087795D01*
X160195583Y-58087794D01*
X160190712Y-58086069D01*
X160185619Y-58085162D01*
X160185616Y-58085161D01*
X159975873Y-58047800D01*
X159975867Y-58047799D01*
X159970784Y-58046894D01*
X159896952Y-58045992D01*
X159752581Y-58044228D01*
X159752579Y-58044228D01*
X159747411Y-58044165D01*
X159526591Y-58077955D01*
X159314256Y-58147357D01*
X159116107Y-58250507D01*
X159111974Y-58253610D01*
X159111971Y-58253612D01*
X159087747Y-58271800D01*
X158937465Y-58384635D01*
X158783129Y-58546138D01*
X158657243Y-58730680D01*
X158563188Y-58933305D01*
X158503489Y-59148570D01*
X158479751Y-59370695D01*
X158480048Y-59375848D01*
X158480048Y-59375851D01*
X158485511Y-59470590D01*
X158492610Y-59593715D01*
X158493747Y-59598761D01*
X158493748Y-59598767D01*
X158513619Y-59686939D01*
X158541722Y-59811639D01*
X158625766Y-60018616D01*
X158676519Y-60101438D01*
X158739791Y-60204688D01*
X158742487Y-60209088D01*
X158888750Y-60377938D01*
X159060626Y-60520632D01*
X159131095Y-60561811D01*
X159133945Y-60563476D01*
X159182669Y-60615114D01*
X159195740Y-60684897D01*
X159169009Y-60750669D01*
X159128555Y-60784027D01*
X159116107Y-60790507D01*
X159111974Y-60793610D01*
X159111971Y-60793612D01*
X159087747Y-60811800D01*
X158937465Y-60924635D01*
X158783129Y-61086138D01*
X158657243Y-61270680D01*
X158563188Y-61473305D01*
X158503489Y-61688570D01*
X158479751Y-61910695D01*
X158480048Y-61915848D01*
X158480048Y-61915851D01*
X158485511Y-62010590D01*
X158492610Y-62133715D01*
X158493747Y-62138761D01*
X158493748Y-62138767D01*
X158513619Y-62226939D01*
X158541722Y-62351639D01*
X158625766Y-62558616D01*
X158676519Y-62641438D01*
X158739791Y-62744688D01*
X158742487Y-62749088D01*
X158888750Y-62917938D01*
X159060626Y-63060632D01*
X159131095Y-63101811D01*
X159133945Y-63103476D01*
X159182669Y-63155114D01*
X159195740Y-63224897D01*
X159169009Y-63290669D01*
X159128555Y-63324027D01*
X159116107Y-63330507D01*
X159111974Y-63333610D01*
X159111971Y-63333612D01*
X159087747Y-63351800D01*
X158937465Y-63464635D01*
X158783129Y-63626138D01*
X158657243Y-63810680D01*
X158563188Y-64013305D01*
X158503489Y-64228570D01*
X158479751Y-64450695D01*
X158480048Y-64455848D01*
X158480048Y-64455851D01*
X158485511Y-64550590D01*
X158492610Y-64673715D01*
X158493747Y-64678761D01*
X158493748Y-64678767D01*
X158513619Y-64766939D01*
X158541722Y-64891639D01*
X158625766Y-65098616D01*
X158676519Y-65181438D01*
X158739791Y-65284688D01*
X158742487Y-65289088D01*
X158888750Y-65457938D01*
X159060626Y-65600632D01*
X159131095Y-65641811D01*
X159133945Y-65643476D01*
X159182669Y-65695114D01*
X159195740Y-65764897D01*
X159169009Y-65830669D01*
X159128555Y-65864027D01*
X159116107Y-65870507D01*
X159111974Y-65873610D01*
X159111971Y-65873612D01*
X159087747Y-65891800D01*
X158937465Y-66004635D01*
X158783129Y-66166138D01*
X158657243Y-66350680D01*
X158563188Y-66553305D01*
X158503489Y-66768570D01*
X158479751Y-66990695D01*
X149286418Y-66990695D01*
X149270852Y-66801361D01*
X149216431Y-66584702D01*
X149127354Y-66379840D01*
X149006014Y-66192277D01*
X148855670Y-66027051D01*
X148851619Y-66023852D01*
X148851615Y-66023848D01*
X148684414Y-65891800D01*
X148684410Y-65891798D01*
X148680359Y-65888598D01*
X148639053Y-65865796D01*
X148589084Y-65815364D01*
X148574312Y-65745921D01*
X148599428Y-65679516D01*
X148626780Y-65652909D01*
X148670603Y-65621650D01*
X148805860Y-65525173D01*
X148964096Y-65367489D01*
X149023594Y-65284689D01*
X149091435Y-65190277D01*
X149094453Y-65186077D01*
X149115320Y-65143857D01*
X149191136Y-64990453D01*
X149191137Y-64990451D01*
X149193430Y-64985811D01*
X149258370Y-64772069D01*
X149287529Y-64550590D01*
X149289156Y-64484000D01*
X149270852Y-64261361D01*
X149216431Y-64044702D01*
X149127354Y-63839840D01*
X149006014Y-63652277D01*
X148855670Y-63487051D01*
X148851619Y-63483852D01*
X148851615Y-63483848D01*
X148684414Y-63351800D01*
X148684410Y-63351798D01*
X148680359Y-63348598D01*
X148639053Y-63325796D01*
X148589084Y-63275364D01*
X148574312Y-63205921D01*
X148599428Y-63139516D01*
X148626780Y-63112909D01*
X148670603Y-63081650D01*
X148805860Y-62985173D01*
X148964096Y-62827489D01*
X149023594Y-62744689D01*
X149091435Y-62650277D01*
X149094453Y-62646077D01*
X149115320Y-62603857D01*
X149191136Y-62450453D01*
X149191137Y-62450451D01*
X149193430Y-62445811D01*
X149258370Y-62232069D01*
X149287529Y-62010590D01*
X149289156Y-61944000D01*
X149270852Y-61721361D01*
X149216431Y-61504702D01*
X149127354Y-61299840D01*
X149006014Y-61112277D01*
X148855670Y-60947051D01*
X148851619Y-60943852D01*
X148851615Y-60943848D01*
X148684414Y-60811800D01*
X148684410Y-60811798D01*
X148680359Y-60808598D01*
X148639053Y-60785796D01*
X148589084Y-60735364D01*
X148574312Y-60665921D01*
X148599428Y-60599516D01*
X148626780Y-60572909D01*
X148670603Y-60541650D01*
X148805860Y-60445173D01*
X148964096Y-60287489D01*
X149023594Y-60204689D01*
X149091435Y-60110277D01*
X149094453Y-60106077D01*
X149115320Y-60063857D01*
X149191136Y-59910453D01*
X149191137Y-59910451D01*
X149193430Y-59905811D01*
X149258370Y-59692069D01*
X149287529Y-59470590D01*
X149289156Y-59404000D01*
X149270852Y-59181361D01*
X149216431Y-58964702D01*
X149127354Y-58759840D01*
X149006014Y-58572277D01*
X148855670Y-58407051D01*
X148851619Y-58403852D01*
X148851615Y-58403848D01*
X148684414Y-58271800D01*
X148684410Y-58271798D01*
X148680359Y-58268598D01*
X148484789Y-58160638D01*
X148479920Y-58158914D01*
X148479916Y-58158912D01*
X148279087Y-58087795D01*
X148279083Y-58087794D01*
X148274212Y-58086069D01*
X148269119Y-58085162D01*
X148269116Y-58085161D01*
X148059373Y-58047800D01*
X148059367Y-58047799D01*
X148054284Y-58046894D01*
X147980452Y-58045992D01*
X147836081Y-58044228D01*
X147836079Y-58044228D01*
X147830911Y-58044165D01*
X147610091Y-58077955D01*
X147397756Y-58147357D01*
X147199607Y-58250507D01*
X147195474Y-58253610D01*
X147195471Y-58253612D01*
X147171247Y-58271800D01*
X147020965Y-58384635D01*
X146866629Y-58546138D01*
X146759201Y-58703621D01*
X146704293Y-58748621D01*
X146633768Y-58756792D01*
X146570021Y-58725538D01*
X146549324Y-58701054D01*
X146468822Y-58576617D01*
X146468820Y-58576614D01*
X146466014Y-58572277D01*
X146315670Y-58407051D01*
X146311619Y-58403852D01*
X146311615Y-58403848D01*
X146144414Y-58271800D01*
X146144410Y-58271798D01*
X146140359Y-58268598D01*
X145944789Y-58160638D01*
X145939920Y-58158914D01*
X145939916Y-58158912D01*
X145739087Y-58087795D01*
X145739083Y-58087794D01*
X145734212Y-58086069D01*
X145729119Y-58085162D01*
X145729116Y-58085161D01*
X145519373Y-58047800D01*
X145519367Y-58047799D01*
X145514284Y-58046894D01*
X145440452Y-58045992D01*
X145296081Y-58044228D01*
X145296079Y-58044228D01*
X145290911Y-58044165D01*
X145070091Y-58077955D01*
X144857756Y-58147357D01*
X144659607Y-58250507D01*
X144655474Y-58253610D01*
X144655471Y-58253612D01*
X144631247Y-58271800D01*
X144480965Y-58384635D01*
X144326629Y-58546138D01*
X144200743Y-58730680D01*
X144106688Y-58933305D01*
X144046989Y-59148570D01*
X144023251Y-59370695D01*
X144023548Y-59375848D01*
X144023548Y-59375851D01*
X144029011Y-59470590D01*
X144036110Y-59593715D01*
X144037247Y-59598761D01*
X144037248Y-59598767D01*
X144057119Y-59686939D01*
X144085222Y-59811639D01*
X144169266Y-60018616D01*
X144220019Y-60101438D01*
X144283291Y-60204688D01*
X144285987Y-60209088D01*
X144432250Y-60377938D01*
X144604126Y-60520632D01*
X144674595Y-60561811D01*
X144677445Y-60563476D01*
X144726169Y-60615114D01*
X144739240Y-60684897D01*
X144712509Y-60750669D01*
X144672055Y-60784027D01*
X144659607Y-60790507D01*
X144655474Y-60793610D01*
X144655471Y-60793612D01*
X144631247Y-60811800D01*
X144480965Y-60924635D01*
X144326629Y-61086138D01*
X144200743Y-61270680D01*
X144106688Y-61473305D01*
X144046989Y-61688570D01*
X144023251Y-61910695D01*
X144023548Y-61915848D01*
X144023548Y-61915851D01*
X144029011Y-62010590D01*
X144036110Y-62133715D01*
X144037247Y-62138761D01*
X144037248Y-62138767D01*
X144057119Y-62226939D01*
X144085222Y-62351639D01*
X144169266Y-62558616D01*
X144220019Y-62641438D01*
X144283291Y-62744688D01*
X144285987Y-62749088D01*
X144432250Y-62917938D01*
X144604126Y-63060632D01*
X144674595Y-63101811D01*
X144677445Y-63103476D01*
X144726169Y-63155114D01*
X144739240Y-63224897D01*
X144712509Y-63290669D01*
X144672055Y-63324027D01*
X144659607Y-63330507D01*
X144655474Y-63333610D01*
X144655471Y-63333612D01*
X144631247Y-63351800D01*
X144480965Y-63464635D01*
X144326629Y-63626138D01*
X144200743Y-63810680D01*
X144106688Y-64013305D01*
X144046989Y-64228570D01*
X144023251Y-64450695D01*
X144023548Y-64455848D01*
X144023548Y-64455851D01*
X144029011Y-64550590D01*
X144036110Y-64673715D01*
X144037247Y-64678761D01*
X144037248Y-64678767D01*
X144057119Y-64766939D01*
X144085222Y-64891639D01*
X144169266Y-65098616D01*
X144220019Y-65181438D01*
X144283291Y-65284688D01*
X144285987Y-65289088D01*
X144432250Y-65457938D01*
X144604126Y-65600632D01*
X144674595Y-65641811D01*
X144677445Y-65643476D01*
X144726169Y-65695114D01*
X144739240Y-65764897D01*
X144712509Y-65830669D01*
X144672055Y-65864027D01*
X144659607Y-65870507D01*
X144655474Y-65873610D01*
X144655471Y-65873612D01*
X144631247Y-65891800D01*
X144480965Y-66004635D01*
X144326629Y-66166138D01*
X144200743Y-66350680D01*
X144106688Y-66553305D01*
X144046989Y-66768570D01*
X144023251Y-66990695D01*
X134829918Y-66990695D01*
X134814352Y-66801361D01*
X134759931Y-66584702D01*
X134670854Y-66379840D01*
X134549514Y-66192277D01*
X134399170Y-66027051D01*
X134395119Y-66023852D01*
X134395115Y-66023848D01*
X134227914Y-65891800D01*
X134227910Y-65891798D01*
X134223859Y-65888598D01*
X134182553Y-65865796D01*
X134132584Y-65815364D01*
X134117812Y-65745921D01*
X134142928Y-65679516D01*
X134170280Y-65652909D01*
X134214103Y-65621650D01*
X134349360Y-65525173D01*
X134507596Y-65367489D01*
X134567094Y-65284689D01*
X134634935Y-65190277D01*
X134637953Y-65186077D01*
X134658820Y-65143857D01*
X134734636Y-64990453D01*
X134734637Y-64990451D01*
X134736930Y-64985811D01*
X134801870Y-64772069D01*
X134831029Y-64550590D01*
X134832656Y-64484000D01*
X134814352Y-64261361D01*
X134759931Y-64044702D01*
X134670854Y-63839840D01*
X134549514Y-63652277D01*
X134399170Y-63487051D01*
X134395119Y-63483852D01*
X134395115Y-63483848D01*
X134227914Y-63351800D01*
X134227910Y-63351798D01*
X134223859Y-63348598D01*
X134182553Y-63325796D01*
X134132584Y-63275364D01*
X134117812Y-63205921D01*
X134142928Y-63139516D01*
X134170280Y-63112909D01*
X134214103Y-63081650D01*
X134349360Y-62985173D01*
X134507596Y-62827489D01*
X134567094Y-62744689D01*
X134634935Y-62650277D01*
X134637953Y-62646077D01*
X134658820Y-62603857D01*
X134734636Y-62450453D01*
X134734637Y-62450451D01*
X134736930Y-62445811D01*
X134801870Y-62232069D01*
X134831029Y-62010590D01*
X134832656Y-61944000D01*
X134814352Y-61721361D01*
X134759931Y-61504702D01*
X134670854Y-61299840D01*
X134549514Y-61112277D01*
X134399170Y-60947051D01*
X134395119Y-60943852D01*
X134395115Y-60943848D01*
X134227914Y-60811800D01*
X134227910Y-60811798D01*
X134223859Y-60808598D01*
X134182553Y-60785796D01*
X134132584Y-60735364D01*
X134117812Y-60665921D01*
X134142928Y-60599516D01*
X134170280Y-60572909D01*
X134214103Y-60541650D01*
X134349360Y-60445173D01*
X134507596Y-60287489D01*
X134567094Y-60204689D01*
X134634935Y-60110277D01*
X134637953Y-60106077D01*
X134658820Y-60063857D01*
X134734636Y-59910453D01*
X134734637Y-59910451D01*
X134736930Y-59905811D01*
X134801870Y-59692069D01*
X134831029Y-59470590D01*
X134832656Y-59404000D01*
X134814352Y-59181361D01*
X134759931Y-58964702D01*
X134670854Y-58759840D01*
X134549514Y-58572277D01*
X134399170Y-58407051D01*
X134395119Y-58403852D01*
X134395115Y-58403848D01*
X134227914Y-58271800D01*
X134227910Y-58271798D01*
X134223859Y-58268598D01*
X134028289Y-58160638D01*
X134023420Y-58158914D01*
X134023416Y-58158912D01*
X133822587Y-58087795D01*
X133822583Y-58087794D01*
X133817712Y-58086069D01*
X133812619Y-58085162D01*
X133812616Y-58085161D01*
X133602873Y-58047800D01*
X133602867Y-58047799D01*
X133597784Y-58046894D01*
X133523952Y-58045992D01*
X133379581Y-58044228D01*
X133379579Y-58044228D01*
X133374411Y-58044165D01*
X133153591Y-58077955D01*
X132941256Y-58147357D01*
X132743107Y-58250507D01*
X132738974Y-58253610D01*
X132738971Y-58253612D01*
X132714747Y-58271800D01*
X132564465Y-58384635D01*
X132410129Y-58546138D01*
X132302701Y-58703621D01*
X132247793Y-58748621D01*
X132177268Y-58756792D01*
X132113521Y-58725538D01*
X132092824Y-58701054D01*
X132012322Y-58576617D01*
X132012320Y-58576614D01*
X132009514Y-58572277D01*
X131859170Y-58407051D01*
X131855119Y-58403852D01*
X131855115Y-58403848D01*
X131687914Y-58271800D01*
X131687910Y-58271798D01*
X131683859Y-58268598D01*
X131488289Y-58160638D01*
X131483420Y-58158914D01*
X131483416Y-58158912D01*
X131282587Y-58087795D01*
X131282583Y-58087794D01*
X131277712Y-58086069D01*
X131272619Y-58085162D01*
X131272616Y-58085161D01*
X131062873Y-58047800D01*
X131062867Y-58047799D01*
X131057784Y-58046894D01*
X130983952Y-58045992D01*
X130839581Y-58044228D01*
X130839579Y-58044228D01*
X130834411Y-58044165D01*
X130613591Y-58077955D01*
X130401256Y-58147357D01*
X130203107Y-58250507D01*
X130198974Y-58253610D01*
X130198971Y-58253612D01*
X130174747Y-58271800D01*
X130024465Y-58384635D01*
X129870129Y-58546138D01*
X129744243Y-58730680D01*
X129650188Y-58933305D01*
X129590489Y-59148570D01*
X129566751Y-59370695D01*
X129567048Y-59375848D01*
X129567048Y-59375851D01*
X129572511Y-59470590D01*
X129579610Y-59593715D01*
X129580747Y-59598761D01*
X129580748Y-59598767D01*
X129600619Y-59686939D01*
X129628722Y-59811639D01*
X129712766Y-60018616D01*
X129763519Y-60101438D01*
X129826791Y-60204688D01*
X129829487Y-60209088D01*
X129975750Y-60377938D01*
X130147626Y-60520632D01*
X130218095Y-60561811D01*
X130220945Y-60563476D01*
X130269669Y-60615114D01*
X130282740Y-60684897D01*
X130256009Y-60750669D01*
X130215555Y-60784027D01*
X130203107Y-60790507D01*
X130198974Y-60793610D01*
X130198971Y-60793612D01*
X130174747Y-60811800D01*
X130024465Y-60924635D01*
X129870129Y-61086138D01*
X129744243Y-61270680D01*
X129650188Y-61473305D01*
X129590489Y-61688570D01*
X129566751Y-61910695D01*
X129567048Y-61915848D01*
X129567048Y-61915851D01*
X129572511Y-62010590D01*
X129579610Y-62133715D01*
X129580747Y-62138761D01*
X129580748Y-62138767D01*
X129600619Y-62226939D01*
X129628722Y-62351639D01*
X129712766Y-62558616D01*
X129763519Y-62641438D01*
X129826791Y-62744688D01*
X129829487Y-62749088D01*
X129975750Y-62917938D01*
X130147626Y-63060632D01*
X130218095Y-63101811D01*
X130220945Y-63103476D01*
X130269669Y-63155114D01*
X130282740Y-63224897D01*
X130256009Y-63290669D01*
X130215555Y-63324027D01*
X130203107Y-63330507D01*
X130198974Y-63333610D01*
X130198971Y-63333612D01*
X130174747Y-63351800D01*
X130024465Y-63464635D01*
X129870129Y-63626138D01*
X129744243Y-63810680D01*
X129650188Y-64013305D01*
X129590489Y-64228570D01*
X129566751Y-64450695D01*
X129567048Y-64455848D01*
X129567048Y-64455851D01*
X129572511Y-64550590D01*
X129579610Y-64673715D01*
X129580747Y-64678761D01*
X129580748Y-64678767D01*
X129600619Y-64766939D01*
X129628722Y-64891639D01*
X129712766Y-65098616D01*
X129763519Y-65181438D01*
X129826791Y-65284688D01*
X129829487Y-65289088D01*
X129975750Y-65457938D01*
X130147626Y-65600632D01*
X130218095Y-65641811D01*
X130220945Y-65643476D01*
X130269669Y-65695114D01*
X130282740Y-65764897D01*
X130256009Y-65830669D01*
X130215555Y-65864027D01*
X130203107Y-65870507D01*
X130198974Y-65873610D01*
X130198971Y-65873612D01*
X130174747Y-65891800D01*
X130024465Y-66004635D01*
X129870129Y-66166138D01*
X129744243Y-66350680D01*
X129650188Y-66553305D01*
X129590489Y-66768570D01*
X129566751Y-66990695D01*
X120373418Y-66990695D01*
X120357852Y-66801361D01*
X120303431Y-66584702D01*
X120214354Y-66379840D01*
X120093014Y-66192277D01*
X119942670Y-66027051D01*
X119938619Y-66023852D01*
X119938615Y-66023848D01*
X119771414Y-65891800D01*
X119771410Y-65891798D01*
X119767359Y-65888598D01*
X119726053Y-65865796D01*
X119676084Y-65815364D01*
X119661312Y-65745921D01*
X119686428Y-65679516D01*
X119713780Y-65652909D01*
X119757603Y-65621650D01*
X119892860Y-65525173D01*
X120051096Y-65367489D01*
X120110594Y-65284689D01*
X120178435Y-65190277D01*
X120181453Y-65186077D01*
X120202320Y-65143857D01*
X120278136Y-64990453D01*
X120278137Y-64990451D01*
X120280430Y-64985811D01*
X120345370Y-64772069D01*
X120374529Y-64550590D01*
X120376156Y-64484000D01*
X120357852Y-64261361D01*
X120303431Y-64044702D01*
X120214354Y-63839840D01*
X120093014Y-63652277D01*
X119942670Y-63487051D01*
X119938619Y-63483852D01*
X119938615Y-63483848D01*
X119771414Y-63351800D01*
X119771410Y-63351798D01*
X119767359Y-63348598D01*
X119726053Y-63325796D01*
X119676084Y-63275364D01*
X119661312Y-63205921D01*
X119686428Y-63139516D01*
X119713780Y-63112909D01*
X119757603Y-63081650D01*
X119892860Y-62985173D01*
X120051096Y-62827489D01*
X120110594Y-62744689D01*
X120178435Y-62650277D01*
X120181453Y-62646077D01*
X120202320Y-62603857D01*
X120278136Y-62450453D01*
X120278137Y-62450451D01*
X120280430Y-62445811D01*
X120345370Y-62232069D01*
X120374529Y-62010590D01*
X120376156Y-61944000D01*
X120357852Y-61721361D01*
X120303431Y-61504702D01*
X120214354Y-61299840D01*
X120093014Y-61112277D01*
X119942670Y-60947051D01*
X119938619Y-60943852D01*
X119938615Y-60943848D01*
X119771414Y-60811800D01*
X119771410Y-60811798D01*
X119767359Y-60808598D01*
X119726053Y-60785796D01*
X119676084Y-60735364D01*
X119661312Y-60665921D01*
X119686428Y-60599516D01*
X119713780Y-60572909D01*
X119757603Y-60541650D01*
X119892860Y-60445173D01*
X120051096Y-60287489D01*
X120110594Y-60204689D01*
X120178435Y-60110277D01*
X120181453Y-60106077D01*
X120202320Y-60063857D01*
X120278136Y-59910453D01*
X120278137Y-59910451D01*
X120280430Y-59905811D01*
X120345370Y-59692069D01*
X120374529Y-59470590D01*
X120376156Y-59404000D01*
X120357852Y-59181361D01*
X120303431Y-58964702D01*
X120214354Y-58759840D01*
X120093014Y-58572277D01*
X119942670Y-58407051D01*
X119938619Y-58403852D01*
X119938615Y-58403848D01*
X119771414Y-58271800D01*
X119771410Y-58271798D01*
X119767359Y-58268598D01*
X119571789Y-58160638D01*
X119566920Y-58158914D01*
X119566916Y-58158912D01*
X119366087Y-58087795D01*
X119366083Y-58087794D01*
X119361212Y-58086069D01*
X119356119Y-58085162D01*
X119356116Y-58085161D01*
X119146373Y-58047800D01*
X119146367Y-58047799D01*
X119141284Y-58046894D01*
X119067452Y-58045992D01*
X118923081Y-58044228D01*
X118923079Y-58044228D01*
X118917911Y-58044165D01*
X118697091Y-58077955D01*
X118484756Y-58147357D01*
X118286607Y-58250507D01*
X118282474Y-58253610D01*
X118282471Y-58253612D01*
X118258247Y-58271800D01*
X118107965Y-58384635D01*
X117953629Y-58546138D01*
X117846201Y-58703621D01*
X117791293Y-58748621D01*
X117720768Y-58756792D01*
X117657021Y-58725538D01*
X117636324Y-58701054D01*
X117555822Y-58576617D01*
X117555820Y-58576614D01*
X117553014Y-58572277D01*
X117402670Y-58407051D01*
X117398619Y-58403852D01*
X117398615Y-58403848D01*
X117231414Y-58271800D01*
X117231410Y-58271798D01*
X117227359Y-58268598D01*
X117031789Y-58160638D01*
X117026920Y-58158914D01*
X117026916Y-58158912D01*
X116826087Y-58087795D01*
X116826083Y-58087794D01*
X116821212Y-58086069D01*
X116816119Y-58085162D01*
X116816116Y-58085161D01*
X116606373Y-58047800D01*
X116606367Y-58047799D01*
X116601284Y-58046894D01*
X116527452Y-58045992D01*
X116383081Y-58044228D01*
X116383079Y-58044228D01*
X116377911Y-58044165D01*
X116157091Y-58077955D01*
X115944756Y-58147357D01*
X115746607Y-58250507D01*
X115742474Y-58253610D01*
X115742471Y-58253612D01*
X115718247Y-58271800D01*
X115567965Y-58384635D01*
X115413629Y-58546138D01*
X115287743Y-58730680D01*
X115193688Y-58933305D01*
X115133989Y-59148570D01*
X115110251Y-59370695D01*
X115110548Y-59375848D01*
X115110548Y-59375851D01*
X115116011Y-59470590D01*
X115123110Y-59593715D01*
X115124247Y-59598761D01*
X115124248Y-59598767D01*
X115144119Y-59686939D01*
X115172222Y-59811639D01*
X115256266Y-60018616D01*
X115307019Y-60101438D01*
X115370291Y-60204688D01*
X115372987Y-60209088D01*
X115519250Y-60377938D01*
X115691126Y-60520632D01*
X115761595Y-60561811D01*
X115764445Y-60563476D01*
X115813169Y-60615114D01*
X115826240Y-60684897D01*
X115799509Y-60750669D01*
X115759055Y-60784027D01*
X115746607Y-60790507D01*
X115742474Y-60793610D01*
X115742471Y-60793612D01*
X115718247Y-60811800D01*
X115567965Y-60924635D01*
X115413629Y-61086138D01*
X115287743Y-61270680D01*
X115193688Y-61473305D01*
X115133989Y-61688570D01*
X115110251Y-61910695D01*
X115110548Y-61915848D01*
X115110548Y-61915851D01*
X115116011Y-62010590D01*
X115123110Y-62133715D01*
X115124247Y-62138761D01*
X115124248Y-62138767D01*
X115144119Y-62226939D01*
X115172222Y-62351639D01*
X115256266Y-62558616D01*
X115307019Y-62641438D01*
X115370291Y-62744688D01*
X115372987Y-62749088D01*
X115519250Y-62917938D01*
X115691126Y-63060632D01*
X115761595Y-63101811D01*
X115764445Y-63103476D01*
X115813169Y-63155114D01*
X115826240Y-63224897D01*
X115799509Y-63290669D01*
X115759055Y-63324027D01*
X115746607Y-63330507D01*
X115742474Y-63333610D01*
X115742471Y-63333612D01*
X115718247Y-63351800D01*
X115567965Y-63464635D01*
X115413629Y-63626138D01*
X115287743Y-63810680D01*
X115193688Y-64013305D01*
X115133989Y-64228570D01*
X115110251Y-64450695D01*
X115110548Y-64455848D01*
X115110548Y-64455851D01*
X115116011Y-64550590D01*
X115123110Y-64673715D01*
X115124247Y-64678761D01*
X115124248Y-64678767D01*
X115144119Y-64766939D01*
X115172222Y-64891639D01*
X115256266Y-65098616D01*
X115307019Y-65181438D01*
X115370291Y-65284688D01*
X115372987Y-65289088D01*
X115519250Y-65457938D01*
X115691126Y-65600632D01*
X115761595Y-65641811D01*
X115764445Y-65643476D01*
X115813169Y-65695114D01*
X115826240Y-65764897D01*
X115799509Y-65830669D01*
X115759055Y-65864027D01*
X115746607Y-65870507D01*
X115742474Y-65873610D01*
X115742471Y-65873612D01*
X115718247Y-65891800D01*
X115567965Y-66004635D01*
X115413629Y-66166138D01*
X115287743Y-66350680D01*
X115193688Y-66553305D01*
X115133989Y-66768570D01*
X115110251Y-66990695D01*
X105916918Y-66990695D01*
X105901352Y-66801361D01*
X105846931Y-66584702D01*
X105757854Y-66379840D01*
X105636514Y-66192277D01*
X105486170Y-66027051D01*
X105482119Y-66023852D01*
X105482115Y-66023848D01*
X105314914Y-65891800D01*
X105314910Y-65891798D01*
X105310859Y-65888598D01*
X105269553Y-65865796D01*
X105219584Y-65815364D01*
X105204812Y-65745921D01*
X105229928Y-65679516D01*
X105257280Y-65652909D01*
X105301103Y-65621650D01*
X105436360Y-65525173D01*
X105594596Y-65367489D01*
X105654094Y-65284689D01*
X105721935Y-65190277D01*
X105724953Y-65186077D01*
X105745820Y-65143857D01*
X105821636Y-64990453D01*
X105821637Y-64990451D01*
X105823930Y-64985811D01*
X105888870Y-64772069D01*
X105918029Y-64550590D01*
X105919656Y-64484000D01*
X105901352Y-64261361D01*
X105846931Y-64044702D01*
X105757854Y-63839840D01*
X105636514Y-63652277D01*
X105486170Y-63487051D01*
X105482119Y-63483852D01*
X105482115Y-63483848D01*
X105314914Y-63351800D01*
X105314910Y-63351798D01*
X105310859Y-63348598D01*
X105269553Y-63325796D01*
X105219584Y-63275364D01*
X105204812Y-63205921D01*
X105229928Y-63139516D01*
X105257280Y-63112909D01*
X105301103Y-63081650D01*
X105436360Y-62985173D01*
X105594596Y-62827489D01*
X105654094Y-62744689D01*
X105721935Y-62650277D01*
X105724953Y-62646077D01*
X105745820Y-62603857D01*
X105821636Y-62450453D01*
X105821637Y-62450451D01*
X105823930Y-62445811D01*
X105888870Y-62232069D01*
X105918029Y-62010590D01*
X105919656Y-61944000D01*
X105901352Y-61721361D01*
X105846931Y-61504702D01*
X105757854Y-61299840D01*
X105636514Y-61112277D01*
X105486170Y-60947051D01*
X105482119Y-60943852D01*
X105482115Y-60943848D01*
X105314914Y-60811800D01*
X105314910Y-60811798D01*
X105310859Y-60808598D01*
X105269553Y-60785796D01*
X105219584Y-60735364D01*
X105204812Y-60665921D01*
X105229928Y-60599516D01*
X105257280Y-60572909D01*
X105301103Y-60541650D01*
X105436360Y-60445173D01*
X105594596Y-60287489D01*
X105654094Y-60204689D01*
X105721935Y-60110277D01*
X105724953Y-60106077D01*
X105745820Y-60063857D01*
X105821636Y-59910453D01*
X105821637Y-59910451D01*
X105823930Y-59905811D01*
X105888870Y-59692069D01*
X105918029Y-59470590D01*
X105919656Y-59404000D01*
X105901352Y-59181361D01*
X105846931Y-58964702D01*
X105757854Y-58759840D01*
X105636514Y-58572277D01*
X105486170Y-58407051D01*
X105482119Y-58403852D01*
X105482115Y-58403848D01*
X105314914Y-58271800D01*
X105314910Y-58271798D01*
X105310859Y-58268598D01*
X105115289Y-58160638D01*
X105110420Y-58158914D01*
X105110416Y-58158912D01*
X104909587Y-58087795D01*
X104909583Y-58087794D01*
X104904712Y-58086069D01*
X104899619Y-58085162D01*
X104899616Y-58085161D01*
X104689873Y-58047800D01*
X104689867Y-58047799D01*
X104684784Y-58046894D01*
X104610952Y-58045992D01*
X104466581Y-58044228D01*
X104466579Y-58044228D01*
X104461411Y-58044165D01*
X104240591Y-58077955D01*
X104028256Y-58147357D01*
X103830107Y-58250507D01*
X103825974Y-58253610D01*
X103825971Y-58253612D01*
X103801747Y-58271800D01*
X103651465Y-58384635D01*
X103497129Y-58546138D01*
X103389701Y-58703621D01*
X103334793Y-58748621D01*
X103264268Y-58756792D01*
X103200521Y-58725538D01*
X103179824Y-58701054D01*
X103099322Y-58576617D01*
X103099320Y-58576614D01*
X103096514Y-58572277D01*
X102946170Y-58407051D01*
X102942119Y-58403852D01*
X102942115Y-58403848D01*
X102774914Y-58271800D01*
X102774910Y-58271798D01*
X102770859Y-58268598D01*
X102575289Y-58160638D01*
X102570420Y-58158914D01*
X102570416Y-58158912D01*
X102369587Y-58087795D01*
X102369583Y-58087794D01*
X102364712Y-58086069D01*
X102359619Y-58085162D01*
X102359616Y-58085161D01*
X102149873Y-58047800D01*
X102149867Y-58047799D01*
X102144784Y-58046894D01*
X102070952Y-58045992D01*
X101926581Y-58044228D01*
X101926579Y-58044228D01*
X101921411Y-58044165D01*
X101700591Y-58077955D01*
X101488256Y-58147357D01*
X101290107Y-58250507D01*
X101285974Y-58253610D01*
X101285971Y-58253612D01*
X101261747Y-58271800D01*
X101111465Y-58384635D01*
X100957129Y-58546138D01*
X100831243Y-58730680D01*
X100737188Y-58933305D01*
X100677489Y-59148570D01*
X100653751Y-59370695D01*
X100654048Y-59375848D01*
X100654048Y-59375851D01*
X100659511Y-59470590D01*
X100666610Y-59593715D01*
X100667747Y-59598761D01*
X100667748Y-59598767D01*
X100687619Y-59686939D01*
X100715722Y-59811639D01*
X100799766Y-60018616D01*
X100850519Y-60101438D01*
X100913791Y-60204688D01*
X100916487Y-60209088D01*
X101062750Y-60377938D01*
X101234626Y-60520632D01*
X101305095Y-60561811D01*
X101307945Y-60563476D01*
X101356669Y-60615114D01*
X101369740Y-60684897D01*
X101343009Y-60750669D01*
X101302555Y-60784027D01*
X101290107Y-60790507D01*
X101285974Y-60793610D01*
X101285971Y-60793612D01*
X101261747Y-60811800D01*
X101111465Y-60924635D01*
X100957129Y-61086138D01*
X100831243Y-61270680D01*
X100737188Y-61473305D01*
X100677489Y-61688570D01*
X100653751Y-61910695D01*
X100654048Y-61915848D01*
X100654048Y-61915851D01*
X100659511Y-62010590D01*
X100666610Y-62133715D01*
X100667747Y-62138761D01*
X100667748Y-62138767D01*
X100687619Y-62226939D01*
X100715722Y-62351639D01*
X100799766Y-62558616D01*
X100850519Y-62641438D01*
X100913791Y-62744688D01*
X100916487Y-62749088D01*
X101062750Y-62917938D01*
X101234626Y-63060632D01*
X101305095Y-63101811D01*
X101307945Y-63103476D01*
X101356669Y-63155114D01*
X101369740Y-63224897D01*
X101343009Y-63290669D01*
X101302555Y-63324027D01*
X101290107Y-63330507D01*
X101285974Y-63333610D01*
X101285971Y-63333612D01*
X101261747Y-63351800D01*
X101111465Y-63464635D01*
X100957129Y-63626138D01*
X100831243Y-63810680D01*
X100737188Y-64013305D01*
X100677489Y-64228570D01*
X100653751Y-64450695D01*
X100654048Y-64455848D01*
X100654048Y-64455851D01*
X100659511Y-64550590D01*
X100666610Y-64673715D01*
X100667747Y-64678761D01*
X100667748Y-64678767D01*
X100687619Y-64766939D01*
X100715722Y-64891639D01*
X100799766Y-65098616D01*
X100850519Y-65181438D01*
X100913791Y-65284688D01*
X100916487Y-65289088D01*
X101062750Y-65457938D01*
X101234626Y-65600632D01*
X101305095Y-65641811D01*
X101307945Y-65643476D01*
X101356669Y-65695114D01*
X101369740Y-65764897D01*
X101343009Y-65830669D01*
X101302555Y-65864027D01*
X101290107Y-65870507D01*
X101285974Y-65873610D01*
X101285971Y-65873612D01*
X101261747Y-65891800D01*
X101111465Y-66004635D01*
X100957129Y-66166138D01*
X100831243Y-66350680D01*
X100737188Y-66553305D01*
X100677489Y-66768570D01*
X100653751Y-66990695D01*
X91460418Y-66990695D01*
X91444852Y-66801361D01*
X91390431Y-66584702D01*
X91301354Y-66379840D01*
X91180014Y-66192277D01*
X91029670Y-66027051D01*
X91025619Y-66023852D01*
X91025615Y-66023848D01*
X90858414Y-65891800D01*
X90858410Y-65891798D01*
X90854359Y-65888598D01*
X90813053Y-65865796D01*
X90763084Y-65815364D01*
X90748312Y-65745921D01*
X90773428Y-65679516D01*
X90800780Y-65652909D01*
X90844603Y-65621650D01*
X90979860Y-65525173D01*
X91138096Y-65367489D01*
X91197594Y-65284689D01*
X91265435Y-65190277D01*
X91268453Y-65186077D01*
X91289320Y-65143857D01*
X91365136Y-64990453D01*
X91365137Y-64990451D01*
X91367430Y-64985811D01*
X91432370Y-64772069D01*
X91461529Y-64550590D01*
X91463156Y-64484000D01*
X91444852Y-64261361D01*
X91390431Y-64044702D01*
X91301354Y-63839840D01*
X91180014Y-63652277D01*
X91029670Y-63487051D01*
X91025619Y-63483852D01*
X91025615Y-63483848D01*
X90858414Y-63351800D01*
X90858410Y-63351798D01*
X90854359Y-63348598D01*
X90813053Y-63325796D01*
X90763084Y-63275364D01*
X90748312Y-63205921D01*
X90773428Y-63139516D01*
X90800780Y-63112909D01*
X90844603Y-63081650D01*
X90979860Y-62985173D01*
X91138096Y-62827489D01*
X91197594Y-62744689D01*
X91265435Y-62650277D01*
X91268453Y-62646077D01*
X91289320Y-62603857D01*
X91365136Y-62450453D01*
X91365137Y-62450451D01*
X91367430Y-62445811D01*
X91432370Y-62232069D01*
X91461529Y-62010590D01*
X91463156Y-61944000D01*
X91444852Y-61721361D01*
X91390431Y-61504702D01*
X91301354Y-61299840D01*
X91180014Y-61112277D01*
X91029670Y-60947051D01*
X91025619Y-60943852D01*
X91025615Y-60943848D01*
X90858414Y-60811800D01*
X90858410Y-60811798D01*
X90854359Y-60808598D01*
X90813053Y-60785796D01*
X90763084Y-60735364D01*
X90748312Y-60665921D01*
X90773428Y-60599516D01*
X90800780Y-60572909D01*
X90844603Y-60541650D01*
X90979860Y-60445173D01*
X91138096Y-60287489D01*
X91197594Y-60204689D01*
X91265435Y-60110277D01*
X91268453Y-60106077D01*
X91289320Y-60063857D01*
X91365136Y-59910453D01*
X91365137Y-59910451D01*
X91367430Y-59905811D01*
X91432370Y-59692069D01*
X91461529Y-59470590D01*
X91463156Y-59404000D01*
X91444852Y-59181361D01*
X91390431Y-58964702D01*
X91301354Y-58759840D01*
X91180014Y-58572277D01*
X91029670Y-58407051D01*
X91025619Y-58403852D01*
X91025615Y-58403848D01*
X90858414Y-58271800D01*
X90858410Y-58271798D01*
X90854359Y-58268598D01*
X90658789Y-58160638D01*
X90653920Y-58158914D01*
X90653916Y-58158912D01*
X90453087Y-58087795D01*
X90453083Y-58087794D01*
X90448212Y-58086069D01*
X90443119Y-58085162D01*
X90443116Y-58085161D01*
X90233373Y-58047800D01*
X90233367Y-58047799D01*
X90228284Y-58046894D01*
X90154452Y-58045992D01*
X90010081Y-58044228D01*
X90010079Y-58044228D01*
X90004911Y-58044165D01*
X89784091Y-58077955D01*
X89571756Y-58147357D01*
X89373607Y-58250507D01*
X89369474Y-58253610D01*
X89369471Y-58253612D01*
X89345247Y-58271800D01*
X89194965Y-58384635D01*
X89040629Y-58546138D01*
X88933201Y-58703621D01*
X88878293Y-58748621D01*
X88807768Y-58756792D01*
X88744021Y-58725538D01*
X88723324Y-58701054D01*
X88642822Y-58576617D01*
X88642820Y-58576614D01*
X88640014Y-58572277D01*
X88489670Y-58407051D01*
X88485619Y-58403852D01*
X88485615Y-58403848D01*
X88318414Y-58271800D01*
X88318410Y-58271798D01*
X88314359Y-58268598D01*
X88118789Y-58160638D01*
X88113920Y-58158914D01*
X88113916Y-58158912D01*
X87913087Y-58087795D01*
X87913083Y-58087794D01*
X87908212Y-58086069D01*
X87903119Y-58085162D01*
X87903116Y-58085161D01*
X87693373Y-58047800D01*
X87693367Y-58047799D01*
X87688284Y-58046894D01*
X87614452Y-58045992D01*
X87470081Y-58044228D01*
X87470079Y-58044228D01*
X87464911Y-58044165D01*
X87244091Y-58077955D01*
X87031756Y-58147357D01*
X86833607Y-58250507D01*
X86829474Y-58253610D01*
X86829471Y-58253612D01*
X86805247Y-58271800D01*
X86654965Y-58384635D01*
X86500629Y-58546138D01*
X86374743Y-58730680D01*
X86280688Y-58933305D01*
X86220989Y-59148570D01*
X86197251Y-59370695D01*
X86197548Y-59375848D01*
X86197548Y-59375851D01*
X86203011Y-59470590D01*
X86210110Y-59593715D01*
X86211247Y-59598761D01*
X86211248Y-59598767D01*
X86231119Y-59686939D01*
X86259222Y-59811639D01*
X86343266Y-60018616D01*
X86394019Y-60101438D01*
X86457291Y-60204688D01*
X86459987Y-60209088D01*
X86606250Y-60377938D01*
X86778126Y-60520632D01*
X86848595Y-60561811D01*
X86851445Y-60563476D01*
X86900169Y-60615114D01*
X86913240Y-60684897D01*
X86886509Y-60750669D01*
X86846055Y-60784027D01*
X86833607Y-60790507D01*
X86829474Y-60793610D01*
X86829471Y-60793612D01*
X86805247Y-60811800D01*
X86654965Y-60924635D01*
X86500629Y-61086138D01*
X86374743Y-61270680D01*
X86280688Y-61473305D01*
X86220989Y-61688570D01*
X86197251Y-61910695D01*
X86197548Y-61915848D01*
X86197548Y-61915851D01*
X86203011Y-62010590D01*
X86210110Y-62133715D01*
X86211247Y-62138761D01*
X86211248Y-62138767D01*
X86231119Y-62226939D01*
X86259222Y-62351639D01*
X86343266Y-62558616D01*
X86394019Y-62641438D01*
X86457291Y-62744688D01*
X86459987Y-62749088D01*
X86606250Y-62917938D01*
X86778126Y-63060632D01*
X86848595Y-63101811D01*
X86851445Y-63103476D01*
X86900169Y-63155114D01*
X86913240Y-63224897D01*
X86886509Y-63290669D01*
X86846055Y-63324027D01*
X86833607Y-63330507D01*
X86829474Y-63333610D01*
X86829471Y-63333612D01*
X86805247Y-63351800D01*
X86654965Y-63464635D01*
X86500629Y-63626138D01*
X86374743Y-63810680D01*
X86280688Y-64013305D01*
X86220989Y-64228570D01*
X86197251Y-64450695D01*
X86197548Y-64455848D01*
X86197548Y-64455851D01*
X86203011Y-64550590D01*
X86210110Y-64673715D01*
X86211247Y-64678761D01*
X86211248Y-64678767D01*
X86231119Y-64766939D01*
X86259222Y-64891639D01*
X86343266Y-65098616D01*
X86394019Y-65181438D01*
X86457291Y-65284688D01*
X86459987Y-65289088D01*
X86606250Y-65457938D01*
X86778126Y-65600632D01*
X86848595Y-65641811D01*
X86851445Y-65643476D01*
X86900169Y-65695114D01*
X86913240Y-65764897D01*
X86886509Y-65830669D01*
X86846055Y-65864027D01*
X86833607Y-65870507D01*
X86829474Y-65873610D01*
X86829471Y-65873612D01*
X86805247Y-65891800D01*
X86654965Y-66004635D01*
X86500629Y-66166138D01*
X86374743Y-66350680D01*
X86280688Y-66553305D01*
X86220989Y-66768570D01*
X86197251Y-66990695D01*
X82890418Y-66990695D01*
X82874852Y-66801361D01*
X82820431Y-66584702D01*
X82731354Y-66379840D01*
X82610014Y-66192277D01*
X82459670Y-66027051D01*
X82455619Y-66023852D01*
X82455615Y-66023848D01*
X82288414Y-65891800D01*
X82288410Y-65891798D01*
X82284359Y-65888598D01*
X82243053Y-65865796D01*
X82193084Y-65815364D01*
X82178312Y-65745921D01*
X82203428Y-65679516D01*
X82230780Y-65652909D01*
X82274603Y-65621650D01*
X82409860Y-65525173D01*
X82568096Y-65367489D01*
X82627594Y-65284689D01*
X82695435Y-65190277D01*
X82698453Y-65186077D01*
X82719320Y-65143857D01*
X82795136Y-64990453D01*
X82795137Y-64990451D01*
X82797430Y-64985811D01*
X82862370Y-64772069D01*
X82891529Y-64550590D01*
X82893156Y-64484000D01*
X82874852Y-64261361D01*
X82820431Y-64044702D01*
X82731354Y-63839840D01*
X82610014Y-63652277D01*
X82459670Y-63487051D01*
X82455619Y-63483852D01*
X82455615Y-63483848D01*
X82288414Y-63351800D01*
X82288410Y-63351798D01*
X82284359Y-63348598D01*
X82243053Y-63325796D01*
X82193084Y-63275364D01*
X82178312Y-63205921D01*
X82203428Y-63139516D01*
X82230780Y-63112909D01*
X82274603Y-63081650D01*
X82409860Y-62985173D01*
X82568096Y-62827489D01*
X82627594Y-62744689D01*
X82695435Y-62650277D01*
X82698453Y-62646077D01*
X82719320Y-62603857D01*
X82795136Y-62450453D01*
X82795137Y-62450451D01*
X82797430Y-62445811D01*
X82862370Y-62232069D01*
X82891529Y-62010590D01*
X82893156Y-61944000D01*
X82874852Y-61721361D01*
X82820431Y-61504702D01*
X82731354Y-61299840D01*
X82610014Y-61112277D01*
X82459670Y-60947051D01*
X82455619Y-60943852D01*
X82455615Y-60943848D01*
X82288414Y-60811800D01*
X82288410Y-60811798D01*
X82284359Y-60808598D01*
X82243053Y-60785796D01*
X82193084Y-60735364D01*
X82178312Y-60665921D01*
X82203428Y-60599516D01*
X82230780Y-60572909D01*
X82274603Y-60541650D01*
X82409860Y-60445173D01*
X82568096Y-60287489D01*
X82627594Y-60204689D01*
X82695435Y-60110277D01*
X82698453Y-60106077D01*
X82719320Y-60063857D01*
X82795136Y-59910453D01*
X82795137Y-59910451D01*
X82797430Y-59905811D01*
X82862370Y-59692069D01*
X82891529Y-59470590D01*
X82893156Y-59404000D01*
X82874852Y-59181361D01*
X82820431Y-58964702D01*
X82731354Y-58759840D01*
X82610014Y-58572277D01*
X82459670Y-58407051D01*
X82455619Y-58403852D01*
X82455615Y-58403848D01*
X82288414Y-58271800D01*
X82288410Y-58271798D01*
X82284359Y-58268598D01*
X82088789Y-58160638D01*
X82083920Y-58158914D01*
X82083916Y-58158912D01*
X81883087Y-58087795D01*
X81883083Y-58087794D01*
X81878212Y-58086069D01*
X81873119Y-58085162D01*
X81873116Y-58085161D01*
X81663373Y-58047800D01*
X81663367Y-58047799D01*
X81658284Y-58046894D01*
X81584452Y-58045992D01*
X81440081Y-58044228D01*
X81440079Y-58044228D01*
X81434911Y-58044165D01*
X81214091Y-58077955D01*
X81001756Y-58147357D01*
X80803607Y-58250507D01*
X80799474Y-58253610D01*
X80799471Y-58253612D01*
X80775247Y-58271800D01*
X80624965Y-58384635D01*
X80470629Y-58546138D01*
X80344743Y-58730680D01*
X80250688Y-58933305D01*
X80190989Y-59148570D01*
X80167251Y-59370695D01*
X80167548Y-59375848D01*
X80167548Y-59375851D01*
X80173011Y-59470590D01*
X80180110Y-59593715D01*
X80181247Y-59598761D01*
X80181248Y-59598767D01*
X80201119Y-59686939D01*
X80229222Y-59811639D01*
X80313266Y-60018616D01*
X80364019Y-60101438D01*
X80427291Y-60204688D01*
X80429987Y-60209088D01*
X80576250Y-60377938D01*
X80748126Y-60520632D01*
X80818595Y-60561811D01*
X80821445Y-60563476D01*
X80870169Y-60615114D01*
X80883240Y-60684897D01*
X80856509Y-60750669D01*
X80816055Y-60784027D01*
X80803607Y-60790507D01*
X80799474Y-60793610D01*
X80799471Y-60793612D01*
X80775247Y-60811800D01*
X80624965Y-60924635D01*
X80470629Y-61086138D01*
X80344743Y-61270680D01*
X80250688Y-61473305D01*
X80190989Y-61688570D01*
X80167251Y-61910695D01*
X80167548Y-61915848D01*
X80167548Y-61915851D01*
X80173011Y-62010590D01*
X80180110Y-62133715D01*
X80181247Y-62138761D01*
X80181248Y-62138767D01*
X80201119Y-62226939D01*
X80229222Y-62351639D01*
X80313266Y-62558616D01*
X80364019Y-62641438D01*
X80427291Y-62744688D01*
X80429987Y-62749088D01*
X80576250Y-62917938D01*
X80748126Y-63060632D01*
X80818595Y-63101811D01*
X80821445Y-63103476D01*
X80870169Y-63155114D01*
X80883240Y-63224897D01*
X80856509Y-63290669D01*
X80816055Y-63324027D01*
X80803607Y-63330507D01*
X80799474Y-63333610D01*
X80799471Y-63333612D01*
X80775247Y-63351800D01*
X80624965Y-63464635D01*
X80470629Y-63626138D01*
X80344743Y-63810680D01*
X80250688Y-64013305D01*
X80190989Y-64228570D01*
X80167251Y-64450695D01*
X80167548Y-64455848D01*
X80167548Y-64455851D01*
X80173011Y-64550590D01*
X80180110Y-64673715D01*
X80181247Y-64678761D01*
X80181248Y-64678767D01*
X80201119Y-64766939D01*
X80229222Y-64891639D01*
X80313266Y-65098616D01*
X80364019Y-65181438D01*
X80427291Y-65284688D01*
X80429987Y-65289088D01*
X80576250Y-65457938D01*
X80748126Y-65600632D01*
X80818595Y-65641811D01*
X80821445Y-65643476D01*
X80870169Y-65695114D01*
X80883240Y-65764897D01*
X80856509Y-65830669D01*
X80816055Y-65864027D01*
X80803607Y-65870507D01*
X80799474Y-65873610D01*
X80799471Y-65873612D01*
X80775247Y-65891800D01*
X80624965Y-66004635D01*
X80470629Y-66166138D01*
X80344743Y-66350680D01*
X80250688Y-66553305D01*
X80190989Y-66768570D01*
X80167251Y-66990695D01*
X80167548Y-66995848D01*
X80167548Y-66995851D01*
X80173011Y-67090590D01*
X80180110Y-67213715D01*
X80181247Y-67218761D01*
X80181248Y-67218767D01*
X80201119Y-67306939D01*
X80229222Y-67431639D01*
X80313266Y-67638616D01*
X80364019Y-67721438D01*
X80427291Y-67824688D01*
X80429987Y-67829088D01*
X80576250Y-67997938D01*
X80652846Y-68061529D01*
X80740255Y-68134097D01*
X80748126Y-68140632D01*
X80941000Y-68253338D01*
X81149692Y-68333030D01*
X81154760Y-68334061D01*
X81154763Y-68334062D01*
X81262017Y-68355883D01*
X81368597Y-68377567D01*
X81373772Y-68377757D01*
X81373774Y-68377757D01*
X81558043Y-68384514D01*
X81625385Y-68406999D01*
X81642521Y-68421334D01*
X82034595Y-68813408D01*
X82068621Y-68875720D01*
X82071500Y-68902503D01*
X82071500Y-75699500D01*
X82051498Y-75767621D01*
X81997842Y-75814114D01*
X81945500Y-75825500D01*
X80631866Y-75825500D01*
X80569684Y-75832255D01*
X80433295Y-75883385D01*
X80316739Y-75970739D01*
X80229385Y-76087295D01*
X80178255Y-76223684D01*
X80171500Y-76285866D01*
X80171500Y-77205497D01*
X80151498Y-77273618D01*
X80134595Y-77294592D01*
X79485168Y-77944019D01*
X79470135Y-77956860D01*
X79458747Y-77965134D01*
X79454327Y-77970043D01*
X79412984Y-78015959D01*
X79408443Y-78020744D01*
X79393928Y-78035259D01*
X79391852Y-78037823D01*
X79381006Y-78051216D01*
X79376722Y-78056231D01*
X79335381Y-78102145D01*
X79335377Y-78102150D01*
X79330960Y-78107056D01*
X79327660Y-78112772D01*
X79327657Y-78112776D01*
X79323927Y-78119237D01*
X79312727Y-78135533D01*
X79303871Y-78146470D01*
X79272815Y-78207421D01*
X79269667Y-78213218D01*
X79244215Y-78257303D01*
X79235473Y-78272444D01*
X79233432Y-78278726D01*
X79233431Y-78278728D01*
X79231125Y-78285826D01*
X79223560Y-78304092D01*
X79217171Y-78316630D01*
X79200916Y-78377296D01*
X79199469Y-78382695D01*
X79197600Y-78389003D01*
X79176458Y-78454072D01*
X79175768Y-78460637D01*
X79175766Y-78460646D01*
X79174985Y-78468075D01*
X79171383Y-78487509D01*
X79169904Y-78493030D01*
X79167743Y-78501097D01*
X79167398Y-78507688D01*
X79167397Y-78507692D01*
X79164164Y-78569384D01*
X79163647Y-78575958D01*
X79163285Y-78579405D01*
X79161500Y-78596390D01*
X79161500Y-78616926D01*
X79161327Y-78623520D01*
X79158970Y-78668500D01*
X79157748Y-78691810D01*
X79158780Y-78698325D01*
X79159949Y-78705705D01*
X79161500Y-78725417D01*
X79161500Y-86808583D01*
X79159949Y-86828292D01*
X79157748Y-86842190D01*
X77958500Y-86842190D01*
X77958500Y-52204500D01*
X77978502Y-52136379D01*
X78032158Y-52089886D01*
X78084500Y-52078500D01*
X176815500Y-52078500D01*
X176883621Y-52098502D01*
G37*
%TD.AperFunction*%
%TD*%
M02*
