%TF.GenerationSoftware,KiCad,Pcbnew,(7.0.0)*%
%TF.CreationDate,2023-07-04T10:09:35-04:00*%
%TF.ProjectId,merp,6d657270-2e6b-4696-9361-645f70636258,rev?*%
%TF.SameCoordinates,Original*%
%TF.FileFunction,Copper,L2,Bot*%
%TF.FilePolarity,Positive*%
%FSLAX46Y46*%
G04 Gerber Fmt 4.6, Leading zero omitted, Abs format (unit mm)*
G04 Created by KiCad (PCBNEW (7.0.0)) date 2023-07-04 10:09:35*
%MOMM*%
%LPD*%
G01*
G04 APERTURE LIST*
G04 Aperture macros list*
%AMRoundRect*
0 Rectangle with rounded corners*
0 $1 Rounding radius*
0 $2 $3 $4 $5 $6 $7 $8 $9 X,Y pos of 4 corners*
0 Add a 4 corners polygon primitive as box body*
4,1,4,$2,$3,$4,$5,$6,$7,$8,$9,$2,$3,0*
0 Add four circle primitives for the rounded corners*
1,1,$1+$1,$2,$3*
1,1,$1+$1,$4,$5*
1,1,$1+$1,$6,$7*
1,1,$1+$1,$8,$9*
0 Add four rect primitives between the rounded corners*
20,1,$1+$1,$2,$3,$4,$5,0*
20,1,$1+$1,$4,$5,$6,$7,0*
20,1,$1+$1,$6,$7,$8,$9,0*
20,1,$1+$1,$8,$9,$2,$3,0*%
G04 Aperture macros list end*
%TA.AperFunction,ComponentPad*%
%ADD10C,1.600000*%
%TD*%
%TA.AperFunction,ComponentPad*%
%ADD11O,1.600000X1.600000*%
%TD*%
%TA.AperFunction,ComponentPad*%
%ADD12RoundRect,0.250000X0.600000X0.600000X-0.600000X0.600000X-0.600000X-0.600000X0.600000X-0.600000X0*%
%TD*%
%TA.AperFunction,ComponentPad*%
%ADD13C,1.700000*%
%TD*%
%TA.AperFunction,ComponentPad*%
%ADD14R,1.600000X1.600000*%
%TD*%
%TA.AperFunction,ComponentPad*%
%ADD15R,1.700000X1.700000*%
%TD*%
%TA.AperFunction,ComponentPad*%
%ADD16O,1.700000X1.700000*%
%TD*%
%TA.AperFunction,ComponentPad*%
%ADD17C,5.600000*%
%TD*%
%TA.AperFunction,ComponentPad*%
%ADD18R,1.800000X1.800000*%
%TD*%
%TA.AperFunction,ComponentPad*%
%ADD19C,1.800000*%
%TD*%
%TA.AperFunction,Conductor*%
%ADD20C,0.800000*%
%TD*%
G04 APERTURE END LIST*
D10*
%TO.P,R2,1*%
%TO.N,Net-(D2-Pad2)*%
X146620000Y-89820000D03*
D11*
%TO.P,R2,2*%
%TO.N,+12V*%
X138999999Y-89819999D03*
%TD*%
D12*
%TO.P,J2,1,Pin_1*%
%TO.N,-12V*%
X104556500Y-77184000D03*
D13*
%TO.P,J2,2,Pin_2*%
X102016500Y-77184000D03*
%TO.P,J2,3,Pin_3*%
%TO.N,GND*%
X104556500Y-74644000D03*
%TO.P,J2,4,Pin_4*%
X102016500Y-74644000D03*
%TO.P,J2,5,Pin_5*%
X104556500Y-72104000D03*
%TO.P,J2,6,Pin_6*%
X102016500Y-72104000D03*
%TO.P,J2,7,Pin_7*%
X104556500Y-69564000D03*
%TO.P,J2,8,Pin_8*%
X102016500Y-69564000D03*
%TO.P,J2,9,Pin_9*%
%TO.N,+12V*%
X104556500Y-67024000D03*
%TO.P,J2,10,Pin_10*%
X102016500Y-67024000D03*
%TO.P,J2,11,Pin_11*%
%TO.N,+5V*%
X104556500Y-64484000D03*
%TO.P,J2,12,Pin_12*%
X102016500Y-64484000D03*
%TO.P,J2,13,Pin_13*%
%TO.N,CV*%
X104556500Y-61944000D03*
%TO.P,J2,14,Pin_14*%
X102016500Y-61944000D03*
%TO.P,J2,15,Pin_15*%
%TO.N,GATE*%
X104556500Y-59404000D03*
%TO.P,J2,16,Pin_16*%
X102016500Y-59404000D03*
%TD*%
D14*
%TO.P,C3,1*%
%TO.N,GND*%
X118176499Y-88427348D03*
D10*
%TO.P,C3,2*%
%TO.N,-12V*%
X118176500Y-91927349D03*
%TD*%
D15*
%TO.P,J10,1,Pin_1*%
%TO.N,Net-(D3-Pad1)*%
X166139999Y-92909999D03*
D16*
%TO.P,J10,2,Pin_2*%
%TO.N,GND*%
X168679999Y-92909999D03*
%TD*%
D12*
%TO.P,J1,1,Pin_1*%
%TO.N,-12V*%
X90100000Y-77184000D03*
D13*
%TO.P,J1,2,Pin_2*%
X87560000Y-77184000D03*
%TO.P,J1,3,Pin_3*%
%TO.N,GND*%
X90100000Y-74644000D03*
%TO.P,J1,4,Pin_4*%
X87560000Y-74644000D03*
%TO.P,J1,5,Pin_5*%
X90100000Y-72104000D03*
%TO.P,J1,6,Pin_6*%
X87560000Y-72104000D03*
%TO.P,J1,7,Pin_7*%
X90100000Y-69564000D03*
%TO.P,J1,8,Pin_8*%
X87560000Y-69564000D03*
%TO.P,J1,9,Pin_9*%
%TO.N,+12V*%
X90100000Y-67024000D03*
%TO.P,J1,10,Pin_10*%
X87560000Y-67024000D03*
%TO.P,J1,11,Pin_11*%
%TO.N,+5V*%
X90100000Y-64484000D03*
%TO.P,J1,12,Pin_12*%
X87560000Y-64484000D03*
%TO.P,J1,13,Pin_13*%
%TO.N,CV*%
X90100000Y-61944000D03*
%TO.P,J1,14,Pin_14*%
X87560000Y-61944000D03*
%TO.P,J1,15,Pin_15*%
%TO.N,GATE*%
X90100000Y-59404000D03*
%TO.P,J1,16,Pin_16*%
X87560000Y-59404000D03*
%TD*%
D15*
%TO.P,J9,1,Pin_1*%
%TO.N,GND*%
X159879999Y-92909999D03*
D16*
%TO.P,J9,2,Pin_2*%
%TO.N,Net-(D2-Pad2)*%
X162419999Y-92909999D03*
%TD*%
D17*
%TO.P,H3,1,1*%
%TO.N,GND*%
X80518000Y-54610000D03*
%TD*%
D14*
%TO.P,C2,1*%
%TO.N,+12V*%
X103719999Y-88427348D03*
D10*
%TO.P,C2,2*%
%TO.N,GND*%
X103720000Y-91927349D03*
%TD*%
D12*
%TO.P,J4,1,Pin_1*%
%TO.N,-12V*%
X133469500Y-77184000D03*
D13*
%TO.P,J4,2,Pin_2*%
X130929500Y-77184000D03*
%TO.P,J4,3,Pin_3*%
%TO.N,GND*%
X133469500Y-74644000D03*
%TO.P,J4,4,Pin_4*%
X130929500Y-74644000D03*
%TO.P,J4,5,Pin_5*%
X133469500Y-72104000D03*
%TO.P,J4,6,Pin_6*%
X130929500Y-72104000D03*
%TO.P,J4,7,Pin_7*%
X133469500Y-69564000D03*
%TO.P,J4,8,Pin_8*%
X130929500Y-69564000D03*
%TO.P,J4,9,Pin_9*%
%TO.N,+12V*%
X133469500Y-67024000D03*
%TO.P,J4,10,Pin_10*%
X130929500Y-67024000D03*
%TO.P,J4,11,Pin_11*%
%TO.N,+5V*%
X133469500Y-64484000D03*
%TO.P,J4,12,Pin_12*%
X130929500Y-64484000D03*
%TO.P,J4,13,Pin_13*%
%TO.N,CV*%
X133469500Y-61944000D03*
%TO.P,J4,14,Pin_14*%
X130929500Y-61944000D03*
%TO.P,J4,15,Pin_15*%
%TO.N,GATE*%
X133469500Y-59404000D03*
%TO.P,J4,16,Pin_16*%
X130929500Y-59404000D03*
%TD*%
D14*
%TO.P,C1,1*%
%TO.N,+5V*%
X89263499Y-88427348D03*
D10*
%TO.P,C1,2*%
%TO.N,GND*%
X89263500Y-91927349D03*
%TD*%
D12*
%TO.P,J3,1,Pin_1*%
%TO.N,-12V*%
X119013000Y-77184000D03*
D13*
%TO.P,J3,2,Pin_2*%
X116473000Y-77184000D03*
%TO.P,J3,3,Pin_3*%
%TO.N,GND*%
X119013000Y-74644000D03*
%TO.P,J3,4,Pin_4*%
X116473000Y-74644000D03*
%TO.P,J3,5,Pin_5*%
X119013000Y-72104000D03*
%TO.P,J3,6,Pin_6*%
X116473000Y-72104000D03*
%TO.P,J3,7,Pin_7*%
X119013000Y-69564000D03*
%TO.P,J3,8,Pin_8*%
X116473000Y-69564000D03*
%TO.P,J3,9,Pin_9*%
%TO.N,+12V*%
X119013000Y-67024000D03*
%TO.P,J3,10,Pin_10*%
X116473000Y-67024000D03*
%TO.P,J3,11,Pin_11*%
%TO.N,+5V*%
X119013000Y-64484000D03*
%TO.P,J3,12,Pin_12*%
X116473000Y-64484000D03*
%TO.P,J3,13,Pin_13*%
%TO.N,CV*%
X119013000Y-61944000D03*
%TO.P,J3,14,Pin_14*%
X116473000Y-61944000D03*
%TO.P,J3,15,Pin_15*%
%TO.N,GATE*%
X119013000Y-59404000D03*
%TO.P,J3,16,Pin_16*%
X116473000Y-59404000D03*
%TD*%
D18*
%TO.P,D3,1,K*%
%TO.N,Net-(D3-Pad1)*%
X166139999Y-87209999D03*
D19*
%TO.P,D3,2,A*%
%TO.N,GND*%
X168680000Y-87210000D03*
%TD*%
D10*
%TO.P,R3,1*%
%TO.N,Net-(D3-Pad1)*%
X146620000Y-93560001D03*
D11*
%TO.P,R3,2*%
%TO.N,-12V*%
X138999999Y-93560000D03*
%TD*%
D17*
%TO.P,H2,1,1*%
%TO.N,GND*%
X174244000Y-55118000D03*
%TD*%
D18*
%TO.P,D1,1,K*%
%TO.N,GND*%
X153619999Y-87209999D03*
D19*
%TO.P,D1,2,A*%
%TO.N,Net-(D1-Pad2)*%
X156160000Y-87210000D03*
%TD*%
D15*
%TO.P,J8,1,Pin_1*%
%TO.N,GND*%
X153619999Y-92909999D03*
D16*
%TO.P,J8,2,Pin_2*%
%TO.N,Net-(D1-Pad2)*%
X156159999Y-92909999D03*
%TD*%
D18*
%TO.P,D2,1,K*%
%TO.N,GND*%
X159879999Y-87209999D03*
D19*
%TO.P,D2,2,A*%
%TO.N,Net-(D2-Pad2)*%
X162420000Y-87210000D03*
%TD*%
D17*
%TO.P,H1,1,1*%
%TO.N,GND*%
X174140000Y-93400000D03*
%TD*%
D10*
%TO.P,R1,1*%
%TO.N,Net-(D1-Pad2)*%
X146620000Y-86080000D03*
D11*
%TO.P,R1,2*%
%TO.N,+5V*%
X138999999Y-86079999D03*
%TD*%
D12*
%TO.P,J5,1,Pin_1*%
%TO.N,-12V*%
X147926000Y-77184000D03*
D13*
%TO.P,J5,2,Pin_2*%
X145386000Y-77184000D03*
%TO.P,J5,3,Pin_3*%
%TO.N,GND*%
X147926000Y-74644000D03*
%TO.P,J5,4,Pin_4*%
X145386000Y-74644000D03*
%TO.P,J5,5,Pin_5*%
X147926000Y-72104000D03*
%TO.P,J5,6,Pin_6*%
X145386000Y-72104000D03*
%TO.P,J5,7,Pin_7*%
X147926000Y-69564000D03*
%TO.P,J5,8,Pin_8*%
X145386000Y-69564000D03*
%TO.P,J5,9,Pin_9*%
%TO.N,+12V*%
X147926000Y-67024000D03*
%TO.P,J5,10,Pin_10*%
X145386000Y-67024000D03*
%TO.P,J5,11,Pin_11*%
%TO.N,+5V*%
X147926000Y-64484000D03*
%TO.P,J5,12,Pin_12*%
X145386000Y-64484000D03*
%TO.P,J5,13,Pin_13*%
%TO.N,CV*%
X147926000Y-61944000D03*
%TO.P,J5,14,Pin_14*%
X145386000Y-61944000D03*
%TO.P,J5,15,Pin_15*%
%TO.N,GATE*%
X147926000Y-59404000D03*
%TO.P,J5,16,Pin_16*%
X145386000Y-59404000D03*
%TD*%
D17*
%TO.P,H4,1,1*%
%TO.N,GND*%
X80518000Y-93400000D03*
%TD*%
D12*
%TO.P,J11,1,Pin_1*%
%TO.N,-12V*%
X162382500Y-77184000D03*
D13*
%TO.P,J11,2,Pin_2*%
X159842500Y-77184000D03*
%TO.P,J11,3,Pin_3*%
%TO.N,GND*%
X162382500Y-74644000D03*
%TO.P,J11,4,Pin_4*%
X159842500Y-74644000D03*
%TO.P,J11,5,Pin_5*%
X162382500Y-72104000D03*
%TO.P,J11,6,Pin_6*%
X159842500Y-72104000D03*
%TO.P,J11,7,Pin_7*%
X162382500Y-69564000D03*
%TO.P,J11,8,Pin_8*%
X159842500Y-69564000D03*
%TO.P,J11,9,Pin_9*%
%TO.N,+12V*%
X162382500Y-67024000D03*
%TO.P,J11,10,Pin_10*%
X159842500Y-67024000D03*
%TO.P,J11,11,Pin_11*%
%TO.N,+5V*%
X162382500Y-64484000D03*
%TO.P,J11,12,Pin_12*%
X159842500Y-64484000D03*
%TO.P,J11,13,Pin_13*%
%TO.N,CV*%
X162382500Y-61944000D03*
%TO.P,J11,14,Pin_14*%
X159842500Y-61944000D03*
%TO.P,J11,15,Pin_15*%
%TO.N,GATE*%
X162382500Y-59404000D03*
%TO.P,J11,16,Pin_16*%
X159842500Y-59404000D03*
%TD*%
D15*
%TO.P,J12,1,Pin_1*%
%TO.N,-12V*%
X81529999Y-88349999D03*
D16*
%TO.P,J12,2,Pin_2*%
%TO.N,GND*%
X81529999Y-85809999D03*
%TO.P,J12,3,Pin_3*%
%TO.N,+12V*%
X81529999Y-83269999D03*
%TO.P,J12,4,Pin_4*%
%TO.N,+5V*%
X81529999Y-80729999D03*
%TD*%
D15*
%TO.P,J6,1,-12V*%
%TO.N,-12V*%
X81529999Y-77183999D03*
D16*
%TO.P,J6,2,GND*%
%TO.N,GND*%
X81529999Y-74643999D03*
%TO.P,J6,3,GND*%
X81529999Y-72103999D03*
%TO.P,J6,4,GND*%
X81529999Y-69563999D03*
%TO.P,J6,5,+12V*%
%TO.N,+12V*%
X81529999Y-67023999D03*
%TO.P,J6,6,+5V*%
%TO.N,+5V*%
X81529999Y-64483999D03*
%TO.P,J6,7,CV*%
%TO.N,CV*%
X81529999Y-61943999D03*
%TO.P,J6,8,Gate*%
%TO.N,GATE*%
X81529999Y-59403999D03*
%TD*%
D15*
%TO.P,J7,1,-12V*%
%TO.N,-12V*%
X167054999Y-77183999D03*
D16*
%TO.P,J7,2,GND*%
%TO.N,GND*%
X167054999Y-74643999D03*
%TO.P,J7,3,GND*%
X167054999Y-72103999D03*
%TO.P,J7,4,GND*%
X167054999Y-69563999D03*
%TO.P,J7,5,+12V*%
%TO.N,+12V*%
X167054999Y-67023999D03*
%TO.P,J7,6,+5V*%
%TO.N,+5V*%
X167054999Y-64483999D03*
%TO.P,J7,7,CV*%
%TO.N,CV*%
X167054999Y-61943999D03*
%TO.P,J7,8,Gate*%
%TO.N,GATE*%
X167054999Y-59403999D03*
%TD*%
D20*
%TO.N,+12V*%
X82980000Y-81820000D02*
X82980000Y-68474000D01*
X81530000Y-83270000D02*
X82980000Y-81820000D01*
X82980000Y-68474000D02*
X81530000Y-67024000D01*
%TO.N,-12V*%
X81530000Y-88350000D02*
X80070000Y-86890000D01*
X80070000Y-86890000D02*
X80070000Y-78644000D01*
X80070000Y-78644000D02*
X81530000Y-77184000D01*
%TD*%
%TA.AperFunction,Conductor*%
%TO.N,GND*%
G36*
X177274696Y-51679912D02*
G01*
X177337483Y-51696720D01*
X177383538Y-51742585D01*
X177400607Y-51805301D01*
X177449499Y-61885794D01*
X177449500Y-61886405D01*
X177449500Y-96913584D01*
X177432590Y-96976635D01*
X177386398Y-97022762D01*
X177323324Y-97039584D01*
X77666018Y-96900176D01*
X77603036Y-96883204D01*
X77556981Y-96837013D01*
X77540194Y-96773983D01*
X77545162Y-93560001D01*
X137686502Y-93560001D01*
X137686981Y-93565476D01*
X137702885Y-93747268D01*
X137706457Y-93788088D01*
X137765716Y-94009244D01*
X137768038Y-94014224D01*
X137768039Y-94014226D01*
X137857226Y-94205489D01*
X137862477Y-94216750D01*
X137865630Y-94221253D01*
X137865633Y-94221258D01*
X137894743Y-94262831D01*
X137993802Y-94404301D01*
X138155700Y-94566199D01*
X138343251Y-94697524D01*
X138550757Y-94794285D01*
X138771913Y-94853544D01*
X139000000Y-94873499D01*
X139228087Y-94853544D01*
X139449243Y-94794285D01*
X139656749Y-94697524D01*
X139844300Y-94566199D01*
X140006198Y-94404301D01*
X140137523Y-94216750D01*
X140234284Y-94009244D01*
X140293543Y-93788088D01*
X140313498Y-93560001D01*
X145306502Y-93560001D01*
X145306981Y-93565476D01*
X145322885Y-93747268D01*
X145326457Y-93788088D01*
X145385716Y-94009244D01*
X145388038Y-94014224D01*
X145388039Y-94014226D01*
X145477226Y-94205489D01*
X145482477Y-94216750D01*
X145485630Y-94221253D01*
X145485633Y-94221258D01*
X145514743Y-94262831D01*
X145613802Y-94404301D01*
X145775700Y-94566199D01*
X145963251Y-94697524D01*
X146170757Y-94794285D01*
X146391913Y-94853544D01*
X146620000Y-94873499D01*
X146848087Y-94853544D01*
X147069243Y-94794285D01*
X147276749Y-94697524D01*
X147464300Y-94566199D01*
X147626198Y-94404301D01*
X147757523Y-94216750D01*
X147854284Y-94009244D01*
X147913543Y-93788088D01*
X147933498Y-93560001D01*
X147913543Y-93331914D01*
X147854284Y-93110758D01*
X147760670Y-92910000D01*
X154796844Y-92910000D01*
X154797274Y-92915189D01*
X154813919Y-93116068D01*
X154815436Y-93134368D01*
X154822701Y-93163055D01*
X154865461Y-93331914D01*
X154870704Y-93352616D01*
X154961140Y-93558791D01*
X155084278Y-93747268D01*
X155087806Y-93751100D01*
X155233227Y-93909069D01*
X155233231Y-93909073D01*
X155236760Y-93912906D01*
X155414424Y-94051189D01*
X155612426Y-94158342D01*
X155617355Y-94160034D01*
X155617357Y-94160035D01*
X155718895Y-94194892D01*
X155825365Y-94231444D01*
X156047431Y-94268500D01*
X156267358Y-94268500D01*
X156272569Y-94268500D01*
X156494635Y-94231444D01*
X156707574Y-94158342D01*
X156905576Y-94051189D01*
X157083240Y-93912906D01*
X157235722Y-93747268D01*
X157358860Y-93558791D01*
X157449296Y-93352616D01*
X157504564Y-93134368D01*
X157523156Y-92910000D01*
X161056844Y-92910000D01*
X161057274Y-92915189D01*
X161073919Y-93116068D01*
X161075436Y-93134368D01*
X161082701Y-93163055D01*
X161125461Y-93331914D01*
X161130704Y-93352616D01*
X161221140Y-93558791D01*
X161344278Y-93747268D01*
X161347806Y-93751100D01*
X161493227Y-93909069D01*
X161493231Y-93909073D01*
X161496760Y-93912906D01*
X161674424Y-94051189D01*
X161872426Y-94158342D01*
X161877355Y-94160034D01*
X161877357Y-94160035D01*
X161978895Y-94194892D01*
X162085365Y-94231444D01*
X162307431Y-94268500D01*
X162527358Y-94268500D01*
X162532569Y-94268500D01*
X162754635Y-94231444D01*
X162967574Y-94158342D01*
X163165576Y-94051189D01*
X163343240Y-93912906D01*
X163439226Y-93808638D01*
X164781500Y-93808638D01*
X164781859Y-93811985D01*
X164781860Y-93811988D01*
X164787168Y-93861367D01*
X164787169Y-93861373D01*
X164788011Y-93869201D01*
X164790762Y-93876578D01*
X164790763Y-93876580D01*
X164835962Y-93997763D01*
X164835964Y-93997766D01*
X164839111Y-94006204D01*
X164844508Y-94013414D01*
X164844510Y-94013417D01*
X164845116Y-94014226D01*
X164926739Y-94123261D01*
X165043796Y-94210889D01*
X165180799Y-94261989D01*
X165241362Y-94268500D01*
X167035269Y-94268500D01*
X167038638Y-94268500D01*
X167099201Y-94261989D01*
X167236204Y-94210889D01*
X167353261Y-94123261D01*
X167440889Y-94006204D01*
X167491989Y-93869201D01*
X167498500Y-93808638D01*
X167498500Y-92011362D01*
X167491989Y-91950799D01*
X167440889Y-91813796D01*
X167353261Y-91696739D01*
X167309713Y-91664139D01*
X167243417Y-91614510D01*
X167243414Y-91614508D01*
X167236204Y-91609111D01*
X167227766Y-91605964D01*
X167227763Y-91605962D01*
X167106580Y-91560763D01*
X167106578Y-91560762D01*
X167099201Y-91558011D01*
X167091373Y-91557169D01*
X167091367Y-91557168D01*
X167041988Y-91551860D01*
X167041985Y-91551859D01*
X167038638Y-91551500D01*
X165241362Y-91551500D01*
X165238015Y-91551859D01*
X165238011Y-91551860D01*
X165188632Y-91557168D01*
X165188625Y-91557169D01*
X165180799Y-91558011D01*
X165173423Y-91560761D01*
X165173419Y-91560763D01*
X165052236Y-91605962D01*
X165052230Y-91605965D01*
X165043796Y-91609111D01*
X165036588Y-91614506D01*
X165036582Y-91614510D01*
X164933950Y-91691340D01*
X164933946Y-91691343D01*
X164926739Y-91696739D01*
X164921343Y-91703946D01*
X164921340Y-91703950D01*
X164844510Y-91806582D01*
X164844506Y-91806588D01*
X164839111Y-91813796D01*
X164835965Y-91822230D01*
X164835962Y-91822236D01*
X164790763Y-91943419D01*
X164790761Y-91943423D01*
X164788011Y-91950799D01*
X164787169Y-91958625D01*
X164787168Y-91958632D01*
X164781860Y-92008011D01*
X164781500Y-92011362D01*
X164781500Y-93808638D01*
X163439226Y-93808638D01*
X163495722Y-93747268D01*
X163618860Y-93558791D01*
X163709296Y-93352616D01*
X163764564Y-93134368D01*
X163783156Y-92910000D01*
X163764564Y-92685632D01*
X163709296Y-92467384D01*
X163618860Y-92261209D01*
X163495722Y-92072732D01*
X163376680Y-91943419D01*
X163346772Y-91910930D01*
X163346767Y-91910925D01*
X163343240Y-91907094D01*
X163165576Y-91768811D01*
X163160997Y-91766333D01*
X163160994Y-91766331D01*
X162972159Y-91664139D01*
X162972156Y-91664137D01*
X162967574Y-91661658D01*
X162962650Y-91659967D01*
X162962642Y-91659964D01*
X162759565Y-91590248D01*
X162759559Y-91590246D01*
X162754635Y-91588556D01*
X162749498Y-91587698D01*
X162749495Y-91587698D01*
X162537706Y-91552357D01*
X162537703Y-91552356D01*
X162532569Y-91551500D01*
X162307431Y-91551500D01*
X162302297Y-91552356D01*
X162302293Y-91552357D01*
X162090504Y-91587698D01*
X162090498Y-91587699D01*
X162085365Y-91588556D01*
X162080443Y-91590245D01*
X162080434Y-91590248D01*
X161877357Y-91659964D01*
X161877344Y-91659969D01*
X161872426Y-91661658D01*
X161867847Y-91664135D01*
X161867840Y-91664139D01*
X161679005Y-91766331D01*
X161678997Y-91766336D01*
X161674424Y-91768811D01*
X161670313Y-91772010D01*
X161670311Y-91772012D01*
X161500878Y-91903888D01*
X161500872Y-91903893D01*
X161496760Y-91907094D01*
X161493237Y-91910919D01*
X161493227Y-91910930D01*
X161347806Y-92068899D01*
X161347802Y-92068902D01*
X161344278Y-92072732D01*
X161341430Y-92077090D01*
X161341427Y-92077095D01*
X161230435Y-92246982D01*
X161221140Y-92261209D01*
X161219048Y-92265978D01*
X161219046Y-92265982D01*
X161132799Y-92462606D01*
X161132796Y-92462614D01*
X161130704Y-92467384D01*
X161129423Y-92472440D01*
X161129422Y-92472445D01*
X161107833Y-92557700D01*
X161075436Y-92685632D01*
X161075006Y-92690820D01*
X161075005Y-92690827D01*
X161068682Y-92767137D01*
X161056844Y-92910000D01*
X157523156Y-92910000D01*
X157504564Y-92685632D01*
X157449296Y-92467384D01*
X157358860Y-92261209D01*
X157235722Y-92072732D01*
X157116680Y-91943419D01*
X157086772Y-91910930D01*
X157086767Y-91910925D01*
X157083240Y-91907094D01*
X156905576Y-91768811D01*
X156900997Y-91766333D01*
X156900994Y-91766331D01*
X156712159Y-91664139D01*
X156712156Y-91664137D01*
X156707574Y-91661658D01*
X156702650Y-91659967D01*
X156702642Y-91659964D01*
X156499565Y-91590248D01*
X156499559Y-91590246D01*
X156494635Y-91588556D01*
X156489498Y-91587698D01*
X156489495Y-91587698D01*
X156277706Y-91552357D01*
X156277703Y-91552356D01*
X156272569Y-91551500D01*
X156047431Y-91551500D01*
X156042297Y-91552356D01*
X156042293Y-91552357D01*
X155830504Y-91587698D01*
X155830498Y-91587699D01*
X155825365Y-91588556D01*
X155820443Y-91590245D01*
X155820434Y-91590248D01*
X155617357Y-91659964D01*
X155617344Y-91659969D01*
X155612426Y-91661658D01*
X155607847Y-91664135D01*
X155607840Y-91664139D01*
X155419005Y-91766331D01*
X155418997Y-91766336D01*
X155414424Y-91768811D01*
X155410313Y-91772010D01*
X155410311Y-91772012D01*
X155240878Y-91903888D01*
X155240872Y-91903893D01*
X155236760Y-91907094D01*
X155233237Y-91910919D01*
X155233227Y-91910930D01*
X155087806Y-92068899D01*
X155087802Y-92068902D01*
X155084278Y-92072732D01*
X155081430Y-92077090D01*
X155081427Y-92077095D01*
X154970435Y-92246982D01*
X154961140Y-92261209D01*
X154959048Y-92265978D01*
X154959046Y-92265982D01*
X154872799Y-92462606D01*
X154872796Y-92462614D01*
X154870704Y-92467384D01*
X154869423Y-92472440D01*
X154869422Y-92472445D01*
X154847833Y-92557700D01*
X154815436Y-92685632D01*
X154815006Y-92690820D01*
X154815005Y-92690827D01*
X154808682Y-92767137D01*
X154796844Y-92910000D01*
X147760670Y-92910000D01*
X147757523Y-92903252D01*
X147626198Y-92715701D01*
X147464300Y-92553803D01*
X147348109Y-92472445D01*
X147281257Y-92425634D01*
X147281252Y-92425631D01*
X147276749Y-92422478D01*
X147069243Y-92325717D01*
X146848087Y-92266458D01*
X146842611Y-92265978D01*
X146842606Y-92265978D01*
X146625475Y-92246982D01*
X146620000Y-92246503D01*
X146614525Y-92246982D01*
X146397393Y-92265978D01*
X146397386Y-92265979D01*
X146391913Y-92266458D01*
X146386599Y-92267881D01*
X146386598Y-92267882D01*
X146176067Y-92324294D01*
X146176065Y-92324294D01*
X146170757Y-92325717D01*
X146165779Y-92328037D01*
X146165774Y-92328040D01*
X145968238Y-92420152D01*
X145968233Y-92420154D01*
X145963251Y-92422478D01*
X145958752Y-92425628D01*
X145958742Y-92425634D01*
X145780211Y-92550644D01*
X145780208Y-92550646D01*
X145775700Y-92553803D01*
X145771808Y-92557694D01*
X145771802Y-92557700D01*
X145617699Y-92711803D01*
X145617693Y-92711809D01*
X145613802Y-92715701D01*
X145610645Y-92720209D01*
X145610643Y-92720212D01*
X145485633Y-92898743D01*
X145485627Y-92898753D01*
X145482477Y-92903252D01*
X145480153Y-92908234D01*
X145480151Y-92908239D01*
X145388039Y-93105775D01*
X145388036Y-93105780D01*
X145385716Y-93110758D01*
X145384293Y-93116066D01*
X145384293Y-93116068D01*
X145327881Y-93326599D01*
X145326457Y-93331914D01*
X145325978Y-93337387D01*
X145325977Y-93337394D01*
X145307026Y-93554017D01*
X145306502Y-93560001D01*
X140313498Y-93560001D01*
X140293543Y-93331914D01*
X140234284Y-93110758D01*
X140137523Y-92903252D01*
X140006198Y-92715701D01*
X139844300Y-92553803D01*
X139728109Y-92472445D01*
X139661257Y-92425634D01*
X139661252Y-92425631D01*
X139656749Y-92422478D01*
X139449243Y-92325717D01*
X139228087Y-92266458D01*
X139222611Y-92265978D01*
X139222606Y-92265978D01*
X139005475Y-92246982D01*
X139000000Y-92246503D01*
X138994525Y-92246982D01*
X138777393Y-92265978D01*
X138777386Y-92265979D01*
X138771913Y-92266458D01*
X138766599Y-92267881D01*
X138766598Y-92267882D01*
X138556067Y-92324294D01*
X138556065Y-92324294D01*
X138550757Y-92325717D01*
X138545779Y-92328037D01*
X138545774Y-92328040D01*
X138348238Y-92420152D01*
X138348233Y-92420154D01*
X138343251Y-92422478D01*
X138338752Y-92425628D01*
X138338742Y-92425634D01*
X138160211Y-92550644D01*
X138160208Y-92550646D01*
X138155700Y-92553803D01*
X138151808Y-92557694D01*
X138151802Y-92557700D01*
X137997699Y-92711803D01*
X137997693Y-92711809D01*
X137993802Y-92715701D01*
X137990645Y-92720209D01*
X137990643Y-92720212D01*
X137865633Y-92898743D01*
X137865627Y-92898753D01*
X137862477Y-92903252D01*
X137860153Y-92908234D01*
X137860151Y-92908239D01*
X137768039Y-93105775D01*
X137768036Y-93105780D01*
X137765716Y-93110758D01*
X137764293Y-93116066D01*
X137764293Y-93116068D01*
X137707881Y-93326599D01*
X137706457Y-93331914D01*
X137705978Y-93337387D01*
X137705977Y-93337394D01*
X137687026Y-93554017D01*
X137686502Y-93560001D01*
X77545162Y-93560001D01*
X77547685Y-91927349D01*
X116863002Y-91927349D01*
X116882957Y-92155436D01*
X116942216Y-92376592D01*
X116944538Y-92381572D01*
X116944539Y-92381574D01*
X116982325Y-92462606D01*
X117038977Y-92584098D01*
X117042130Y-92588601D01*
X117042133Y-92588606D01*
X117106530Y-92680573D01*
X117170302Y-92771649D01*
X117332200Y-92933547D01*
X117519751Y-93064872D01*
X117727257Y-93161633D01*
X117948413Y-93220892D01*
X118176500Y-93240847D01*
X118404587Y-93220892D01*
X118625743Y-93161633D01*
X118833249Y-93064872D01*
X119020800Y-92933547D01*
X119182698Y-92771649D01*
X119314023Y-92584098D01*
X119410784Y-92376592D01*
X119470043Y-92155436D01*
X119489998Y-91927349D01*
X119470043Y-91699262D01*
X119410784Y-91478106D01*
X119314023Y-91270600D01*
X119182698Y-91083049D01*
X119020800Y-90921151D01*
X118889704Y-90829356D01*
X118837757Y-90792982D01*
X118837752Y-90792979D01*
X118833249Y-90789826D01*
X118625743Y-90693065D01*
X118404587Y-90633806D01*
X118399111Y-90633326D01*
X118399106Y-90633326D01*
X118181975Y-90614330D01*
X118176500Y-90613851D01*
X118171025Y-90614330D01*
X117953893Y-90633326D01*
X117953886Y-90633327D01*
X117948413Y-90633806D01*
X117943099Y-90635229D01*
X117943098Y-90635230D01*
X117732567Y-90691642D01*
X117732565Y-90691642D01*
X117727257Y-90693065D01*
X117722279Y-90695385D01*
X117722274Y-90695388D01*
X117524738Y-90787500D01*
X117524733Y-90787502D01*
X117519751Y-90789826D01*
X117515252Y-90792976D01*
X117515242Y-90792982D01*
X117336711Y-90917992D01*
X117336708Y-90917994D01*
X117332200Y-90921151D01*
X117328308Y-90925042D01*
X117328302Y-90925048D01*
X117174199Y-91079151D01*
X117174193Y-91079157D01*
X117170302Y-91083049D01*
X117167145Y-91087557D01*
X117167143Y-91087560D01*
X117042133Y-91266091D01*
X117042127Y-91266101D01*
X117038977Y-91270600D01*
X117036653Y-91275582D01*
X117036651Y-91275587D01*
X116944539Y-91473123D01*
X116944536Y-91473128D01*
X116942216Y-91478106D01*
X116940793Y-91483414D01*
X116940793Y-91483416D01*
X116922320Y-91552357D01*
X116882957Y-91699262D01*
X116882478Y-91704735D01*
X116882477Y-91704742D01*
X116872198Y-91822236D01*
X116863002Y-91927349D01*
X77547685Y-91927349D01*
X77550942Y-89820000D01*
X137686502Y-89820000D01*
X137706457Y-90048087D01*
X137765716Y-90269243D01*
X137862477Y-90476749D01*
X137865630Y-90481252D01*
X137865633Y-90481257D01*
X137942123Y-90590496D01*
X137993802Y-90664300D01*
X138155700Y-90826198D01*
X138343251Y-90957523D01*
X138550757Y-91054284D01*
X138771913Y-91113543D01*
X139000000Y-91133498D01*
X139228087Y-91113543D01*
X139449243Y-91054284D01*
X139656749Y-90957523D01*
X139844300Y-90826198D01*
X140006198Y-90664300D01*
X140137523Y-90476749D01*
X140234284Y-90269243D01*
X140293543Y-90048087D01*
X140313498Y-89820000D01*
X145306502Y-89820000D01*
X145326457Y-90048087D01*
X145385716Y-90269243D01*
X145482477Y-90476749D01*
X145485630Y-90481252D01*
X145485633Y-90481257D01*
X145562123Y-90590496D01*
X145613802Y-90664300D01*
X145775700Y-90826198D01*
X145963251Y-90957523D01*
X146170757Y-91054284D01*
X146391913Y-91113543D01*
X146620000Y-91133498D01*
X146848087Y-91113543D01*
X147069243Y-91054284D01*
X147276749Y-90957523D01*
X147464300Y-90826198D01*
X147626198Y-90664300D01*
X147757523Y-90476749D01*
X147854284Y-90269243D01*
X147913543Y-90048087D01*
X147933498Y-89820000D01*
X147913543Y-89591913D01*
X147854284Y-89370757D01*
X147757523Y-89163251D01*
X147626198Y-88975700D01*
X147464300Y-88813802D01*
X147390496Y-88762123D01*
X147281257Y-88685633D01*
X147281252Y-88685630D01*
X147276749Y-88682477D01*
X147069243Y-88585716D01*
X146848087Y-88526457D01*
X146842611Y-88525977D01*
X146842606Y-88525977D01*
X146625475Y-88506981D01*
X146620000Y-88506502D01*
X146614525Y-88506981D01*
X146397393Y-88525977D01*
X146397386Y-88525978D01*
X146391913Y-88526457D01*
X146386599Y-88527880D01*
X146386598Y-88527881D01*
X146176067Y-88584293D01*
X146176065Y-88584293D01*
X146170757Y-88585716D01*
X146165779Y-88588036D01*
X146165774Y-88588039D01*
X145968238Y-88680151D01*
X145968233Y-88680153D01*
X145963251Y-88682477D01*
X145958752Y-88685627D01*
X145958742Y-88685633D01*
X145780211Y-88810643D01*
X145780208Y-88810645D01*
X145775700Y-88813802D01*
X145771808Y-88817693D01*
X145771802Y-88817699D01*
X145617699Y-88971802D01*
X145617693Y-88971808D01*
X145613802Y-88975700D01*
X145610645Y-88980208D01*
X145610643Y-88980211D01*
X145485633Y-89158742D01*
X145485627Y-89158752D01*
X145482477Y-89163251D01*
X145480153Y-89168233D01*
X145480151Y-89168238D01*
X145388039Y-89365774D01*
X145388036Y-89365779D01*
X145385716Y-89370757D01*
X145384293Y-89376065D01*
X145384293Y-89376067D01*
X145327881Y-89586598D01*
X145326457Y-89591913D01*
X145325978Y-89597386D01*
X145325977Y-89597393D01*
X145316257Y-89708500D01*
X145306502Y-89820000D01*
X140313498Y-89820000D01*
X140293543Y-89591913D01*
X140234284Y-89370757D01*
X140137523Y-89163251D01*
X140006198Y-88975700D01*
X139844300Y-88813802D01*
X139770496Y-88762123D01*
X139661257Y-88685633D01*
X139661252Y-88685630D01*
X139656749Y-88682477D01*
X139449243Y-88585716D01*
X139228087Y-88526457D01*
X139222611Y-88525977D01*
X139222606Y-88525977D01*
X139005475Y-88506981D01*
X139000000Y-88506502D01*
X138994525Y-88506981D01*
X138777393Y-88525977D01*
X138777386Y-88525978D01*
X138771913Y-88526457D01*
X138766599Y-88527880D01*
X138766598Y-88527881D01*
X138556067Y-88584293D01*
X138556065Y-88584293D01*
X138550757Y-88585716D01*
X138545779Y-88588036D01*
X138545774Y-88588039D01*
X138348238Y-88680151D01*
X138348233Y-88680153D01*
X138343251Y-88682477D01*
X138338752Y-88685627D01*
X138338742Y-88685633D01*
X138160211Y-88810643D01*
X138160208Y-88810645D01*
X138155700Y-88813802D01*
X138151808Y-88817693D01*
X138151802Y-88817699D01*
X137997699Y-88971802D01*
X137997693Y-88971808D01*
X137993802Y-88975700D01*
X137990645Y-88980208D01*
X137990643Y-88980211D01*
X137865633Y-89158742D01*
X137865627Y-89158752D01*
X137862477Y-89163251D01*
X137860153Y-89168233D01*
X137860151Y-89168238D01*
X137768039Y-89365774D01*
X137768036Y-89365779D01*
X137765716Y-89370757D01*
X137764293Y-89376065D01*
X137764293Y-89376067D01*
X137707881Y-89586598D01*
X137706457Y-89591913D01*
X137705978Y-89597386D01*
X137705977Y-89597393D01*
X137696257Y-89708500D01*
X137686502Y-89820000D01*
X77550942Y-89820000D01*
X77555545Y-86842190D01*
X79157748Y-86842190D01*
X79158093Y-86848776D01*
X79158093Y-86848781D01*
X79161327Y-86910480D01*
X79161500Y-86917074D01*
X79161500Y-86937610D01*
X79161842Y-86940874D01*
X79161843Y-86940875D01*
X79163646Y-86958033D01*
X79164162Y-86964599D01*
X79165914Y-86998011D01*
X79167743Y-87032903D01*
X79169451Y-87039280D01*
X79169453Y-87039288D01*
X79171383Y-87046491D01*
X79174985Y-87065925D01*
X79175765Y-87073351D01*
X79175768Y-87073366D01*
X79176458Y-87079928D01*
X79197600Y-87144999D01*
X79199468Y-87151305D01*
X79215461Y-87210991D01*
X79215463Y-87210996D01*
X79217171Y-87217370D01*
X79220165Y-87223246D01*
X79220168Y-87223254D01*
X79223560Y-87229911D01*
X79231120Y-87248162D01*
X79235473Y-87261556D01*
X79269681Y-87320806D01*
X79272818Y-87326585D01*
X79303871Y-87387530D01*
X79308025Y-87392660D01*
X79312728Y-87398468D01*
X79323918Y-87414748D01*
X79330960Y-87426944D01*
X79335375Y-87431848D01*
X79335377Y-87431850D01*
X79376729Y-87477776D01*
X79381000Y-87482777D01*
X79393928Y-87498741D01*
X79396265Y-87501078D01*
X79396266Y-87501079D01*
X79408442Y-87513255D01*
X79412967Y-87518022D01*
X79458747Y-87568866D01*
X79470132Y-87577137D01*
X79485164Y-87589977D01*
X80134595Y-88239408D01*
X80161909Y-88280285D01*
X80171500Y-88328503D01*
X80171500Y-89248638D01*
X80171859Y-89251985D01*
X80171860Y-89251988D01*
X80177168Y-89301367D01*
X80177169Y-89301373D01*
X80178011Y-89309201D01*
X80180762Y-89316578D01*
X80180763Y-89316580D01*
X80225962Y-89437763D01*
X80225964Y-89437766D01*
X80229111Y-89446204D01*
X80234508Y-89453414D01*
X80234510Y-89453417D01*
X80311340Y-89556049D01*
X80316739Y-89563261D01*
X80323950Y-89568659D01*
X80347913Y-89586598D01*
X80433796Y-89650889D01*
X80570799Y-89701989D01*
X80631362Y-89708500D01*
X82425269Y-89708500D01*
X82428638Y-89708500D01*
X82489201Y-89701989D01*
X82626204Y-89650889D01*
X82743261Y-89563261D01*
X82830889Y-89446204D01*
X82881989Y-89309201D01*
X82885560Y-89275987D01*
X87955000Y-89275987D01*
X87955359Y-89279334D01*
X87955360Y-89279337D01*
X87960668Y-89328716D01*
X87960669Y-89328722D01*
X87961511Y-89336550D01*
X87964262Y-89343927D01*
X87964263Y-89343929D01*
X88009462Y-89465112D01*
X88009464Y-89465115D01*
X88012611Y-89473553D01*
X88018008Y-89480763D01*
X88018010Y-89480766D01*
X88094840Y-89583398D01*
X88100239Y-89590610D01*
X88107450Y-89596008D01*
X88173548Y-89645489D01*
X88217296Y-89678238D01*
X88354299Y-89729338D01*
X88414862Y-89735849D01*
X90108769Y-89735849D01*
X90112138Y-89735849D01*
X90172701Y-89729338D01*
X90309704Y-89678238D01*
X90426761Y-89590610D01*
X90514389Y-89473553D01*
X90565489Y-89336550D01*
X90572000Y-89275987D01*
X102411500Y-89275987D01*
X102411859Y-89279334D01*
X102411860Y-89279337D01*
X102417168Y-89328716D01*
X102417169Y-89328722D01*
X102418011Y-89336550D01*
X102420762Y-89343927D01*
X102420763Y-89343929D01*
X102465962Y-89465112D01*
X102465964Y-89465115D01*
X102469111Y-89473553D01*
X102474508Y-89480763D01*
X102474510Y-89480766D01*
X102551340Y-89583398D01*
X102556739Y-89590610D01*
X102563950Y-89596008D01*
X102630048Y-89645489D01*
X102673796Y-89678238D01*
X102810799Y-89729338D01*
X102871362Y-89735849D01*
X104565269Y-89735849D01*
X104568638Y-89735849D01*
X104629201Y-89729338D01*
X104766204Y-89678238D01*
X104883261Y-89590610D01*
X104970889Y-89473553D01*
X105021989Y-89336550D01*
X105028500Y-89275987D01*
X105028500Y-87578711D01*
X105021989Y-87518148D01*
X104970889Y-87381145D01*
X104965198Y-87373543D01*
X104888659Y-87271299D01*
X104883261Y-87264088D01*
X104837606Y-87229911D01*
X104773417Y-87181859D01*
X104773414Y-87181857D01*
X104766204Y-87176460D01*
X104757766Y-87173313D01*
X104757763Y-87173311D01*
X104636580Y-87128112D01*
X104636578Y-87128111D01*
X104629201Y-87125360D01*
X104621373Y-87124518D01*
X104621367Y-87124517D01*
X104571988Y-87119209D01*
X104571985Y-87119208D01*
X104568638Y-87118849D01*
X102871362Y-87118849D01*
X102868015Y-87119208D01*
X102868011Y-87119209D01*
X102818632Y-87124517D01*
X102818625Y-87124518D01*
X102810799Y-87125360D01*
X102803423Y-87128110D01*
X102803419Y-87128112D01*
X102682236Y-87173311D01*
X102682230Y-87173314D01*
X102673796Y-87176460D01*
X102666588Y-87181855D01*
X102666582Y-87181859D01*
X102563950Y-87258689D01*
X102563946Y-87258692D01*
X102556739Y-87264088D01*
X102551343Y-87271295D01*
X102551340Y-87271299D01*
X102474510Y-87373931D01*
X102474506Y-87373937D01*
X102469111Y-87381145D01*
X102465965Y-87389579D01*
X102465962Y-87389585D01*
X102420763Y-87510768D01*
X102420761Y-87510772D01*
X102418011Y-87518148D01*
X102417169Y-87525974D01*
X102417168Y-87525981D01*
X102413086Y-87563959D01*
X102411500Y-87578711D01*
X102411500Y-89275987D01*
X90572000Y-89275987D01*
X90572000Y-87578711D01*
X90565489Y-87518148D01*
X90514389Y-87381145D01*
X90508698Y-87373543D01*
X90432159Y-87271299D01*
X90426761Y-87264088D01*
X90381106Y-87229911D01*
X90316917Y-87181859D01*
X90316914Y-87181857D01*
X90309704Y-87176460D01*
X90301266Y-87173313D01*
X90301263Y-87173311D01*
X90180080Y-87128112D01*
X90180078Y-87128111D01*
X90172701Y-87125360D01*
X90164873Y-87124518D01*
X90164867Y-87124517D01*
X90115488Y-87119209D01*
X90115485Y-87119208D01*
X90112138Y-87118849D01*
X88414862Y-87118849D01*
X88411515Y-87119208D01*
X88411511Y-87119209D01*
X88362132Y-87124517D01*
X88362125Y-87124518D01*
X88354299Y-87125360D01*
X88346923Y-87128110D01*
X88346919Y-87128112D01*
X88225736Y-87173311D01*
X88225730Y-87173314D01*
X88217296Y-87176460D01*
X88210088Y-87181855D01*
X88210082Y-87181859D01*
X88107450Y-87258689D01*
X88107446Y-87258692D01*
X88100239Y-87264088D01*
X88094843Y-87271295D01*
X88094840Y-87271299D01*
X88018010Y-87373931D01*
X88018006Y-87373937D01*
X88012611Y-87381145D01*
X88009465Y-87389579D01*
X88009462Y-87389585D01*
X87964263Y-87510768D01*
X87964261Y-87510772D01*
X87961511Y-87518148D01*
X87960669Y-87525974D01*
X87960668Y-87525981D01*
X87956586Y-87563959D01*
X87955000Y-87578711D01*
X87955000Y-89275987D01*
X82885560Y-89275987D01*
X82888500Y-89248638D01*
X82888500Y-87451362D01*
X82881989Y-87390799D01*
X82830889Y-87253796D01*
X82819618Y-87238740D01*
X82748659Y-87143950D01*
X82743261Y-87136739D01*
X82731737Y-87128112D01*
X82633417Y-87054510D01*
X82633414Y-87054508D01*
X82626204Y-87049111D01*
X82617766Y-87045964D01*
X82617763Y-87045962D01*
X82496580Y-87000763D01*
X82496578Y-87000762D01*
X82489201Y-86998011D01*
X82481373Y-86997169D01*
X82481367Y-86997168D01*
X82431988Y-86991860D01*
X82431985Y-86991859D01*
X82428638Y-86991500D01*
X82425269Y-86991500D01*
X81508503Y-86991500D01*
X81460285Y-86981909D01*
X81419408Y-86954595D01*
X81015405Y-86550592D01*
X80988091Y-86509715D01*
X80978500Y-86461497D01*
X80978500Y-86080000D01*
X137686502Y-86080000D01*
X137686981Y-86085475D01*
X137702663Y-86264731D01*
X137706457Y-86308087D01*
X137765716Y-86529243D01*
X137862477Y-86736749D01*
X137865630Y-86741252D01*
X137865633Y-86741257D01*
X137926578Y-86828295D01*
X137993802Y-86924300D01*
X138155700Y-87086198D01*
X138343251Y-87217523D01*
X138550757Y-87314284D01*
X138771913Y-87373543D01*
X139000000Y-87393498D01*
X139228087Y-87373543D01*
X139449243Y-87314284D01*
X139656749Y-87217523D01*
X139844300Y-87086198D01*
X140006198Y-86924300D01*
X140137523Y-86736749D01*
X140234284Y-86529243D01*
X140293543Y-86308087D01*
X140313498Y-86080000D01*
X145306502Y-86080000D01*
X145306981Y-86085475D01*
X145322663Y-86264731D01*
X145326457Y-86308087D01*
X145385716Y-86529243D01*
X145482477Y-86736749D01*
X145485630Y-86741252D01*
X145485633Y-86741257D01*
X145546578Y-86828295D01*
X145613802Y-86924300D01*
X145775700Y-87086198D01*
X145963251Y-87217523D01*
X146170757Y-87314284D01*
X146391913Y-87373543D01*
X146620000Y-87393498D01*
X146848087Y-87373543D01*
X147069243Y-87314284D01*
X147276749Y-87217523D01*
X147287493Y-87210000D01*
X154746673Y-87210000D01*
X154747103Y-87215189D01*
X154764649Y-87426944D01*
X154765949Y-87442626D01*
X154774850Y-87477776D01*
X154796674Y-87563959D01*
X154823251Y-87668907D01*
X154917016Y-87882669D01*
X155044686Y-88078083D01*
X155048214Y-88081915D01*
X155199247Y-88245981D01*
X155199252Y-88245985D01*
X155202780Y-88249818D01*
X155386983Y-88393190D01*
X155592273Y-88504287D01*
X155813049Y-88580080D01*
X156043288Y-88618500D01*
X156271501Y-88618500D01*
X156276712Y-88618500D01*
X156506951Y-88580080D01*
X156727727Y-88504287D01*
X156933017Y-88393190D01*
X157117220Y-88249818D01*
X157275314Y-88078083D01*
X157402984Y-87882669D01*
X157496749Y-87668907D01*
X157554051Y-87442626D01*
X157573327Y-87210000D01*
X161006673Y-87210000D01*
X161007103Y-87215189D01*
X161024649Y-87426944D01*
X161025949Y-87442626D01*
X161034850Y-87477776D01*
X161056674Y-87563959D01*
X161083251Y-87668907D01*
X161177016Y-87882669D01*
X161304686Y-88078083D01*
X161308214Y-88081915D01*
X161459247Y-88245981D01*
X161459252Y-88245985D01*
X161462780Y-88249818D01*
X161646983Y-88393190D01*
X161852273Y-88504287D01*
X162073049Y-88580080D01*
X162303288Y-88618500D01*
X162531501Y-88618500D01*
X162536712Y-88618500D01*
X162766951Y-88580080D01*
X162987727Y-88504287D01*
X163193017Y-88393190D01*
X163377220Y-88249818D01*
X163461158Y-88158638D01*
X164731500Y-88158638D01*
X164731859Y-88161985D01*
X164731860Y-88161988D01*
X164737168Y-88211367D01*
X164737169Y-88211373D01*
X164738011Y-88219201D01*
X164740762Y-88226578D01*
X164740763Y-88226580D01*
X164785962Y-88347763D01*
X164785964Y-88347766D01*
X164789111Y-88356204D01*
X164794508Y-88363414D01*
X164794510Y-88363417D01*
X164814401Y-88389988D01*
X164876739Y-88473261D01*
X164883950Y-88478659D01*
X164949702Y-88527881D01*
X164993796Y-88560889D01*
X165130799Y-88611989D01*
X165191362Y-88618500D01*
X167085269Y-88618500D01*
X167088638Y-88618500D01*
X167149201Y-88611989D01*
X167286204Y-88560889D01*
X167403261Y-88473261D01*
X167490889Y-88356204D01*
X167541989Y-88219201D01*
X167548500Y-88158638D01*
X167548500Y-86261362D01*
X167541989Y-86200799D01*
X167490889Y-86063796D01*
X167403261Y-85946739D01*
X167396049Y-85941340D01*
X167293417Y-85864510D01*
X167293414Y-85864508D01*
X167286204Y-85859111D01*
X167277766Y-85855964D01*
X167277763Y-85855962D01*
X167156580Y-85810763D01*
X167156578Y-85810762D01*
X167149201Y-85808011D01*
X167141373Y-85807169D01*
X167141367Y-85807168D01*
X167091988Y-85801860D01*
X167091985Y-85801859D01*
X167088638Y-85801500D01*
X165191362Y-85801500D01*
X165188015Y-85801859D01*
X165188011Y-85801860D01*
X165138632Y-85807168D01*
X165138625Y-85807169D01*
X165130799Y-85808011D01*
X165123423Y-85810761D01*
X165123419Y-85810763D01*
X165002236Y-85855962D01*
X165002230Y-85855965D01*
X164993796Y-85859111D01*
X164986588Y-85864506D01*
X164986582Y-85864510D01*
X164883950Y-85941340D01*
X164883946Y-85941343D01*
X164876739Y-85946739D01*
X164871343Y-85953946D01*
X164871340Y-85953950D01*
X164794510Y-86056582D01*
X164794506Y-86056588D01*
X164789111Y-86063796D01*
X164785965Y-86072230D01*
X164785962Y-86072236D01*
X164740763Y-86193419D01*
X164740761Y-86193423D01*
X164738011Y-86200799D01*
X164737169Y-86208625D01*
X164737168Y-86208632D01*
X164731860Y-86258011D01*
X164731500Y-86261362D01*
X164731500Y-88158638D01*
X163461158Y-88158638D01*
X163535314Y-88078083D01*
X163662984Y-87882669D01*
X163756749Y-87668907D01*
X163814051Y-87442626D01*
X163833327Y-87210000D01*
X163814051Y-86977374D01*
X163756749Y-86751093D01*
X163662984Y-86537331D01*
X163535314Y-86341917D01*
X163412616Y-86208632D01*
X163380752Y-86174018D01*
X163380747Y-86174013D01*
X163377220Y-86170182D01*
X163251380Y-86072236D01*
X163197130Y-86030011D01*
X163197127Y-86030009D01*
X163193017Y-86026810D01*
X163188438Y-86024332D01*
X163188435Y-86024330D01*
X162992312Y-85918194D01*
X162992309Y-85918192D01*
X162987727Y-85915713D01*
X162982799Y-85914021D01*
X162982794Y-85914019D01*
X162771881Y-85841612D01*
X162771875Y-85841610D01*
X162766951Y-85839920D01*
X162761814Y-85839062D01*
X162761811Y-85839062D01*
X162541849Y-85802357D01*
X162541846Y-85802356D01*
X162536712Y-85801500D01*
X162303288Y-85801500D01*
X162298154Y-85802356D01*
X162298150Y-85802357D01*
X162078188Y-85839062D01*
X162078182Y-85839063D01*
X162073049Y-85839920D01*
X162068127Y-85841609D01*
X162068118Y-85841612D01*
X161857205Y-85914019D01*
X161857196Y-85914022D01*
X161852273Y-85915713D01*
X161847694Y-85918190D01*
X161847687Y-85918194D01*
X161651564Y-86024330D01*
X161651556Y-86024335D01*
X161646983Y-86026810D01*
X161642877Y-86030005D01*
X161642869Y-86030011D01*
X161466898Y-86166976D01*
X161466892Y-86166981D01*
X161462780Y-86170182D01*
X161459258Y-86174007D01*
X161459247Y-86174018D01*
X161308214Y-86338084D01*
X161308211Y-86338087D01*
X161304686Y-86341917D01*
X161301838Y-86346275D01*
X161301835Y-86346280D01*
X161195058Y-86509715D01*
X161177016Y-86537331D01*
X161174923Y-86542101D01*
X161174921Y-86542106D01*
X161085344Y-86746320D01*
X161085341Y-86746326D01*
X161083251Y-86751093D01*
X161081973Y-86756137D01*
X161081971Y-86756145D01*
X161035192Y-86940875D01*
X161025949Y-86977374D01*
X161025519Y-86982562D01*
X161025518Y-86982569D01*
X161012146Y-87143950D01*
X161006673Y-87210000D01*
X157573327Y-87210000D01*
X157554051Y-86977374D01*
X157496749Y-86751093D01*
X157402984Y-86537331D01*
X157275314Y-86341917D01*
X157152616Y-86208632D01*
X157120752Y-86174018D01*
X157120747Y-86174013D01*
X157117220Y-86170182D01*
X156991380Y-86072236D01*
X156937130Y-86030011D01*
X156937127Y-86030009D01*
X156933017Y-86026810D01*
X156928438Y-86024332D01*
X156928435Y-86024330D01*
X156732312Y-85918194D01*
X156732309Y-85918192D01*
X156727727Y-85915713D01*
X156722799Y-85914021D01*
X156722794Y-85914019D01*
X156511881Y-85841612D01*
X156511875Y-85841610D01*
X156506951Y-85839920D01*
X156501814Y-85839062D01*
X156501811Y-85839062D01*
X156281849Y-85802357D01*
X156281846Y-85802356D01*
X156276712Y-85801500D01*
X156043288Y-85801500D01*
X156038154Y-85802356D01*
X156038150Y-85802357D01*
X155818188Y-85839062D01*
X155818182Y-85839063D01*
X155813049Y-85839920D01*
X155808127Y-85841609D01*
X155808118Y-85841612D01*
X155597205Y-85914019D01*
X155597196Y-85914022D01*
X155592273Y-85915713D01*
X155587694Y-85918190D01*
X155587687Y-85918194D01*
X155391564Y-86024330D01*
X155391556Y-86024335D01*
X155386983Y-86026810D01*
X155382877Y-86030005D01*
X155382869Y-86030011D01*
X155206898Y-86166976D01*
X155206892Y-86166981D01*
X155202780Y-86170182D01*
X155199258Y-86174007D01*
X155199247Y-86174018D01*
X155048214Y-86338084D01*
X155048211Y-86338087D01*
X155044686Y-86341917D01*
X155041838Y-86346275D01*
X155041835Y-86346280D01*
X154935058Y-86509715D01*
X154917016Y-86537331D01*
X154914923Y-86542101D01*
X154914921Y-86542106D01*
X154825344Y-86746320D01*
X154825341Y-86746326D01*
X154823251Y-86751093D01*
X154821973Y-86756137D01*
X154821971Y-86756145D01*
X154775192Y-86940875D01*
X154765949Y-86977374D01*
X154765519Y-86982562D01*
X154765518Y-86982569D01*
X154752146Y-87143950D01*
X154746673Y-87210000D01*
X147287493Y-87210000D01*
X147464300Y-87086198D01*
X147626198Y-86924300D01*
X147757523Y-86736749D01*
X147854284Y-86529243D01*
X147913543Y-86308087D01*
X147933498Y-86080000D01*
X147913543Y-85851913D01*
X147854284Y-85630757D01*
X147757523Y-85423251D01*
X147626198Y-85235700D01*
X147464300Y-85073802D01*
X147390496Y-85022123D01*
X147281257Y-84945633D01*
X147281252Y-84945630D01*
X147276749Y-84942477D01*
X147069243Y-84845716D01*
X146848087Y-84786457D01*
X146842611Y-84785977D01*
X146842606Y-84785977D01*
X146625475Y-84766981D01*
X146620000Y-84766502D01*
X146614525Y-84766981D01*
X146397393Y-84785977D01*
X146397386Y-84785978D01*
X146391913Y-84786457D01*
X146386599Y-84787880D01*
X146386598Y-84787881D01*
X146176067Y-84844293D01*
X146176065Y-84844293D01*
X146170757Y-84845716D01*
X146165779Y-84848036D01*
X146165774Y-84848039D01*
X145968238Y-84940151D01*
X145968233Y-84940153D01*
X145963251Y-84942477D01*
X145958752Y-84945627D01*
X145958742Y-84945633D01*
X145780211Y-85070643D01*
X145780208Y-85070645D01*
X145775700Y-85073802D01*
X145771808Y-85077693D01*
X145771802Y-85077699D01*
X145617699Y-85231802D01*
X145617693Y-85231808D01*
X145613802Y-85235700D01*
X145610645Y-85240208D01*
X145610643Y-85240211D01*
X145485633Y-85418742D01*
X145485627Y-85418752D01*
X145482477Y-85423251D01*
X145480153Y-85428233D01*
X145480151Y-85428238D01*
X145388039Y-85625774D01*
X145388036Y-85625779D01*
X145385716Y-85630757D01*
X145384293Y-85636065D01*
X145384293Y-85636067D01*
X145329217Y-85841612D01*
X145326457Y-85851913D01*
X145325978Y-85857386D01*
X145325977Y-85857393D01*
X145310875Y-86030011D01*
X145306502Y-86080000D01*
X140313498Y-86080000D01*
X140293543Y-85851913D01*
X140234284Y-85630757D01*
X140137523Y-85423251D01*
X140006198Y-85235700D01*
X139844300Y-85073802D01*
X139770496Y-85022123D01*
X139661257Y-84945633D01*
X139661252Y-84945630D01*
X139656749Y-84942477D01*
X139449243Y-84845716D01*
X139228087Y-84786457D01*
X139222611Y-84785977D01*
X139222606Y-84785977D01*
X139005475Y-84766981D01*
X139000000Y-84766502D01*
X138994525Y-84766981D01*
X138777393Y-84785977D01*
X138777386Y-84785978D01*
X138771913Y-84786457D01*
X138766599Y-84787880D01*
X138766598Y-84787881D01*
X138556067Y-84844293D01*
X138556065Y-84844293D01*
X138550757Y-84845716D01*
X138545779Y-84848036D01*
X138545774Y-84848039D01*
X138348238Y-84940151D01*
X138348233Y-84940153D01*
X138343251Y-84942477D01*
X138338752Y-84945627D01*
X138338742Y-84945633D01*
X138160211Y-85070643D01*
X138160208Y-85070645D01*
X138155700Y-85073802D01*
X138151808Y-85077693D01*
X138151802Y-85077699D01*
X137997699Y-85231802D01*
X137997693Y-85231808D01*
X137993802Y-85235700D01*
X137990645Y-85240208D01*
X137990643Y-85240211D01*
X137865633Y-85418742D01*
X137865627Y-85418752D01*
X137862477Y-85423251D01*
X137860153Y-85428233D01*
X137860151Y-85428238D01*
X137768039Y-85625774D01*
X137768036Y-85625779D01*
X137765716Y-85630757D01*
X137764293Y-85636065D01*
X137764293Y-85636067D01*
X137709217Y-85841612D01*
X137706457Y-85851913D01*
X137705978Y-85857386D01*
X137705977Y-85857393D01*
X137690875Y-86030011D01*
X137686502Y-86080000D01*
X80978500Y-86080000D01*
X80978500Y-84693468D01*
X80992471Y-84635802D01*
X81031284Y-84590923D01*
X81086334Y-84568784D01*
X81145411Y-84574294D01*
X81195365Y-84591444D01*
X81417431Y-84628500D01*
X81637358Y-84628500D01*
X81642569Y-84628500D01*
X81864635Y-84591444D01*
X82077574Y-84518342D01*
X82275576Y-84411189D01*
X82453240Y-84272906D01*
X82605722Y-84107268D01*
X82728860Y-83918791D01*
X82819296Y-83712616D01*
X82874564Y-83494368D01*
X82893156Y-83270000D01*
X82891983Y-83255856D01*
X82899248Y-83202087D01*
X82928455Y-83156356D01*
X83564839Y-82519972D01*
X83579867Y-82507137D01*
X83591253Y-82498866D01*
X83637026Y-82448028D01*
X83641531Y-82443280D01*
X83656072Y-82428741D01*
X83669008Y-82412765D01*
X83673266Y-82407779D01*
X83719040Y-82356944D01*
X83726075Y-82344757D01*
X83737271Y-82328467D01*
X83746129Y-82317530D01*
X83777203Y-82256543D01*
X83780315Y-82250811D01*
X83814527Y-82191556D01*
X83818872Y-82178183D01*
X83826441Y-82159908D01*
X83832830Y-82147370D01*
X83850531Y-82081302D01*
X83852403Y-82074986D01*
X83871501Y-82016211D01*
X83871502Y-82016205D01*
X83873542Y-82009928D01*
X83875012Y-81995937D01*
X83878617Y-81976487D01*
X83880547Y-81969284D01*
X83880546Y-81969284D01*
X83882257Y-81962903D01*
X83885836Y-81894592D01*
X83886353Y-81888034D01*
X83888156Y-81870885D01*
X83888156Y-81870880D01*
X83888500Y-81867610D01*
X83888500Y-81847074D01*
X83888673Y-81840480D01*
X83892252Y-81772190D01*
X83890050Y-81758292D01*
X83888500Y-81738583D01*
X83888500Y-77184000D01*
X86196844Y-77184000D01*
X86215436Y-77408368D01*
X86270704Y-77626616D01*
X86361140Y-77832791D01*
X86484278Y-78021268D01*
X86487806Y-78025100D01*
X86633227Y-78183069D01*
X86633231Y-78183073D01*
X86636760Y-78186906D01*
X86814424Y-78325189D01*
X87012426Y-78432342D01*
X87017355Y-78434034D01*
X87017357Y-78434035D01*
X87057439Y-78447795D01*
X87225365Y-78505444D01*
X87447431Y-78542500D01*
X87667358Y-78542500D01*
X87672569Y-78542500D01*
X87894635Y-78505444D01*
X88107574Y-78432342D01*
X88305576Y-78325189D01*
X88483240Y-78186906D01*
X88596770Y-78063580D01*
X88647874Y-78029984D01*
X88708780Y-78024409D01*
X88765136Y-78048170D01*
X88803664Y-78095670D01*
X88805576Y-78099772D01*
X88807885Y-78106738D01*
X88811735Y-78112980D01*
X88811737Y-78112984D01*
X88897116Y-78251404D01*
X88900970Y-78257652D01*
X89026348Y-78383030D01*
X89037728Y-78390049D01*
X89171018Y-78472264D01*
X89171020Y-78472265D01*
X89177262Y-78476115D01*
X89345574Y-78531887D01*
X89449455Y-78542500D01*
X90750544Y-78542499D01*
X90854426Y-78531887D01*
X91022738Y-78476115D01*
X91173652Y-78383030D01*
X91299030Y-78257652D01*
X91392115Y-78106738D01*
X91447887Y-77938426D01*
X91458500Y-77834545D01*
X91458499Y-77184000D01*
X100653344Y-77184000D01*
X100671936Y-77408368D01*
X100727204Y-77626616D01*
X100817640Y-77832791D01*
X100940778Y-78021268D01*
X100944306Y-78025100D01*
X101089727Y-78183069D01*
X101089731Y-78183073D01*
X101093260Y-78186906D01*
X101270924Y-78325189D01*
X101468926Y-78432342D01*
X101473855Y-78434034D01*
X101473857Y-78434035D01*
X101513939Y-78447795D01*
X101681865Y-78505444D01*
X101903931Y-78542500D01*
X102123858Y-78542500D01*
X102129069Y-78542500D01*
X102351135Y-78505444D01*
X102564074Y-78432342D01*
X102762076Y-78325189D01*
X102939740Y-78186906D01*
X103053270Y-78063580D01*
X103104374Y-78029984D01*
X103165280Y-78024409D01*
X103221636Y-78048170D01*
X103260164Y-78095670D01*
X103262076Y-78099772D01*
X103264385Y-78106738D01*
X103268235Y-78112980D01*
X103268237Y-78112984D01*
X103353616Y-78251404D01*
X103357470Y-78257652D01*
X103482848Y-78383030D01*
X103494228Y-78390049D01*
X103627518Y-78472264D01*
X103627520Y-78472265D01*
X103633762Y-78476115D01*
X103802074Y-78531887D01*
X103905955Y-78542500D01*
X105207044Y-78542499D01*
X105310926Y-78531887D01*
X105479238Y-78476115D01*
X105630152Y-78383030D01*
X105755530Y-78257652D01*
X105848615Y-78106738D01*
X105904387Y-77938426D01*
X105915000Y-77834545D01*
X105914999Y-77184000D01*
X115109844Y-77184000D01*
X115128436Y-77408368D01*
X115183704Y-77626616D01*
X115274140Y-77832791D01*
X115397278Y-78021268D01*
X115400806Y-78025100D01*
X115546227Y-78183069D01*
X115546231Y-78183073D01*
X115549760Y-78186906D01*
X115727424Y-78325189D01*
X115925426Y-78432342D01*
X115930355Y-78434034D01*
X115930357Y-78434035D01*
X115970439Y-78447795D01*
X116138365Y-78505444D01*
X116360431Y-78542500D01*
X116580358Y-78542500D01*
X116585569Y-78542500D01*
X116807635Y-78505444D01*
X117020574Y-78432342D01*
X117218576Y-78325189D01*
X117396240Y-78186906D01*
X117509770Y-78063580D01*
X117560874Y-78029984D01*
X117621780Y-78024409D01*
X117678136Y-78048170D01*
X117716664Y-78095670D01*
X117718576Y-78099772D01*
X117720885Y-78106738D01*
X117724735Y-78112980D01*
X117724737Y-78112984D01*
X117810116Y-78251404D01*
X117813970Y-78257652D01*
X117939348Y-78383030D01*
X117950728Y-78390049D01*
X118084018Y-78472264D01*
X118084020Y-78472265D01*
X118090262Y-78476115D01*
X118258574Y-78531887D01*
X118362455Y-78542500D01*
X119663544Y-78542499D01*
X119767426Y-78531887D01*
X119935738Y-78476115D01*
X120086652Y-78383030D01*
X120212030Y-78257652D01*
X120305115Y-78106738D01*
X120360887Y-77938426D01*
X120371500Y-77834545D01*
X120371499Y-77184000D01*
X129566344Y-77184000D01*
X129584936Y-77408368D01*
X129640204Y-77626616D01*
X129730640Y-77832791D01*
X129853778Y-78021268D01*
X129857306Y-78025100D01*
X130002727Y-78183069D01*
X130002731Y-78183073D01*
X130006260Y-78186906D01*
X130183924Y-78325189D01*
X130381926Y-78432342D01*
X130386855Y-78434034D01*
X130386857Y-78434035D01*
X130426939Y-78447795D01*
X130594865Y-78505444D01*
X130816931Y-78542500D01*
X131036858Y-78542500D01*
X131042069Y-78542500D01*
X131264135Y-78505444D01*
X131477074Y-78432342D01*
X131675076Y-78325189D01*
X131852740Y-78186906D01*
X131966270Y-78063580D01*
X132017374Y-78029984D01*
X132078280Y-78024409D01*
X132134636Y-78048170D01*
X132173164Y-78095670D01*
X132175076Y-78099772D01*
X132177385Y-78106738D01*
X132181235Y-78112980D01*
X132181237Y-78112984D01*
X132266616Y-78251404D01*
X132270470Y-78257652D01*
X132395848Y-78383030D01*
X132407228Y-78390049D01*
X132540518Y-78472264D01*
X132540520Y-78472265D01*
X132546762Y-78476115D01*
X132715074Y-78531887D01*
X132818955Y-78542500D01*
X134120044Y-78542499D01*
X134223926Y-78531887D01*
X134392238Y-78476115D01*
X134543152Y-78383030D01*
X134668530Y-78257652D01*
X134761615Y-78106738D01*
X134817387Y-77938426D01*
X134828000Y-77834545D01*
X134827999Y-77184000D01*
X144022844Y-77184000D01*
X144041436Y-77408368D01*
X144096704Y-77626616D01*
X144187140Y-77832791D01*
X144310278Y-78021268D01*
X144313806Y-78025100D01*
X144459227Y-78183069D01*
X144459231Y-78183073D01*
X144462760Y-78186906D01*
X144640424Y-78325189D01*
X144838426Y-78432342D01*
X144843355Y-78434034D01*
X144843357Y-78434035D01*
X144883439Y-78447795D01*
X145051365Y-78505444D01*
X145273431Y-78542500D01*
X145493358Y-78542500D01*
X145498569Y-78542500D01*
X145720635Y-78505444D01*
X145933574Y-78432342D01*
X146131576Y-78325189D01*
X146309240Y-78186906D01*
X146422770Y-78063580D01*
X146473874Y-78029984D01*
X146534780Y-78024409D01*
X146591136Y-78048170D01*
X146629664Y-78095670D01*
X146631576Y-78099772D01*
X146633885Y-78106738D01*
X146637735Y-78112980D01*
X146637737Y-78112984D01*
X146723116Y-78251404D01*
X146726970Y-78257652D01*
X146852348Y-78383030D01*
X146863728Y-78390049D01*
X146997018Y-78472264D01*
X146997020Y-78472265D01*
X147003262Y-78476115D01*
X147171574Y-78531887D01*
X147275455Y-78542500D01*
X148576544Y-78542499D01*
X148680426Y-78531887D01*
X148848738Y-78476115D01*
X148999652Y-78383030D01*
X149125030Y-78257652D01*
X149218115Y-78106738D01*
X149273887Y-77938426D01*
X149284500Y-77834545D01*
X149284499Y-77184000D01*
X158479344Y-77184000D01*
X158497936Y-77408368D01*
X158553204Y-77626616D01*
X158643640Y-77832791D01*
X158766778Y-78021268D01*
X158770306Y-78025100D01*
X158915727Y-78183069D01*
X158915731Y-78183073D01*
X158919260Y-78186906D01*
X159096924Y-78325189D01*
X159294926Y-78432342D01*
X159299855Y-78434034D01*
X159299857Y-78434035D01*
X159339939Y-78447795D01*
X159507865Y-78505444D01*
X159729931Y-78542500D01*
X159949858Y-78542500D01*
X159955069Y-78542500D01*
X160177135Y-78505444D01*
X160390074Y-78432342D01*
X160588076Y-78325189D01*
X160765740Y-78186906D01*
X160879270Y-78063580D01*
X160930374Y-78029984D01*
X160991280Y-78024409D01*
X161047636Y-78048170D01*
X161086164Y-78095670D01*
X161088076Y-78099772D01*
X161090385Y-78106738D01*
X161094235Y-78112980D01*
X161094237Y-78112984D01*
X161179616Y-78251404D01*
X161183470Y-78257652D01*
X161308848Y-78383030D01*
X161320228Y-78390049D01*
X161453518Y-78472264D01*
X161453520Y-78472265D01*
X161459762Y-78476115D01*
X161628074Y-78531887D01*
X161731955Y-78542500D01*
X163033044Y-78542499D01*
X163136926Y-78531887D01*
X163305238Y-78476115D01*
X163456152Y-78383030D01*
X163581530Y-78257652D01*
X163674615Y-78106738D01*
X163682601Y-78082638D01*
X165696500Y-78082638D01*
X165696859Y-78085985D01*
X165696860Y-78085988D01*
X165702168Y-78135367D01*
X165702169Y-78135373D01*
X165703011Y-78143201D01*
X165705762Y-78150578D01*
X165705763Y-78150580D01*
X165750962Y-78271763D01*
X165750964Y-78271766D01*
X165754111Y-78280204D01*
X165759508Y-78287414D01*
X165759510Y-78287417D01*
X165830822Y-78382678D01*
X165841739Y-78397261D01*
X165848950Y-78402659D01*
X165949499Y-78477930D01*
X165958796Y-78484889D01*
X166095799Y-78535989D01*
X166156362Y-78542500D01*
X167950269Y-78542500D01*
X167953638Y-78542500D01*
X168014201Y-78535989D01*
X168151204Y-78484889D01*
X168268261Y-78397261D01*
X168355889Y-78280204D01*
X168406989Y-78143201D01*
X168413500Y-78082638D01*
X168413500Y-76285362D01*
X168406989Y-76224799D01*
X168355889Y-76087796D01*
X168268261Y-75970739D01*
X168224713Y-75938139D01*
X168158417Y-75888510D01*
X168158414Y-75888508D01*
X168151204Y-75883111D01*
X168142766Y-75879964D01*
X168142763Y-75879962D01*
X168021580Y-75834763D01*
X168021578Y-75834762D01*
X168014201Y-75832011D01*
X168006373Y-75831169D01*
X168006367Y-75831168D01*
X167956988Y-75825860D01*
X167956985Y-75825859D01*
X167953638Y-75825500D01*
X166156362Y-75825500D01*
X166153015Y-75825859D01*
X166153011Y-75825860D01*
X166103632Y-75831168D01*
X166103625Y-75831169D01*
X166095799Y-75832011D01*
X166088423Y-75834761D01*
X166088419Y-75834763D01*
X165967236Y-75879962D01*
X165967230Y-75879965D01*
X165958796Y-75883111D01*
X165951588Y-75888506D01*
X165951582Y-75888510D01*
X165848950Y-75965340D01*
X165848946Y-75965343D01*
X165841739Y-75970739D01*
X165836343Y-75977946D01*
X165836340Y-75977950D01*
X165759510Y-76080582D01*
X165759506Y-76080588D01*
X165754111Y-76087796D01*
X165750965Y-76096230D01*
X165750962Y-76096236D01*
X165705763Y-76217419D01*
X165705761Y-76217423D01*
X165703011Y-76224799D01*
X165702169Y-76232625D01*
X165702168Y-76232632D01*
X165698342Y-76268225D01*
X165696500Y-76285362D01*
X165696500Y-78082638D01*
X163682601Y-78082638D01*
X163730387Y-77938426D01*
X163741000Y-77834545D01*
X163740999Y-76533456D01*
X163730387Y-76429574D01*
X163674615Y-76261262D01*
X163652124Y-76224799D01*
X163585383Y-76116595D01*
X163581530Y-76110348D01*
X163456152Y-75984970D01*
X163424327Y-75965340D01*
X163311481Y-75895735D01*
X163311476Y-75895732D01*
X163305238Y-75891885D01*
X163298276Y-75889578D01*
X163298274Y-75889577D01*
X163143451Y-75838275D01*
X163143449Y-75838274D01*
X163136926Y-75836113D01*
X163130089Y-75835414D01*
X163130087Y-75835414D01*
X163036229Y-75825825D01*
X163036223Y-75825824D01*
X163033045Y-75825500D01*
X163029839Y-75825500D01*
X161735161Y-75825500D01*
X161735141Y-75825500D01*
X161731956Y-75825501D01*
X161728779Y-75825825D01*
X161728770Y-75825826D01*
X161634911Y-75835414D01*
X161634905Y-75835415D01*
X161628074Y-75836113D01*
X161621558Y-75838271D01*
X161621549Y-75838274D01*
X161466725Y-75889577D01*
X161466719Y-75889579D01*
X161459762Y-75891885D01*
X161453526Y-75895730D01*
X161453518Y-75895735D01*
X161315095Y-75981116D01*
X161315090Y-75981119D01*
X161308848Y-75984970D01*
X161303658Y-75990159D01*
X161303654Y-75990163D01*
X161188663Y-76105154D01*
X161188659Y-76105158D01*
X161183470Y-76110348D01*
X161179619Y-76116590D01*
X161179616Y-76116595D01*
X161094234Y-76255020D01*
X161094230Y-76255027D01*
X161090385Y-76261262D01*
X161088079Y-76268219D01*
X161086163Y-76272330D01*
X161047635Y-76319830D01*
X160991279Y-76343591D01*
X160930373Y-76338015D01*
X160879268Y-76304417D01*
X160769272Y-76184930D01*
X160769267Y-76184925D01*
X160765740Y-76181094D01*
X160588076Y-76042811D01*
X160583497Y-76040333D01*
X160583494Y-76040331D01*
X160394659Y-75938139D01*
X160394656Y-75938137D01*
X160390074Y-75935658D01*
X160385150Y-75933967D01*
X160385142Y-75933964D01*
X160182065Y-75864248D01*
X160182059Y-75864246D01*
X160177135Y-75862556D01*
X160171998Y-75861698D01*
X160171995Y-75861698D01*
X159960206Y-75826357D01*
X159960203Y-75826356D01*
X159955069Y-75825500D01*
X159729931Y-75825500D01*
X159724797Y-75826356D01*
X159724793Y-75826357D01*
X159513004Y-75861698D01*
X159512998Y-75861699D01*
X159507865Y-75862556D01*
X159502943Y-75864245D01*
X159502934Y-75864248D01*
X159299857Y-75933964D01*
X159299844Y-75933969D01*
X159294926Y-75935658D01*
X159290347Y-75938135D01*
X159290340Y-75938139D01*
X159101505Y-76040331D01*
X159101497Y-76040336D01*
X159096924Y-76042811D01*
X159092813Y-76046010D01*
X159092811Y-76046012D01*
X158923378Y-76177888D01*
X158923372Y-76177893D01*
X158919260Y-76181094D01*
X158915737Y-76184919D01*
X158915727Y-76184930D01*
X158770306Y-76342899D01*
X158770302Y-76342902D01*
X158766778Y-76346732D01*
X158763930Y-76351090D01*
X158763927Y-76351095D01*
X158646492Y-76530843D01*
X158643640Y-76535209D01*
X158641548Y-76539978D01*
X158641546Y-76539982D01*
X158555299Y-76736606D01*
X158555296Y-76736614D01*
X158553204Y-76741384D01*
X158497936Y-76959632D01*
X158497506Y-76964820D01*
X158497505Y-76964827D01*
X158480409Y-77171147D01*
X158479344Y-77184000D01*
X149284499Y-77184000D01*
X149284499Y-76533456D01*
X149273887Y-76429574D01*
X149218115Y-76261262D01*
X149195624Y-76224799D01*
X149128883Y-76116595D01*
X149125030Y-76110348D01*
X148999652Y-75984970D01*
X148967827Y-75965340D01*
X148854981Y-75895735D01*
X148854976Y-75895732D01*
X148848738Y-75891885D01*
X148841776Y-75889578D01*
X148841774Y-75889577D01*
X148686951Y-75838275D01*
X148686949Y-75838274D01*
X148680426Y-75836113D01*
X148673589Y-75835414D01*
X148673587Y-75835414D01*
X148579729Y-75825825D01*
X148579723Y-75825824D01*
X148576545Y-75825500D01*
X148573339Y-75825500D01*
X147278661Y-75825500D01*
X147278641Y-75825500D01*
X147275456Y-75825501D01*
X147272279Y-75825825D01*
X147272270Y-75825826D01*
X147178411Y-75835414D01*
X147178405Y-75835415D01*
X147171574Y-75836113D01*
X147165058Y-75838271D01*
X147165049Y-75838274D01*
X147010225Y-75889577D01*
X147010219Y-75889579D01*
X147003262Y-75891885D01*
X146997026Y-75895730D01*
X146997018Y-75895735D01*
X146858595Y-75981116D01*
X146858590Y-75981119D01*
X146852348Y-75984970D01*
X146847158Y-75990159D01*
X146847154Y-75990163D01*
X146732163Y-76105154D01*
X146732159Y-76105158D01*
X146726970Y-76110348D01*
X146723119Y-76116590D01*
X146723116Y-76116595D01*
X146637734Y-76255020D01*
X146637730Y-76255027D01*
X146633885Y-76261262D01*
X146631579Y-76268219D01*
X146629663Y-76272330D01*
X146591135Y-76319830D01*
X146534779Y-76343591D01*
X146473873Y-76338015D01*
X146422768Y-76304417D01*
X146312772Y-76184930D01*
X146312767Y-76184925D01*
X146309240Y-76181094D01*
X146131576Y-76042811D01*
X146126997Y-76040333D01*
X146126994Y-76040331D01*
X145938159Y-75938139D01*
X145938156Y-75938137D01*
X145933574Y-75935658D01*
X145928650Y-75933967D01*
X145928642Y-75933964D01*
X145725565Y-75864248D01*
X145725559Y-75864246D01*
X145720635Y-75862556D01*
X145715498Y-75861698D01*
X145715495Y-75861698D01*
X145503706Y-75826357D01*
X145503703Y-75826356D01*
X145498569Y-75825500D01*
X145273431Y-75825500D01*
X145268297Y-75826356D01*
X145268293Y-75826357D01*
X145056504Y-75861698D01*
X145056498Y-75861699D01*
X145051365Y-75862556D01*
X145046443Y-75864245D01*
X145046434Y-75864248D01*
X144843357Y-75933964D01*
X144843344Y-75933969D01*
X144838426Y-75935658D01*
X144833847Y-75938135D01*
X144833840Y-75938139D01*
X144645005Y-76040331D01*
X144644997Y-76040336D01*
X144640424Y-76042811D01*
X144636313Y-76046010D01*
X144636311Y-76046012D01*
X144466878Y-76177888D01*
X144466872Y-76177893D01*
X144462760Y-76181094D01*
X144459237Y-76184919D01*
X144459227Y-76184930D01*
X144313806Y-76342899D01*
X144313802Y-76342902D01*
X144310278Y-76346732D01*
X144307430Y-76351090D01*
X144307427Y-76351095D01*
X144189992Y-76530843D01*
X144187140Y-76535209D01*
X144185048Y-76539978D01*
X144185046Y-76539982D01*
X144098799Y-76736606D01*
X144098796Y-76736614D01*
X144096704Y-76741384D01*
X144041436Y-76959632D01*
X144041006Y-76964820D01*
X144041005Y-76964827D01*
X144023909Y-77171147D01*
X144022844Y-77184000D01*
X134827999Y-77184000D01*
X134827999Y-76533456D01*
X134817387Y-76429574D01*
X134761615Y-76261262D01*
X134739124Y-76224799D01*
X134672383Y-76116595D01*
X134668530Y-76110348D01*
X134543152Y-75984970D01*
X134511327Y-75965340D01*
X134398481Y-75895735D01*
X134398476Y-75895732D01*
X134392238Y-75891885D01*
X134385276Y-75889578D01*
X134385274Y-75889577D01*
X134230451Y-75838275D01*
X134230449Y-75838274D01*
X134223926Y-75836113D01*
X134217089Y-75835414D01*
X134217087Y-75835414D01*
X134123229Y-75825825D01*
X134123223Y-75825824D01*
X134120045Y-75825500D01*
X134116839Y-75825500D01*
X132822161Y-75825500D01*
X132822141Y-75825500D01*
X132818956Y-75825501D01*
X132815779Y-75825825D01*
X132815770Y-75825826D01*
X132721911Y-75835414D01*
X132721905Y-75835415D01*
X132715074Y-75836113D01*
X132708558Y-75838271D01*
X132708549Y-75838274D01*
X132553725Y-75889577D01*
X132553719Y-75889579D01*
X132546762Y-75891885D01*
X132540526Y-75895730D01*
X132540518Y-75895735D01*
X132402095Y-75981116D01*
X132402090Y-75981119D01*
X132395848Y-75984970D01*
X132390658Y-75990159D01*
X132390654Y-75990163D01*
X132275663Y-76105154D01*
X132275659Y-76105158D01*
X132270470Y-76110348D01*
X132266619Y-76116590D01*
X132266616Y-76116595D01*
X132181234Y-76255020D01*
X132181230Y-76255027D01*
X132177385Y-76261262D01*
X132175079Y-76268219D01*
X132173163Y-76272330D01*
X132134635Y-76319830D01*
X132078279Y-76343591D01*
X132017373Y-76338015D01*
X131966268Y-76304417D01*
X131856272Y-76184930D01*
X131856267Y-76184925D01*
X131852740Y-76181094D01*
X131675076Y-76042811D01*
X131670497Y-76040333D01*
X131670494Y-76040331D01*
X131481659Y-75938139D01*
X131481656Y-75938137D01*
X131477074Y-75935658D01*
X131472150Y-75933967D01*
X131472142Y-75933964D01*
X131269065Y-75864248D01*
X131269059Y-75864246D01*
X131264135Y-75862556D01*
X131258998Y-75861698D01*
X131258995Y-75861698D01*
X131047206Y-75826357D01*
X131047203Y-75826356D01*
X131042069Y-75825500D01*
X130816931Y-75825500D01*
X130811797Y-75826356D01*
X130811793Y-75826357D01*
X130600004Y-75861698D01*
X130599998Y-75861699D01*
X130594865Y-75862556D01*
X130589943Y-75864245D01*
X130589934Y-75864248D01*
X130386857Y-75933964D01*
X130386844Y-75933969D01*
X130381926Y-75935658D01*
X130377347Y-75938135D01*
X130377340Y-75938139D01*
X130188505Y-76040331D01*
X130188497Y-76040336D01*
X130183924Y-76042811D01*
X130179813Y-76046010D01*
X130179811Y-76046012D01*
X130010378Y-76177888D01*
X130010372Y-76177893D01*
X130006260Y-76181094D01*
X130002737Y-76184919D01*
X130002727Y-76184930D01*
X129857306Y-76342899D01*
X129857302Y-76342902D01*
X129853778Y-76346732D01*
X129850930Y-76351090D01*
X129850927Y-76351095D01*
X129733492Y-76530843D01*
X129730640Y-76535209D01*
X129728548Y-76539978D01*
X129728546Y-76539982D01*
X129642299Y-76736606D01*
X129642296Y-76736614D01*
X129640204Y-76741384D01*
X129584936Y-76959632D01*
X129584506Y-76964820D01*
X129584505Y-76964827D01*
X129567409Y-77171147D01*
X129566344Y-77184000D01*
X120371499Y-77184000D01*
X120371499Y-76533456D01*
X120360887Y-76429574D01*
X120305115Y-76261262D01*
X120282624Y-76224799D01*
X120215883Y-76116595D01*
X120212030Y-76110348D01*
X120086652Y-75984970D01*
X120054827Y-75965340D01*
X119941981Y-75895735D01*
X119941976Y-75895732D01*
X119935738Y-75891885D01*
X119928776Y-75889578D01*
X119928774Y-75889577D01*
X119773951Y-75838275D01*
X119773949Y-75838274D01*
X119767426Y-75836113D01*
X119760589Y-75835414D01*
X119760587Y-75835414D01*
X119666729Y-75825825D01*
X119666723Y-75825824D01*
X119663545Y-75825500D01*
X119660339Y-75825500D01*
X118365661Y-75825500D01*
X118365641Y-75825500D01*
X118362456Y-75825501D01*
X118359279Y-75825825D01*
X118359270Y-75825826D01*
X118265411Y-75835414D01*
X118265405Y-75835415D01*
X118258574Y-75836113D01*
X118252058Y-75838271D01*
X118252049Y-75838274D01*
X118097225Y-75889577D01*
X118097219Y-75889579D01*
X118090262Y-75891885D01*
X118084026Y-75895730D01*
X118084018Y-75895735D01*
X117945595Y-75981116D01*
X117945590Y-75981119D01*
X117939348Y-75984970D01*
X117934158Y-75990159D01*
X117934154Y-75990163D01*
X117819163Y-76105154D01*
X117819159Y-76105158D01*
X117813970Y-76110348D01*
X117810119Y-76116590D01*
X117810116Y-76116595D01*
X117724734Y-76255020D01*
X117724730Y-76255027D01*
X117720885Y-76261262D01*
X117718579Y-76268219D01*
X117716663Y-76272330D01*
X117678135Y-76319830D01*
X117621779Y-76343591D01*
X117560873Y-76338015D01*
X117509768Y-76304417D01*
X117399772Y-76184930D01*
X117399767Y-76184925D01*
X117396240Y-76181094D01*
X117218576Y-76042811D01*
X117213997Y-76040333D01*
X117213994Y-76040331D01*
X117025159Y-75938139D01*
X117025156Y-75938137D01*
X117020574Y-75935658D01*
X117015650Y-75933967D01*
X117015642Y-75933964D01*
X116812565Y-75864248D01*
X116812559Y-75864246D01*
X116807635Y-75862556D01*
X116802498Y-75861698D01*
X116802495Y-75861698D01*
X116590706Y-75826357D01*
X116590703Y-75826356D01*
X116585569Y-75825500D01*
X116360431Y-75825500D01*
X116355297Y-75826356D01*
X116355293Y-75826357D01*
X116143504Y-75861698D01*
X116143498Y-75861699D01*
X116138365Y-75862556D01*
X116133443Y-75864245D01*
X116133434Y-75864248D01*
X115930357Y-75933964D01*
X115930344Y-75933969D01*
X115925426Y-75935658D01*
X115920847Y-75938135D01*
X115920840Y-75938139D01*
X115732005Y-76040331D01*
X115731997Y-76040336D01*
X115727424Y-76042811D01*
X115723313Y-76046010D01*
X115723311Y-76046012D01*
X115553878Y-76177888D01*
X115553872Y-76177893D01*
X115549760Y-76181094D01*
X115546237Y-76184919D01*
X115546227Y-76184930D01*
X115400806Y-76342899D01*
X115400802Y-76342902D01*
X115397278Y-76346732D01*
X115394430Y-76351090D01*
X115394427Y-76351095D01*
X115276992Y-76530843D01*
X115274140Y-76535209D01*
X115272048Y-76539978D01*
X115272046Y-76539982D01*
X115185799Y-76736606D01*
X115185796Y-76736614D01*
X115183704Y-76741384D01*
X115128436Y-76959632D01*
X115128006Y-76964820D01*
X115128005Y-76964827D01*
X115110909Y-77171147D01*
X115109844Y-77184000D01*
X105914999Y-77184000D01*
X105914999Y-76533456D01*
X105904387Y-76429574D01*
X105848615Y-76261262D01*
X105826124Y-76224799D01*
X105759383Y-76116595D01*
X105755530Y-76110348D01*
X105630152Y-75984970D01*
X105598327Y-75965340D01*
X105485481Y-75895735D01*
X105485476Y-75895732D01*
X105479238Y-75891885D01*
X105472276Y-75889578D01*
X105472274Y-75889577D01*
X105317451Y-75838275D01*
X105317449Y-75838274D01*
X105310926Y-75836113D01*
X105304089Y-75835414D01*
X105304087Y-75835414D01*
X105210229Y-75825825D01*
X105210223Y-75825824D01*
X105207045Y-75825500D01*
X105203839Y-75825500D01*
X103909161Y-75825500D01*
X103909141Y-75825500D01*
X103905956Y-75825501D01*
X103902779Y-75825825D01*
X103902770Y-75825826D01*
X103808911Y-75835414D01*
X103808905Y-75835415D01*
X103802074Y-75836113D01*
X103795558Y-75838271D01*
X103795549Y-75838274D01*
X103640725Y-75889577D01*
X103640719Y-75889579D01*
X103633762Y-75891885D01*
X103627526Y-75895730D01*
X103627518Y-75895735D01*
X103489095Y-75981116D01*
X103489090Y-75981119D01*
X103482848Y-75984970D01*
X103477658Y-75990159D01*
X103477654Y-75990163D01*
X103362663Y-76105154D01*
X103362659Y-76105158D01*
X103357470Y-76110348D01*
X103353619Y-76116590D01*
X103353616Y-76116595D01*
X103268234Y-76255020D01*
X103268230Y-76255027D01*
X103264385Y-76261262D01*
X103262079Y-76268219D01*
X103260163Y-76272330D01*
X103221635Y-76319830D01*
X103165279Y-76343591D01*
X103104373Y-76338015D01*
X103053268Y-76304417D01*
X102943272Y-76184930D01*
X102943267Y-76184925D01*
X102939740Y-76181094D01*
X102762076Y-76042811D01*
X102757497Y-76040333D01*
X102757494Y-76040331D01*
X102568659Y-75938139D01*
X102568656Y-75938137D01*
X102564074Y-75935658D01*
X102559150Y-75933967D01*
X102559142Y-75933964D01*
X102356065Y-75864248D01*
X102356059Y-75864246D01*
X102351135Y-75862556D01*
X102345998Y-75861698D01*
X102345995Y-75861698D01*
X102134206Y-75826357D01*
X102134203Y-75826356D01*
X102129069Y-75825500D01*
X101903931Y-75825500D01*
X101898797Y-75826356D01*
X101898793Y-75826357D01*
X101687004Y-75861698D01*
X101686998Y-75861699D01*
X101681865Y-75862556D01*
X101676943Y-75864245D01*
X101676934Y-75864248D01*
X101473857Y-75933964D01*
X101473844Y-75933969D01*
X101468926Y-75935658D01*
X101464347Y-75938135D01*
X101464340Y-75938139D01*
X101275505Y-76040331D01*
X101275497Y-76040336D01*
X101270924Y-76042811D01*
X101266813Y-76046010D01*
X101266811Y-76046012D01*
X101097378Y-76177888D01*
X101097372Y-76177893D01*
X101093260Y-76181094D01*
X101089737Y-76184919D01*
X101089727Y-76184930D01*
X100944306Y-76342899D01*
X100944302Y-76342902D01*
X100940778Y-76346732D01*
X100937930Y-76351090D01*
X100937927Y-76351095D01*
X100820492Y-76530843D01*
X100817640Y-76535209D01*
X100815548Y-76539978D01*
X100815546Y-76539982D01*
X100729299Y-76736606D01*
X100729296Y-76736614D01*
X100727204Y-76741384D01*
X100671936Y-76959632D01*
X100671506Y-76964820D01*
X100671505Y-76964827D01*
X100654409Y-77171147D01*
X100653344Y-77184000D01*
X91458499Y-77184000D01*
X91458499Y-76533456D01*
X91447887Y-76429574D01*
X91392115Y-76261262D01*
X91369624Y-76224799D01*
X91302883Y-76116595D01*
X91299030Y-76110348D01*
X91173652Y-75984970D01*
X91141827Y-75965340D01*
X91028981Y-75895735D01*
X91028976Y-75895732D01*
X91022738Y-75891885D01*
X91015776Y-75889578D01*
X91015774Y-75889577D01*
X90860951Y-75838275D01*
X90860949Y-75838274D01*
X90854426Y-75836113D01*
X90847589Y-75835414D01*
X90847587Y-75835414D01*
X90753729Y-75825825D01*
X90753723Y-75825824D01*
X90750545Y-75825500D01*
X90747339Y-75825500D01*
X89452661Y-75825500D01*
X89452641Y-75825500D01*
X89449456Y-75825501D01*
X89446279Y-75825825D01*
X89446270Y-75825826D01*
X89352411Y-75835414D01*
X89352405Y-75835415D01*
X89345574Y-75836113D01*
X89339058Y-75838271D01*
X89339049Y-75838274D01*
X89184225Y-75889577D01*
X89184219Y-75889579D01*
X89177262Y-75891885D01*
X89171026Y-75895730D01*
X89171018Y-75895735D01*
X89032595Y-75981116D01*
X89032590Y-75981119D01*
X89026348Y-75984970D01*
X89021158Y-75990159D01*
X89021154Y-75990163D01*
X88906163Y-76105154D01*
X88906159Y-76105158D01*
X88900970Y-76110348D01*
X88897119Y-76116590D01*
X88897116Y-76116595D01*
X88811734Y-76255020D01*
X88811730Y-76255027D01*
X88807885Y-76261262D01*
X88805579Y-76268219D01*
X88803663Y-76272330D01*
X88765135Y-76319830D01*
X88708779Y-76343591D01*
X88647873Y-76338015D01*
X88596768Y-76304417D01*
X88486772Y-76184930D01*
X88486767Y-76184925D01*
X88483240Y-76181094D01*
X88305576Y-76042811D01*
X88300997Y-76040333D01*
X88300994Y-76040331D01*
X88112159Y-75938139D01*
X88112156Y-75938137D01*
X88107574Y-75935658D01*
X88102650Y-75933967D01*
X88102642Y-75933964D01*
X87899565Y-75864248D01*
X87899559Y-75864246D01*
X87894635Y-75862556D01*
X87889498Y-75861698D01*
X87889495Y-75861698D01*
X87677706Y-75826357D01*
X87677703Y-75826356D01*
X87672569Y-75825500D01*
X87447431Y-75825500D01*
X87442297Y-75826356D01*
X87442293Y-75826357D01*
X87230504Y-75861698D01*
X87230498Y-75861699D01*
X87225365Y-75862556D01*
X87220443Y-75864245D01*
X87220434Y-75864248D01*
X87017357Y-75933964D01*
X87017344Y-75933969D01*
X87012426Y-75935658D01*
X87007847Y-75938135D01*
X87007840Y-75938139D01*
X86819005Y-76040331D01*
X86818997Y-76040336D01*
X86814424Y-76042811D01*
X86810313Y-76046010D01*
X86810311Y-76046012D01*
X86640878Y-76177888D01*
X86640872Y-76177893D01*
X86636760Y-76181094D01*
X86633237Y-76184919D01*
X86633227Y-76184930D01*
X86487806Y-76342899D01*
X86487802Y-76342902D01*
X86484278Y-76346732D01*
X86481430Y-76351090D01*
X86481427Y-76351095D01*
X86363992Y-76530843D01*
X86361140Y-76535209D01*
X86359048Y-76539978D01*
X86359046Y-76539982D01*
X86272799Y-76736606D01*
X86272796Y-76736614D01*
X86270704Y-76741384D01*
X86215436Y-76959632D01*
X86215006Y-76964820D01*
X86215005Y-76964827D01*
X86197909Y-77171147D01*
X86196844Y-77184000D01*
X83888500Y-77184000D01*
X83888500Y-68555417D01*
X83890051Y-68535707D01*
X83892252Y-68521810D01*
X83888672Y-68453519D01*
X83888500Y-68446926D01*
X83888500Y-68429680D01*
X83888500Y-68426390D01*
X83886353Y-68405962D01*
X83885836Y-68399403D01*
X83882257Y-68331097D01*
X83878615Y-68317509D01*
X83875013Y-68298073D01*
X83873542Y-68284072D01*
X83852405Y-68219021D01*
X83850531Y-68212694D01*
X83838467Y-68167668D01*
X83832830Y-68146630D01*
X83826440Y-68134089D01*
X83818873Y-68115822D01*
X83814527Y-68102444D01*
X83780326Y-68043207D01*
X83777195Y-68037441D01*
X83746129Y-67976470D01*
X83737272Y-67965532D01*
X83726074Y-67949239D01*
X83722341Y-67942774D01*
X83719040Y-67937056D01*
X83673264Y-67886216D01*
X83668999Y-67881222D01*
X83656072Y-67865259D01*
X83641555Y-67850742D01*
X83637015Y-67845958D01*
X83595672Y-67800042D01*
X83591253Y-67795134D01*
X83579865Y-67786860D01*
X83564832Y-67774019D01*
X82928457Y-67137644D01*
X82899248Y-67091911D01*
X82891983Y-67038141D01*
X82893156Y-67024000D01*
X86196844Y-67024000D01*
X86215436Y-67248368D01*
X86270704Y-67466616D01*
X86272797Y-67471389D01*
X86272799Y-67471393D01*
X86348147Y-67643170D01*
X86361140Y-67672791D01*
X86484278Y-67861268D01*
X86487806Y-67865100D01*
X86633227Y-68023069D01*
X86633231Y-68023073D01*
X86636760Y-68026906D01*
X86814424Y-68165189D01*
X87012426Y-68272342D01*
X87017355Y-68274034D01*
X87017357Y-68274035D01*
X87028301Y-68277792D01*
X87225365Y-68345444D01*
X87447431Y-68382500D01*
X87667358Y-68382500D01*
X87672569Y-68382500D01*
X87894635Y-68345444D01*
X88107574Y-68272342D01*
X88305576Y-68165189D01*
X88483240Y-68026906D01*
X88635722Y-67861268D01*
X88724518Y-67725354D01*
X88770030Y-67683457D01*
X88830000Y-67668271D01*
X88889970Y-67683457D01*
X88935481Y-67725354D01*
X89024278Y-67861268D01*
X89027806Y-67865100D01*
X89173227Y-68023069D01*
X89173231Y-68023073D01*
X89176760Y-68026906D01*
X89354424Y-68165189D01*
X89552426Y-68272342D01*
X89557355Y-68274034D01*
X89557357Y-68274035D01*
X89568301Y-68277792D01*
X89765365Y-68345444D01*
X89987431Y-68382500D01*
X90207358Y-68382500D01*
X90212569Y-68382500D01*
X90434635Y-68345444D01*
X90647574Y-68272342D01*
X90845576Y-68165189D01*
X91023240Y-68026906D01*
X91175722Y-67861268D01*
X91298860Y-67672791D01*
X91389296Y-67466616D01*
X91444564Y-67248368D01*
X91463156Y-67024000D01*
X100653344Y-67024000D01*
X100671936Y-67248368D01*
X100727204Y-67466616D01*
X100729297Y-67471389D01*
X100729299Y-67471393D01*
X100804647Y-67643170D01*
X100817640Y-67672791D01*
X100940778Y-67861268D01*
X100944306Y-67865100D01*
X101089727Y-68023069D01*
X101089731Y-68023073D01*
X101093260Y-68026906D01*
X101270924Y-68165189D01*
X101468926Y-68272342D01*
X101473855Y-68274034D01*
X101473857Y-68274035D01*
X101484801Y-68277792D01*
X101681865Y-68345444D01*
X101903931Y-68382500D01*
X102123858Y-68382500D01*
X102129069Y-68382500D01*
X102351135Y-68345444D01*
X102564074Y-68272342D01*
X102762076Y-68165189D01*
X102939740Y-68026906D01*
X103092222Y-67861268D01*
X103181018Y-67725354D01*
X103226530Y-67683457D01*
X103286500Y-67668271D01*
X103346470Y-67683457D01*
X103391981Y-67725354D01*
X103480778Y-67861268D01*
X103484306Y-67865100D01*
X103629727Y-68023069D01*
X103629731Y-68023073D01*
X103633260Y-68026906D01*
X103810924Y-68165189D01*
X104008926Y-68272342D01*
X104013855Y-68274034D01*
X104013857Y-68274035D01*
X104024801Y-68277792D01*
X104221865Y-68345444D01*
X104443931Y-68382500D01*
X104663858Y-68382500D01*
X104669069Y-68382500D01*
X104891135Y-68345444D01*
X105104074Y-68272342D01*
X105302076Y-68165189D01*
X105479740Y-68026906D01*
X105632222Y-67861268D01*
X105755360Y-67672791D01*
X105845796Y-67466616D01*
X105901064Y-67248368D01*
X105919656Y-67024000D01*
X115109844Y-67024000D01*
X115128436Y-67248368D01*
X115183704Y-67466616D01*
X115185797Y-67471389D01*
X115185799Y-67471393D01*
X115261147Y-67643170D01*
X115274140Y-67672791D01*
X115397278Y-67861268D01*
X115400806Y-67865100D01*
X115546227Y-68023069D01*
X115546231Y-68023073D01*
X115549760Y-68026906D01*
X115727424Y-68165189D01*
X115925426Y-68272342D01*
X115930355Y-68274034D01*
X115930357Y-68274035D01*
X115941301Y-68277792D01*
X116138365Y-68345444D01*
X116360431Y-68382500D01*
X116580358Y-68382500D01*
X116585569Y-68382500D01*
X116807635Y-68345444D01*
X117020574Y-68272342D01*
X117218576Y-68165189D01*
X117396240Y-68026906D01*
X117548722Y-67861268D01*
X117637518Y-67725354D01*
X117683030Y-67683457D01*
X117743000Y-67668271D01*
X117802970Y-67683457D01*
X117848481Y-67725354D01*
X117937278Y-67861268D01*
X117940806Y-67865100D01*
X118086227Y-68023069D01*
X118086231Y-68023073D01*
X118089760Y-68026906D01*
X118267424Y-68165189D01*
X118465426Y-68272342D01*
X118470355Y-68274034D01*
X118470357Y-68274035D01*
X118481301Y-68277792D01*
X118678365Y-68345444D01*
X118900431Y-68382500D01*
X119120358Y-68382500D01*
X119125569Y-68382500D01*
X119347635Y-68345444D01*
X119560574Y-68272342D01*
X119758576Y-68165189D01*
X119936240Y-68026906D01*
X120088722Y-67861268D01*
X120211860Y-67672791D01*
X120302296Y-67466616D01*
X120357564Y-67248368D01*
X120376156Y-67024000D01*
X129566344Y-67024000D01*
X129584936Y-67248368D01*
X129640204Y-67466616D01*
X129642297Y-67471389D01*
X129642299Y-67471393D01*
X129717647Y-67643170D01*
X129730640Y-67672791D01*
X129853778Y-67861268D01*
X129857306Y-67865100D01*
X130002727Y-68023069D01*
X130002731Y-68023073D01*
X130006260Y-68026906D01*
X130183924Y-68165189D01*
X130381926Y-68272342D01*
X130386855Y-68274034D01*
X130386857Y-68274035D01*
X130397801Y-68277792D01*
X130594865Y-68345444D01*
X130816931Y-68382500D01*
X131036858Y-68382500D01*
X131042069Y-68382500D01*
X131264135Y-68345444D01*
X131477074Y-68272342D01*
X131675076Y-68165189D01*
X131852740Y-68026906D01*
X132005222Y-67861268D01*
X132094018Y-67725354D01*
X132139530Y-67683457D01*
X132199500Y-67668271D01*
X132259470Y-67683457D01*
X132304981Y-67725354D01*
X132393778Y-67861268D01*
X132397306Y-67865100D01*
X132542727Y-68023069D01*
X132542731Y-68023073D01*
X132546260Y-68026906D01*
X132723924Y-68165189D01*
X132921926Y-68272342D01*
X132926855Y-68274034D01*
X132926857Y-68274035D01*
X132937801Y-68277792D01*
X133134865Y-68345444D01*
X133356931Y-68382500D01*
X133576858Y-68382500D01*
X133582069Y-68382500D01*
X133804135Y-68345444D01*
X134017074Y-68272342D01*
X134215076Y-68165189D01*
X134392740Y-68026906D01*
X134545222Y-67861268D01*
X134668360Y-67672791D01*
X134758796Y-67466616D01*
X134814064Y-67248368D01*
X134832656Y-67024000D01*
X144022844Y-67024000D01*
X144041436Y-67248368D01*
X144096704Y-67466616D01*
X144098797Y-67471389D01*
X144098799Y-67471393D01*
X144174147Y-67643170D01*
X144187140Y-67672791D01*
X144310278Y-67861268D01*
X144313806Y-67865100D01*
X144459227Y-68023069D01*
X144459231Y-68023073D01*
X144462760Y-68026906D01*
X144640424Y-68165189D01*
X144838426Y-68272342D01*
X144843355Y-68274034D01*
X144843357Y-68274035D01*
X144854301Y-68277792D01*
X145051365Y-68345444D01*
X145273431Y-68382500D01*
X145493358Y-68382500D01*
X145498569Y-68382500D01*
X145720635Y-68345444D01*
X145933574Y-68272342D01*
X146131576Y-68165189D01*
X146309240Y-68026906D01*
X146461722Y-67861268D01*
X146550518Y-67725354D01*
X146596030Y-67683457D01*
X146656000Y-67668271D01*
X146715970Y-67683457D01*
X146761481Y-67725354D01*
X146850278Y-67861268D01*
X146853806Y-67865100D01*
X146999227Y-68023069D01*
X146999231Y-68023073D01*
X147002760Y-68026906D01*
X147180424Y-68165189D01*
X147378426Y-68272342D01*
X147383355Y-68274034D01*
X147383357Y-68274035D01*
X147394301Y-68277792D01*
X147591365Y-68345444D01*
X147813431Y-68382500D01*
X148033358Y-68382500D01*
X148038569Y-68382500D01*
X148260635Y-68345444D01*
X148473574Y-68272342D01*
X148671576Y-68165189D01*
X148849240Y-68026906D01*
X149001722Y-67861268D01*
X149124860Y-67672791D01*
X149215296Y-67466616D01*
X149270564Y-67248368D01*
X149289156Y-67024000D01*
X158479344Y-67024000D01*
X158497936Y-67248368D01*
X158553204Y-67466616D01*
X158555297Y-67471389D01*
X158555299Y-67471393D01*
X158630647Y-67643170D01*
X158643640Y-67672791D01*
X158766778Y-67861268D01*
X158770306Y-67865100D01*
X158915727Y-68023069D01*
X158915731Y-68023073D01*
X158919260Y-68026906D01*
X159096924Y-68165189D01*
X159294926Y-68272342D01*
X159299855Y-68274034D01*
X159299857Y-68274035D01*
X159310801Y-68277792D01*
X159507865Y-68345444D01*
X159729931Y-68382500D01*
X159949858Y-68382500D01*
X159955069Y-68382500D01*
X160177135Y-68345444D01*
X160390074Y-68272342D01*
X160588076Y-68165189D01*
X160765740Y-68026906D01*
X160918222Y-67861268D01*
X161007018Y-67725354D01*
X161052530Y-67683457D01*
X161112500Y-67668271D01*
X161172470Y-67683457D01*
X161217981Y-67725354D01*
X161306778Y-67861268D01*
X161310306Y-67865100D01*
X161455727Y-68023069D01*
X161455731Y-68023073D01*
X161459260Y-68026906D01*
X161636924Y-68165189D01*
X161834926Y-68272342D01*
X161839855Y-68274034D01*
X161839857Y-68274035D01*
X161850801Y-68277792D01*
X162047865Y-68345444D01*
X162269931Y-68382500D01*
X162489858Y-68382500D01*
X162495069Y-68382500D01*
X162717135Y-68345444D01*
X162930074Y-68272342D01*
X163128076Y-68165189D01*
X163305740Y-68026906D01*
X163458222Y-67861268D01*
X163581360Y-67672791D01*
X163671796Y-67466616D01*
X163727064Y-67248368D01*
X163745656Y-67024000D01*
X165691844Y-67024000D01*
X165710436Y-67248368D01*
X165765704Y-67466616D01*
X165767797Y-67471389D01*
X165767799Y-67471393D01*
X165843147Y-67643170D01*
X165856140Y-67672791D01*
X165979278Y-67861268D01*
X165982806Y-67865100D01*
X166128227Y-68023069D01*
X166128231Y-68023073D01*
X166131760Y-68026906D01*
X166309424Y-68165189D01*
X166507426Y-68272342D01*
X166512355Y-68274034D01*
X166512357Y-68274035D01*
X166523301Y-68277792D01*
X166720365Y-68345444D01*
X166942431Y-68382500D01*
X167162358Y-68382500D01*
X167167569Y-68382500D01*
X167389635Y-68345444D01*
X167602574Y-68272342D01*
X167800576Y-68165189D01*
X167978240Y-68026906D01*
X168130722Y-67861268D01*
X168253860Y-67672791D01*
X168344296Y-67466616D01*
X168399564Y-67248368D01*
X168418156Y-67024000D01*
X168399564Y-66799632D01*
X168344296Y-66581384D01*
X168253860Y-66375209D01*
X168130722Y-66186732D01*
X168069956Y-66120723D01*
X167981772Y-66024930D01*
X167981767Y-66024925D01*
X167978240Y-66021094D01*
X167800576Y-65882811D01*
X167795997Y-65880333D01*
X167795994Y-65880331D01*
X167767318Y-65864812D01*
X167719047Y-65818494D01*
X167701289Y-65753996D01*
X167719050Y-65689499D01*
X167767321Y-65643185D01*
X167800576Y-65625189D01*
X167978240Y-65486906D01*
X168130722Y-65321268D01*
X168253860Y-65132791D01*
X168344296Y-64926616D01*
X168399564Y-64708368D01*
X168418156Y-64484000D01*
X168399564Y-64259632D01*
X168344296Y-64041384D01*
X168253860Y-63835209D01*
X168130722Y-63646732D01*
X168069956Y-63580723D01*
X167981772Y-63484930D01*
X167981767Y-63484925D01*
X167978240Y-63481094D01*
X167800576Y-63342811D01*
X167796002Y-63340336D01*
X167795995Y-63340331D01*
X167767320Y-63324814D01*
X167719048Y-63278498D01*
X167701289Y-63214000D01*
X167719048Y-63149502D01*
X167767320Y-63103186D01*
X167795990Y-63087671D01*
X167800576Y-63085189D01*
X167978240Y-62946906D01*
X168130722Y-62781268D01*
X168253860Y-62592791D01*
X168344296Y-62386616D01*
X168399564Y-62168368D01*
X168418156Y-61944000D01*
X168399564Y-61719632D01*
X168344296Y-61501384D01*
X168253860Y-61295209D01*
X168130722Y-61106732D01*
X168069956Y-61040723D01*
X167981772Y-60944930D01*
X167981767Y-60944925D01*
X167978240Y-60941094D01*
X167800576Y-60802811D01*
X167796002Y-60800336D01*
X167795995Y-60800331D01*
X167767320Y-60784814D01*
X167719048Y-60738498D01*
X167701289Y-60674000D01*
X167719048Y-60609502D01*
X167767320Y-60563186D01*
X167795995Y-60547668D01*
X167795994Y-60547668D01*
X167800576Y-60545189D01*
X167978240Y-60406906D01*
X168130722Y-60241268D01*
X168253860Y-60052791D01*
X168344296Y-59846616D01*
X168399564Y-59628368D01*
X168418156Y-59404000D01*
X168399564Y-59179632D01*
X168344296Y-58961384D01*
X168253860Y-58755209D01*
X168130722Y-58566732D01*
X168069956Y-58500723D01*
X167981772Y-58404930D01*
X167981767Y-58404925D01*
X167978240Y-58401094D01*
X167800576Y-58262811D01*
X167795997Y-58260333D01*
X167795994Y-58260331D01*
X167607159Y-58158139D01*
X167607156Y-58158137D01*
X167602574Y-58155658D01*
X167597650Y-58153967D01*
X167597642Y-58153964D01*
X167394565Y-58084248D01*
X167394559Y-58084246D01*
X167389635Y-58082556D01*
X167384498Y-58081698D01*
X167384495Y-58081698D01*
X167172706Y-58046357D01*
X167172703Y-58046356D01*
X167167569Y-58045500D01*
X166942431Y-58045500D01*
X166937297Y-58046356D01*
X166937293Y-58046357D01*
X166725504Y-58081698D01*
X166725498Y-58081699D01*
X166720365Y-58082556D01*
X166715443Y-58084245D01*
X166715434Y-58084248D01*
X166512357Y-58153964D01*
X166512344Y-58153969D01*
X166507426Y-58155658D01*
X166502847Y-58158135D01*
X166502840Y-58158139D01*
X166314005Y-58260331D01*
X166313997Y-58260336D01*
X166309424Y-58262811D01*
X166305313Y-58266010D01*
X166305311Y-58266012D01*
X166135878Y-58397888D01*
X166135872Y-58397893D01*
X166131760Y-58401094D01*
X166128237Y-58404919D01*
X166128227Y-58404930D01*
X165982806Y-58562899D01*
X165982802Y-58562902D01*
X165979278Y-58566732D01*
X165976430Y-58571090D01*
X165976427Y-58571095D01*
X165890483Y-58702643D01*
X165856140Y-58755209D01*
X165854048Y-58759978D01*
X165854046Y-58759982D01*
X165767799Y-58956606D01*
X165767796Y-58956614D01*
X165765704Y-58961384D01*
X165710436Y-59179632D01*
X165710006Y-59184820D01*
X165710005Y-59184827D01*
X165692909Y-59391147D01*
X165691844Y-59404000D01*
X165710436Y-59628368D01*
X165765704Y-59846616D01*
X165767797Y-59851389D01*
X165767799Y-59851393D01*
X165843147Y-60023170D01*
X165856140Y-60052791D01*
X165979278Y-60241268D01*
X165982806Y-60245100D01*
X166128227Y-60403069D01*
X166128231Y-60403073D01*
X166131760Y-60406906D01*
X166309424Y-60545189D01*
X166342680Y-60563186D01*
X166390950Y-60609499D01*
X166408710Y-60673996D01*
X166390953Y-60738494D01*
X166342683Y-60784811D01*
X166314005Y-60800331D01*
X166313997Y-60800336D01*
X166309424Y-60802811D01*
X166305313Y-60806010D01*
X166305311Y-60806012D01*
X166135878Y-60937888D01*
X166135872Y-60937893D01*
X166131760Y-60941094D01*
X166128237Y-60944919D01*
X166128227Y-60944930D01*
X165982806Y-61102899D01*
X165982802Y-61102902D01*
X165979278Y-61106732D01*
X165976430Y-61111090D01*
X165976427Y-61111095D01*
X165890483Y-61242643D01*
X165856140Y-61295209D01*
X165854048Y-61299978D01*
X165854046Y-61299982D01*
X165767799Y-61496606D01*
X165767796Y-61496614D01*
X165765704Y-61501384D01*
X165710436Y-61719632D01*
X165710006Y-61724820D01*
X165710005Y-61724827D01*
X165692909Y-61931147D01*
X165691844Y-61944000D01*
X165710436Y-62168368D01*
X165765704Y-62386616D01*
X165767797Y-62391389D01*
X165767799Y-62391393D01*
X165843147Y-62563170D01*
X165856140Y-62592791D01*
X165979278Y-62781268D01*
X165982806Y-62785100D01*
X166128227Y-62943069D01*
X166128231Y-62943073D01*
X166131760Y-62946906D01*
X166309424Y-63085189D01*
X166314002Y-63087666D01*
X166314009Y-63087671D01*
X166342680Y-63103187D01*
X166390951Y-63149503D01*
X166408710Y-63214000D01*
X166390951Y-63278497D01*
X166342680Y-63324813D01*
X166314009Y-63340328D01*
X166313993Y-63340338D01*
X166309424Y-63342811D01*
X166305313Y-63346010D01*
X166305311Y-63346012D01*
X166135878Y-63477888D01*
X166135872Y-63477893D01*
X166131760Y-63481094D01*
X166128237Y-63484919D01*
X166128227Y-63484930D01*
X165982806Y-63642899D01*
X165982802Y-63642902D01*
X165979278Y-63646732D01*
X165976430Y-63651090D01*
X165976427Y-63651095D01*
X165890483Y-63782643D01*
X165856140Y-63835209D01*
X165854048Y-63839978D01*
X165854046Y-63839982D01*
X165767799Y-64036606D01*
X165767796Y-64036614D01*
X165765704Y-64041384D01*
X165710436Y-64259632D01*
X165710006Y-64264820D01*
X165710005Y-64264827D01*
X165692909Y-64471147D01*
X165691844Y-64484000D01*
X165710436Y-64708368D01*
X165765704Y-64926616D01*
X165767797Y-64931389D01*
X165767799Y-64931393D01*
X165843147Y-65103170D01*
X165856140Y-65132791D01*
X165979278Y-65321268D01*
X165982806Y-65325100D01*
X166128227Y-65483069D01*
X166128231Y-65483073D01*
X166131760Y-65486906D01*
X166309424Y-65625189D01*
X166342680Y-65643186D01*
X166390950Y-65689499D01*
X166408710Y-65753996D01*
X166390953Y-65818494D01*
X166342683Y-65864811D01*
X166314005Y-65880331D01*
X166313997Y-65880336D01*
X166309424Y-65882811D01*
X166305313Y-65886010D01*
X166305311Y-65886012D01*
X166135878Y-66017888D01*
X166135872Y-66017893D01*
X166131760Y-66021094D01*
X166128237Y-66024919D01*
X166128227Y-66024930D01*
X165982806Y-66182899D01*
X165982802Y-66182902D01*
X165979278Y-66186732D01*
X165976430Y-66191090D01*
X165976427Y-66191095D01*
X165890483Y-66322643D01*
X165856140Y-66375209D01*
X165854048Y-66379978D01*
X165854046Y-66379982D01*
X165767799Y-66576606D01*
X165767796Y-66576614D01*
X165765704Y-66581384D01*
X165710436Y-66799632D01*
X165710006Y-66804820D01*
X165710005Y-66804827D01*
X165692909Y-67011147D01*
X165691844Y-67024000D01*
X163745656Y-67024000D01*
X163727064Y-66799632D01*
X163671796Y-66581384D01*
X163581360Y-66375209D01*
X163458222Y-66186732D01*
X163397456Y-66120723D01*
X163309272Y-66024930D01*
X163309267Y-66024925D01*
X163305740Y-66021094D01*
X163128076Y-65882811D01*
X163123497Y-65880333D01*
X163123494Y-65880331D01*
X163094818Y-65864812D01*
X163046547Y-65818494D01*
X163028789Y-65753996D01*
X163046550Y-65689499D01*
X163094821Y-65643185D01*
X163128076Y-65625189D01*
X163305740Y-65486906D01*
X163458222Y-65321268D01*
X163581360Y-65132791D01*
X163671796Y-64926616D01*
X163727064Y-64708368D01*
X163745656Y-64484000D01*
X163727064Y-64259632D01*
X163671796Y-64041384D01*
X163581360Y-63835209D01*
X163458222Y-63646732D01*
X163397456Y-63580723D01*
X163309272Y-63484930D01*
X163309267Y-63484925D01*
X163305740Y-63481094D01*
X163128076Y-63342811D01*
X163123502Y-63340336D01*
X163123495Y-63340331D01*
X163094820Y-63324814D01*
X163046548Y-63278498D01*
X163028789Y-63214000D01*
X163046548Y-63149502D01*
X163094820Y-63103186D01*
X163123490Y-63087671D01*
X163128076Y-63085189D01*
X163305740Y-62946906D01*
X163458222Y-62781268D01*
X163581360Y-62592791D01*
X163671796Y-62386616D01*
X163727064Y-62168368D01*
X163745656Y-61944000D01*
X163727064Y-61719632D01*
X163671796Y-61501384D01*
X163581360Y-61295209D01*
X163458222Y-61106732D01*
X163397456Y-61040723D01*
X163309272Y-60944930D01*
X163309267Y-60944925D01*
X163305740Y-60941094D01*
X163128076Y-60802811D01*
X163123502Y-60800336D01*
X163123495Y-60800331D01*
X163094820Y-60784814D01*
X163046548Y-60738498D01*
X163028789Y-60674000D01*
X163046548Y-60609502D01*
X163094820Y-60563186D01*
X163123495Y-60547668D01*
X163123494Y-60547668D01*
X163128076Y-60545189D01*
X163305740Y-60406906D01*
X163458222Y-60241268D01*
X163581360Y-60052791D01*
X163671796Y-59846616D01*
X163727064Y-59628368D01*
X163745656Y-59404000D01*
X163727064Y-59179632D01*
X163671796Y-58961384D01*
X163581360Y-58755209D01*
X163458222Y-58566732D01*
X163397456Y-58500723D01*
X163309272Y-58404930D01*
X163309267Y-58404925D01*
X163305740Y-58401094D01*
X163128076Y-58262811D01*
X163123497Y-58260333D01*
X163123494Y-58260331D01*
X162934659Y-58158139D01*
X162934656Y-58158137D01*
X162930074Y-58155658D01*
X162925150Y-58153967D01*
X162925142Y-58153964D01*
X162722065Y-58084248D01*
X162722059Y-58084246D01*
X162717135Y-58082556D01*
X162711998Y-58081698D01*
X162711995Y-58081698D01*
X162500206Y-58046357D01*
X162500203Y-58046356D01*
X162495069Y-58045500D01*
X162269931Y-58045500D01*
X162264797Y-58046356D01*
X162264793Y-58046357D01*
X162053004Y-58081698D01*
X162052998Y-58081699D01*
X162047865Y-58082556D01*
X162042943Y-58084245D01*
X162042934Y-58084248D01*
X161839857Y-58153964D01*
X161839844Y-58153969D01*
X161834926Y-58155658D01*
X161830347Y-58158135D01*
X161830340Y-58158139D01*
X161641505Y-58260331D01*
X161641497Y-58260336D01*
X161636924Y-58262811D01*
X161632813Y-58266010D01*
X161632811Y-58266012D01*
X161463378Y-58397888D01*
X161463372Y-58397893D01*
X161459260Y-58401094D01*
X161455737Y-58404919D01*
X161455727Y-58404930D01*
X161310306Y-58562899D01*
X161310302Y-58562902D01*
X161306778Y-58566732D01*
X161303930Y-58571090D01*
X161303927Y-58571095D01*
X161217983Y-58702643D01*
X161172469Y-58744542D01*
X161112500Y-58759728D01*
X161052531Y-58744542D01*
X161007017Y-58702643D01*
X160921072Y-58571095D01*
X160918222Y-58566732D01*
X160857456Y-58500723D01*
X160769272Y-58404930D01*
X160769267Y-58404925D01*
X160765740Y-58401094D01*
X160588076Y-58262811D01*
X160583497Y-58260333D01*
X160583494Y-58260331D01*
X160394659Y-58158139D01*
X160394656Y-58158137D01*
X160390074Y-58155658D01*
X160385150Y-58153967D01*
X160385142Y-58153964D01*
X160182065Y-58084248D01*
X160182059Y-58084246D01*
X160177135Y-58082556D01*
X160171998Y-58081698D01*
X160171995Y-58081698D01*
X159960206Y-58046357D01*
X159960203Y-58046356D01*
X159955069Y-58045500D01*
X159729931Y-58045500D01*
X159724797Y-58046356D01*
X159724793Y-58046357D01*
X159513004Y-58081698D01*
X159512998Y-58081699D01*
X159507865Y-58082556D01*
X159502943Y-58084245D01*
X159502934Y-58084248D01*
X159299857Y-58153964D01*
X159299844Y-58153969D01*
X159294926Y-58155658D01*
X159290347Y-58158135D01*
X159290340Y-58158139D01*
X159101505Y-58260331D01*
X159101497Y-58260336D01*
X159096924Y-58262811D01*
X159092813Y-58266010D01*
X159092811Y-58266012D01*
X158923378Y-58397888D01*
X158923372Y-58397893D01*
X158919260Y-58401094D01*
X158915737Y-58404919D01*
X158915727Y-58404930D01*
X158770306Y-58562899D01*
X158770302Y-58562902D01*
X158766778Y-58566732D01*
X158763930Y-58571090D01*
X158763927Y-58571095D01*
X158677983Y-58702643D01*
X158643640Y-58755209D01*
X158641548Y-58759978D01*
X158641546Y-58759982D01*
X158555299Y-58956606D01*
X158555296Y-58956614D01*
X158553204Y-58961384D01*
X158497936Y-59179632D01*
X158497506Y-59184820D01*
X158497505Y-59184827D01*
X158480409Y-59391147D01*
X158479344Y-59404000D01*
X158497936Y-59628368D01*
X158553204Y-59846616D01*
X158555297Y-59851389D01*
X158555299Y-59851393D01*
X158630647Y-60023170D01*
X158643640Y-60052791D01*
X158766778Y-60241268D01*
X158770306Y-60245100D01*
X158915727Y-60403069D01*
X158915731Y-60403073D01*
X158919260Y-60406906D01*
X159096924Y-60545189D01*
X159130180Y-60563186D01*
X159178450Y-60609499D01*
X159196210Y-60673996D01*
X159178453Y-60738494D01*
X159130183Y-60784811D01*
X159101505Y-60800331D01*
X159101497Y-60800336D01*
X159096924Y-60802811D01*
X159092813Y-60806010D01*
X159092811Y-60806012D01*
X158923378Y-60937888D01*
X158923372Y-60937893D01*
X158919260Y-60941094D01*
X158915737Y-60944919D01*
X158915727Y-60944930D01*
X158770306Y-61102899D01*
X158770302Y-61102902D01*
X158766778Y-61106732D01*
X158763930Y-61111090D01*
X158763927Y-61111095D01*
X158677983Y-61242643D01*
X158643640Y-61295209D01*
X158641548Y-61299978D01*
X158641546Y-61299982D01*
X158555299Y-61496606D01*
X158555296Y-61496614D01*
X158553204Y-61501384D01*
X158497936Y-61719632D01*
X158497506Y-61724820D01*
X158497505Y-61724827D01*
X158480409Y-61931147D01*
X158479344Y-61944000D01*
X158497936Y-62168368D01*
X158553204Y-62386616D01*
X158555297Y-62391389D01*
X158555299Y-62391393D01*
X158630647Y-62563170D01*
X158643640Y-62592791D01*
X158766778Y-62781268D01*
X158770306Y-62785100D01*
X158915727Y-62943069D01*
X158915731Y-62943073D01*
X158919260Y-62946906D01*
X159096924Y-63085189D01*
X159101502Y-63087666D01*
X159101509Y-63087671D01*
X159130180Y-63103187D01*
X159178451Y-63149503D01*
X159196210Y-63214000D01*
X159178451Y-63278497D01*
X159130180Y-63324813D01*
X159101509Y-63340328D01*
X159101493Y-63340338D01*
X159096924Y-63342811D01*
X159092813Y-63346010D01*
X159092811Y-63346012D01*
X158923378Y-63477888D01*
X158923372Y-63477893D01*
X158919260Y-63481094D01*
X158915737Y-63484919D01*
X158915727Y-63484930D01*
X158770306Y-63642899D01*
X158770302Y-63642902D01*
X158766778Y-63646732D01*
X158763930Y-63651090D01*
X158763927Y-63651095D01*
X158677983Y-63782643D01*
X158643640Y-63835209D01*
X158641548Y-63839978D01*
X158641546Y-63839982D01*
X158555299Y-64036606D01*
X158555296Y-64036614D01*
X158553204Y-64041384D01*
X158497936Y-64259632D01*
X158497506Y-64264820D01*
X158497505Y-64264827D01*
X158480409Y-64471147D01*
X158479344Y-64484000D01*
X158497936Y-64708368D01*
X158553204Y-64926616D01*
X158555297Y-64931389D01*
X158555299Y-64931393D01*
X158630647Y-65103170D01*
X158643640Y-65132791D01*
X158766778Y-65321268D01*
X158770306Y-65325100D01*
X158915727Y-65483069D01*
X158915731Y-65483073D01*
X158919260Y-65486906D01*
X159096924Y-65625189D01*
X159130180Y-65643186D01*
X159178450Y-65689499D01*
X159196210Y-65753996D01*
X159178453Y-65818494D01*
X159130183Y-65864811D01*
X159101505Y-65880331D01*
X159101497Y-65880336D01*
X159096924Y-65882811D01*
X159092813Y-65886010D01*
X159092811Y-65886012D01*
X158923378Y-66017888D01*
X158923372Y-66017893D01*
X158919260Y-66021094D01*
X158915737Y-66024919D01*
X158915727Y-66024930D01*
X158770306Y-66182899D01*
X158770302Y-66182902D01*
X158766778Y-66186732D01*
X158763930Y-66191090D01*
X158763927Y-66191095D01*
X158677983Y-66322643D01*
X158643640Y-66375209D01*
X158641548Y-66379978D01*
X158641546Y-66379982D01*
X158555299Y-66576606D01*
X158555296Y-66576614D01*
X158553204Y-66581384D01*
X158497936Y-66799632D01*
X158497506Y-66804820D01*
X158497505Y-66804827D01*
X158480409Y-67011147D01*
X158479344Y-67024000D01*
X149289156Y-67024000D01*
X149270564Y-66799632D01*
X149215296Y-66581384D01*
X149124860Y-66375209D01*
X149001722Y-66186732D01*
X148940956Y-66120723D01*
X148852772Y-66024930D01*
X148852767Y-66024925D01*
X148849240Y-66021094D01*
X148671576Y-65882811D01*
X148666997Y-65880333D01*
X148666994Y-65880331D01*
X148638318Y-65864812D01*
X148590047Y-65818494D01*
X148572289Y-65753996D01*
X148590050Y-65689499D01*
X148638321Y-65643185D01*
X148671576Y-65625189D01*
X148849240Y-65486906D01*
X149001722Y-65321268D01*
X149124860Y-65132791D01*
X149215296Y-64926616D01*
X149270564Y-64708368D01*
X149289156Y-64484000D01*
X149270564Y-64259632D01*
X149215296Y-64041384D01*
X149124860Y-63835209D01*
X149001722Y-63646732D01*
X148940956Y-63580723D01*
X148852772Y-63484930D01*
X148852767Y-63484925D01*
X148849240Y-63481094D01*
X148671576Y-63342811D01*
X148667002Y-63340336D01*
X148666995Y-63340331D01*
X148638320Y-63324814D01*
X148590048Y-63278498D01*
X148572289Y-63214000D01*
X148590048Y-63149502D01*
X148638320Y-63103186D01*
X148666990Y-63087671D01*
X148671576Y-63085189D01*
X148849240Y-62946906D01*
X149001722Y-62781268D01*
X149124860Y-62592791D01*
X149215296Y-62386616D01*
X149270564Y-62168368D01*
X149289156Y-61944000D01*
X149270564Y-61719632D01*
X149215296Y-61501384D01*
X149124860Y-61295209D01*
X149001722Y-61106732D01*
X148940956Y-61040723D01*
X148852772Y-60944930D01*
X148852767Y-60944925D01*
X148849240Y-60941094D01*
X148671576Y-60802811D01*
X148667002Y-60800336D01*
X148666995Y-60800331D01*
X148638320Y-60784814D01*
X148590048Y-60738498D01*
X148572289Y-60674000D01*
X148590048Y-60609502D01*
X148638320Y-60563186D01*
X148666995Y-60547668D01*
X148666994Y-60547668D01*
X148671576Y-60545189D01*
X148849240Y-60406906D01*
X149001722Y-60241268D01*
X149124860Y-60052791D01*
X149215296Y-59846616D01*
X149270564Y-59628368D01*
X149289156Y-59404000D01*
X149270564Y-59179632D01*
X149215296Y-58961384D01*
X149124860Y-58755209D01*
X149001722Y-58566732D01*
X148940956Y-58500723D01*
X148852772Y-58404930D01*
X148852767Y-58404925D01*
X148849240Y-58401094D01*
X148671576Y-58262811D01*
X148666997Y-58260333D01*
X148666994Y-58260331D01*
X148478159Y-58158139D01*
X148478156Y-58158137D01*
X148473574Y-58155658D01*
X148468650Y-58153967D01*
X148468642Y-58153964D01*
X148265565Y-58084248D01*
X148265559Y-58084246D01*
X148260635Y-58082556D01*
X148255498Y-58081698D01*
X148255495Y-58081698D01*
X148043706Y-58046357D01*
X148043703Y-58046356D01*
X148038569Y-58045500D01*
X147813431Y-58045500D01*
X147808297Y-58046356D01*
X147808293Y-58046357D01*
X147596504Y-58081698D01*
X147596498Y-58081699D01*
X147591365Y-58082556D01*
X147586443Y-58084245D01*
X147586434Y-58084248D01*
X147383357Y-58153964D01*
X147383344Y-58153969D01*
X147378426Y-58155658D01*
X147373847Y-58158135D01*
X147373840Y-58158139D01*
X147185005Y-58260331D01*
X147184997Y-58260336D01*
X147180424Y-58262811D01*
X147176313Y-58266010D01*
X147176311Y-58266012D01*
X147006878Y-58397888D01*
X147006872Y-58397893D01*
X147002760Y-58401094D01*
X146999237Y-58404919D01*
X146999227Y-58404930D01*
X146853806Y-58562899D01*
X146853802Y-58562902D01*
X146850278Y-58566732D01*
X146847430Y-58571090D01*
X146847427Y-58571095D01*
X146761483Y-58702643D01*
X146715969Y-58744542D01*
X146656000Y-58759728D01*
X146596031Y-58744542D01*
X146550517Y-58702643D01*
X146464572Y-58571095D01*
X146461722Y-58566732D01*
X146400956Y-58500723D01*
X146312772Y-58404930D01*
X146312767Y-58404925D01*
X146309240Y-58401094D01*
X146131576Y-58262811D01*
X146126997Y-58260333D01*
X146126994Y-58260331D01*
X145938159Y-58158139D01*
X145938156Y-58158137D01*
X145933574Y-58155658D01*
X145928650Y-58153967D01*
X145928642Y-58153964D01*
X145725565Y-58084248D01*
X145725559Y-58084246D01*
X145720635Y-58082556D01*
X145715498Y-58081698D01*
X145715495Y-58081698D01*
X145503706Y-58046357D01*
X145503703Y-58046356D01*
X145498569Y-58045500D01*
X145273431Y-58045500D01*
X145268297Y-58046356D01*
X145268293Y-58046357D01*
X145056504Y-58081698D01*
X145056498Y-58081699D01*
X145051365Y-58082556D01*
X145046443Y-58084245D01*
X145046434Y-58084248D01*
X144843357Y-58153964D01*
X144843344Y-58153969D01*
X144838426Y-58155658D01*
X144833847Y-58158135D01*
X144833840Y-58158139D01*
X144645005Y-58260331D01*
X144644997Y-58260336D01*
X144640424Y-58262811D01*
X144636313Y-58266010D01*
X144636311Y-58266012D01*
X144466878Y-58397888D01*
X144466872Y-58397893D01*
X144462760Y-58401094D01*
X144459237Y-58404919D01*
X144459227Y-58404930D01*
X144313806Y-58562899D01*
X144313802Y-58562902D01*
X144310278Y-58566732D01*
X144307430Y-58571090D01*
X144307427Y-58571095D01*
X144221483Y-58702643D01*
X144187140Y-58755209D01*
X144185048Y-58759978D01*
X144185046Y-58759982D01*
X144098799Y-58956606D01*
X144098796Y-58956614D01*
X144096704Y-58961384D01*
X144041436Y-59179632D01*
X144041006Y-59184820D01*
X144041005Y-59184827D01*
X144023909Y-59391147D01*
X144022844Y-59404000D01*
X144041436Y-59628368D01*
X144096704Y-59846616D01*
X144098797Y-59851389D01*
X144098799Y-59851393D01*
X144174147Y-60023170D01*
X144187140Y-60052791D01*
X144310278Y-60241268D01*
X144313806Y-60245100D01*
X144459227Y-60403069D01*
X144459231Y-60403073D01*
X144462760Y-60406906D01*
X144640424Y-60545189D01*
X144673680Y-60563186D01*
X144721950Y-60609499D01*
X144739710Y-60673996D01*
X144721953Y-60738494D01*
X144673683Y-60784811D01*
X144645005Y-60800331D01*
X144644997Y-60800336D01*
X144640424Y-60802811D01*
X144636313Y-60806010D01*
X144636311Y-60806012D01*
X144466878Y-60937888D01*
X144466872Y-60937893D01*
X144462760Y-60941094D01*
X144459237Y-60944919D01*
X144459227Y-60944930D01*
X144313806Y-61102899D01*
X144313802Y-61102902D01*
X144310278Y-61106732D01*
X144307430Y-61111090D01*
X144307427Y-61111095D01*
X144221483Y-61242643D01*
X144187140Y-61295209D01*
X144185048Y-61299978D01*
X144185046Y-61299982D01*
X144098799Y-61496606D01*
X144098796Y-61496614D01*
X144096704Y-61501384D01*
X144041436Y-61719632D01*
X144041006Y-61724820D01*
X144041005Y-61724827D01*
X144023909Y-61931147D01*
X144022844Y-61944000D01*
X144041436Y-62168368D01*
X144096704Y-62386616D01*
X144098797Y-62391389D01*
X144098799Y-62391393D01*
X144174147Y-62563170D01*
X144187140Y-62592791D01*
X144310278Y-62781268D01*
X144313806Y-62785100D01*
X144459227Y-62943069D01*
X144459231Y-62943073D01*
X144462760Y-62946906D01*
X144640424Y-63085189D01*
X144645002Y-63087666D01*
X144645009Y-63087671D01*
X144673680Y-63103187D01*
X144721951Y-63149503D01*
X144739710Y-63214000D01*
X144721951Y-63278497D01*
X144673680Y-63324813D01*
X144645009Y-63340328D01*
X144644993Y-63340338D01*
X144640424Y-63342811D01*
X144636313Y-63346010D01*
X144636311Y-63346012D01*
X144466878Y-63477888D01*
X144466872Y-63477893D01*
X144462760Y-63481094D01*
X144459237Y-63484919D01*
X144459227Y-63484930D01*
X144313806Y-63642899D01*
X144313802Y-63642902D01*
X144310278Y-63646732D01*
X144307430Y-63651090D01*
X144307427Y-63651095D01*
X144221483Y-63782643D01*
X144187140Y-63835209D01*
X144185048Y-63839978D01*
X144185046Y-63839982D01*
X144098799Y-64036606D01*
X144098796Y-64036614D01*
X144096704Y-64041384D01*
X144041436Y-64259632D01*
X144041006Y-64264820D01*
X144041005Y-64264827D01*
X144023909Y-64471147D01*
X144022844Y-64484000D01*
X144041436Y-64708368D01*
X144096704Y-64926616D01*
X144098797Y-64931389D01*
X144098799Y-64931393D01*
X144174147Y-65103170D01*
X144187140Y-65132791D01*
X144310278Y-65321268D01*
X144313806Y-65325100D01*
X144459227Y-65483069D01*
X144459231Y-65483073D01*
X144462760Y-65486906D01*
X144640424Y-65625189D01*
X144673680Y-65643186D01*
X144721950Y-65689499D01*
X144739710Y-65753996D01*
X144721953Y-65818494D01*
X144673683Y-65864811D01*
X144645005Y-65880331D01*
X144644997Y-65880336D01*
X144640424Y-65882811D01*
X144636313Y-65886010D01*
X144636311Y-65886012D01*
X144466878Y-66017888D01*
X144466872Y-66017893D01*
X144462760Y-66021094D01*
X144459237Y-66024919D01*
X144459227Y-66024930D01*
X144313806Y-66182899D01*
X144313802Y-66182902D01*
X144310278Y-66186732D01*
X144307430Y-66191090D01*
X144307427Y-66191095D01*
X144221483Y-66322643D01*
X144187140Y-66375209D01*
X144185048Y-66379978D01*
X144185046Y-66379982D01*
X144098799Y-66576606D01*
X144098796Y-66576614D01*
X144096704Y-66581384D01*
X144041436Y-66799632D01*
X144041006Y-66804820D01*
X144041005Y-66804827D01*
X144023909Y-67011147D01*
X144022844Y-67024000D01*
X134832656Y-67024000D01*
X134814064Y-66799632D01*
X134758796Y-66581384D01*
X134668360Y-66375209D01*
X134545222Y-66186732D01*
X134484456Y-66120723D01*
X134396272Y-66024930D01*
X134396267Y-66024925D01*
X134392740Y-66021094D01*
X134215076Y-65882811D01*
X134210502Y-65880336D01*
X134210495Y-65880331D01*
X134181820Y-65864814D01*
X134133548Y-65818498D01*
X134115789Y-65754000D01*
X134133548Y-65689502D01*
X134181820Y-65643186D01*
X134210495Y-65627668D01*
X134210494Y-65627668D01*
X134215076Y-65625189D01*
X134392740Y-65486906D01*
X134545222Y-65321268D01*
X134668360Y-65132791D01*
X134758796Y-64926616D01*
X134814064Y-64708368D01*
X134832656Y-64484000D01*
X134814064Y-64259632D01*
X134758796Y-64041384D01*
X134668360Y-63835209D01*
X134545222Y-63646732D01*
X134484456Y-63580723D01*
X134396272Y-63484930D01*
X134396267Y-63484925D01*
X134392740Y-63481094D01*
X134215076Y-63342811D01*
X134210502Y-63340336D01*
X134210495Y-63340331D01*
X134181820Y-63324814D01*
X134133548Y-63278498D01*
X134115789Y-63214000D01*
X134133548Y-63149502D01*
X134181820Y-63103186D01*
X134210490Y-63087671D01*
X134215076Y-63085189D01*
X134392740Y-62946906D01*
X134545222Y-62781268D01*
X134668360Y-62592791D01*
X134758796Y-62386616D01*
X134814064Y-62168368D01*
X134832656Y-61944000D01*
X134814064Y-61719632D01*
X134758796Y-61501384D01*
X134668360Y-61295209D01*
X134545222Y-61106732D01*
X134484456Y-61040723D01*
X134396272Y-60944930D01*
X134396267Y-60944925D01*
X134392740Y-60941094D01*
X134215076Y-60802811D01*
X134210502Y-60800336D01*
X134210495Y-60800331D01*
X134181820Y-60784814D01*
X134133548Y-60738498D01*
X134115789Y-60674000D01*
X134133548Y-60609502D01*
X134181820Y-60563186D01*
X134210495Y-60547668D01*
X134210494Y-60547668D01*
X134215076Y-60545189D01*
X134392740Y-60406906D01*
X134545222Y-60241268D01*
X134668360Y-60052791D01*
X134758796Y-59846616D01*
X134814064Y-59628368D01*
X134832656Y-59404000D01*
X134814064Y-59179632D01*
X134758796Y-58961384D01*
X134668360Y-58755209D01*
X134545222Y-58566732D01*
X134484456Y-58500723D01*
X134396272Y-58404930D01*
X134396267Y-58404925D01*
X134392740Y-58401094D01*
X134215076Y-58262811D01*
X134210497Y-58260333D01*
X134210494Y-58260331D01*
X134021659Y-58158139D01*
X134021656Y-58158137D01*
X134017074Y-58155658D01*
X134012150Y-58153967D01*
X134012142Y-58153964D01*
X133809065Y-58084248D01*
X133809059Y-58084246D01*
X133804135Y-58082556D01*
X133798998Y-58081698D01*
X133798995Y-58081698D01*
X133587206Y-58046357D01*
X133587203Y-58046356D01*
X133582069Y-58045500D01*
X133356931Y-58045500D01*
X133351797Y-58046356D01*
X133351793Y-58046357D01*
X133140004Y-58081698D01*
X133139998Y-58081699D01*
X133134865Y-58082556D01*
X133129943Y-58084245D01*
X133129934Y-58084248D01*
X132926857Y-58153964D01*
X132926844Y-58153969D01*
X132921926Y-58155658D01*
X132917347Y-58158135D01*
X132917340Y-58158139D01*
X132728505Y-58260331D01*
X132728497Y-58260336D01*
X132723924Y-58262811D01*
X132719813Y-58266010D01*
X132719811Y-58266012D01*
X132550378Y-58397888D01*
X132550372Y-58397893D01*
X132546260Y-58401094D01*
X132542737Y-58404919D01*
X132542727Y-58404930D01*
X132397306Y-58562899D01*
X132397302Y-58562902D01*
X132393778Y-58566732D01*
X132390930Y-58571090D01*
X132390927Y-58571095D01*
X132304983Y-58702643D01*
X132259469Y-58744542D01*
X132199500Y-58759728D01*
X132139531Y-58744542D01*
X132094017Y-58702643D01*
X132008072Y-58571095D01*
X132005222Y-58566732D01*
X131944456Y-58500723D01*
X131856272Y-58404930D01*
X131856267Y-58404925D01*
X131852740Y-58401094D01*
X131675076Y-58262811D01*
X131670497Y-58260333D01*
X131670494Y-58260331D01*
X131481659Y-58158139D01*
X131481656Y-58158137D01*
X131477074Y-58155658D01*
X131472150Y-58153967D01*
X131472142Y-58153964D01*
X131269065Y-58084248D01*
X131269059Y-58084246D01*
X131264135Y-58082556D01*
X131258998Y-58081698D01*
X131258995Y-58081698D01*
X131047206Y-58046357D01*
X131047203Y-58046356D01*
X131042069Y-58045500D01*
X130816931Y-58045500D01*
X130811797Y-58046356D01*
X130811793Y-58046357D01*
X130600004Y-58081698D01*
X130599998Y-58081699D01*
X130594865Y-58082556D01*
X130589943Y-58084245D01*
X130589934Y-58084248D01*
X130386857Y-58153964D01*
X130386844Y-58153969D01*
X130381926Y-58155658D01*
X130377347Y-58158135D01*
X130377340Y-58158139D01*
X130188505Y-58260331D01*
X130188497Y-58260336D01*
X130183924Y-58262811D01*
X130179813Y-58266010D01*
X130179811Y-58266012D01*
X130010378Y-58397888D01*
X130010372Y-58397893D01*
X130006260Y-58401094D01*
X130002737Y-58404919D01*
X130002727Y-58404930D01*
X129857306Y-58562899D01*
X129857302Y-58562902D01*
X129853778Y-58566732D01*
X129850930Y-58571090D01*
X129850927Y-58571095D01*
X129764983Y-58702643D01*
X129730640Y-58755209D01*
X129728548Y-58759978D01*
X129728546Y-58759982D01*
X129642299Y-58956606D01*
X129642296Y-58956614D01*
X129640204Y-58961384D01*
X129584936Y-59179632D01*
X129584506Y-59184820D01*
X129584505Y-59184827D01*
X129567409Y-59391147D01*
X129566344Y-59404000D01*
X129584936Y-59628368D01*
X129640204Y-59846616D01*
X129642297Y-59851389D01*
X129642299Y-59851393D01*
X129717647Y-60023170D01*
X129730640Y-60052791D01*
X129853778Y-60241268D01*
X129857306Y-60245100D01*
X130002727Y-60403069D01*
X130002731Y-60403073D01*
X130006260Y-60406906D01*
X130183924Y-60545189D01*
X130217180Y-60563186D01*
X130265450Y-60609499D01*
X130283210Y-60673996D01*
X130265453Y-60738494D01*
X130217183Y-60784811D01*
X130188505Y-60800331D01*
X130188497Y-60800336D01*
X130183924Y-60802811D01*
X130179813Y-60806010D01*
X130179811Y-60806012D01*
X130010378Y-60937888D01*
X130010372Y-60937893D01*
X130006260Y-60941094D01*
X130002737Y-60944919D01*
X130002727Y-60944930D01*
X129857306Y-61102899D01*
X129857302Y-61102902D01*
X129853778Y-61106732D01*
X129850930Y-61111090D01*
X129850927Y-61111095D01*
X129764983Y-61242643D01*
X129730640Y-61295209D01*
X129728548Y-61299978D01*
X129728546Y-61299982D01*
X129642299Y-61496606D01*
X129642296Y-61496614D01*
X129640204Y-61501384D01*
X129584936Y-61719632D01*
X129584506Y-61724820D01*
X129584505Y-61724827D01*
X129567409Y-61931147D01*
X129566344Y-61944000D01*
X129584936Y-62168368D01*
X129640204Y-62386616D01*
X129642297Y-62391389D01*
X129642299Y-62391393D01*
X129717647Y-62563170D01*
X129730640Y-62592791D01*
X129853778Y-62781268D01*
X129857306Y-62785100D01*
X130002727Y-62943069D01*
X130002731Y-62943073D01*
X130006260Y-62946906D01*
X130183924Y-63085189D01*
X130188502Y-63087666D01*
X130188509Y-63087671D01*
X130217180Y-63103187D01*
X130265451Y-63149503D01*
X130283210Y-63214000D01*
X130265451Y-63278497D01*
X130217180Y-63324813D01*
X130188509Y-63340328D01*
X130188493Y-63340338D01*
X130183924Y-63342811D01*
X130179813Y-63346010D01*
X130179811Y-63346012D01*
X130010378Y-63477888D01*
X130010372Y-63477893D01*
X130006260Y-63481094D01*
X130002737Y-63484919D01*
X130002727Y-63484930D01*
X129857306Y-63642899D01*
X129857302Y-63642902D01*
X129853778Y-63646732D01*
X129850930Y-63651090D01*
X129850927Y-63651095D01*
X129764983Y-63782643D01*
X129730640Y-63835209D01*
X129728548Y-63839978D01*
X129728546Y-63839982D01*
X129642299Y-64036606D01*
X129642296Y-64036614D01*
X129640204Y-64041384D01*
X129584936Y-64259632D01*
X129584506Y-64264820D01*
X129584505Y-64264827D01*
X129567409Y-64471147D01*
X129566344Y-64484000D01*
X129584936Y-64708368D01*
X129640204Y-64926616D01*
X129642297Y-64931389D01*
X129642299Y-64931393D01*
X129717647Y-65103170D01*
X129730640Y-65132791D01*
X129853778Y-65321268D01*
X129857306Y-65325100D01*
X130002727Y-65483069D01*
X130002731Y-65483073D01*
X130006260Y-65486906D01*
X130183924Y-65625189D01*
X130217180Y-65643186D01*
X130265450Y-65689499D01*
X130283210Y-65753996D01*
X130265453Y-65818494D01*
X130217183Y-65864811D01*
X130188505Y-65880331D01*
X130188497Y-65880336D01*
X130183924Y-65882811D01*
X130179813Y-65886010D01*
X130179811Y-65886012D01*
X130010378Y-66017888D01*
X130010372Y-66017893D01*
X130006260Y-66021094D01*
X130002737Y-66024919D01*
X130002727Y-66024930D01*
X129857306Y-66182899D01*
X129857302Y-66182902D01*
X129853778Y-66186732D01*
X129850930Y-66191090D01*
X129850927Y-66191095D01*
X129764983Y-66322643D01*
X129730640Y-66375209D01*
X129728548Y-66379978D01*
X129728546Y-66379982D01*
X129642299Y-66576606D01*
X129642296Y-66576614D01*
X129640204Y-66581384D01*
X129584936Y-66799632D01*
X129584506Y-66804820D01*
X129584505Y-66804827D01*
X129567409Y-67011147D01*
X129566344Y-67024000D01*
X120376156Y-67024000D01*
X120357564Y-66799632D01*
X120302296Y-66581384D01*
X120211860Y-66375209D01*
X120088722Y-66186732D01*
X120027956Y-66120723D01*
X119939772Y-66024930D01*
X119939767Y-66024925D01*
X119936240Y-66021094D01*
X119758576Y-65882811D01*
X119754002Y-65880336D01*
X119753995Y-65880331D01*
X119725320Y-65864814D01*
X119677048Y-65818498D01*
X119659289Y-65754000D01*
X119677048Y-65689502D01*
X119725320Y-65643186D01*
X119753995Y-65627668D01*
X119753994Y-65627668D01*
X119758576Y-65625189D01*
X119936240Y-65486906D01*
X120088722Y-65321268D01*
X120211860Y-65132791D01*
X120302296Y-64926616D01*
X120357564Y-64708368D01*
X120376156Y-64484000D01*
X120357564Y-64259632D01*
X120302296Y-64041384D01*
X120211860Y-63835209D01*
X120088722Y-63646732D01*
X120027956Y-63580723D01*
X119939772Y-63484930D01*
X119939767Y-63484925D01*
X119936240Y-63481094D01*
X119758576Y-63342811D01*
X119754002Y-63340336D01*
X119753995Y-63340331D01*
X119725320Y-63324814D01*
X119677048Y-63278498D01*
X119659289Y-63214000D01*
X119677048Y-63149502D01*
X119725320Y-63103186D01*
X119753990Y-63087671D01*
X119758576Y-63085189D01*
X119936240Y-62946906D01*
X120088722Y-62781268D01*
X120211860Y-62592791D01*
X120302296Y-62386616D01*
X120357564Y-62168368D01*
X120376156Y-61944000D01*
X120357564Y-61719632D01*
X120302296Y-61501384D01*
X120211860Y-61295209D01*
X120088722Y-61106732D01*
X120027956Y-61040723D01*
X119939772Y-60944930D01*
X119939767Y-60944925D01*
X119936240Y-60941094D01*
X119758576Y-60802811D01*
X119754002Y-60800336D01*
X119753995Y-60800331D01*
X119725320Y-60784814D01*
X119677048Y-60738498D01*
X119659289Y-60674000D01*
X119677048Y-60609502D01*
X119725320Y-60563186D01*
X119753995Y-60547668D01*
X119753994Y-60547668D01*
X119758576Y-60545189D01*
X119936240Y-60406906D01*
X120088722Y-60241268D01*
X120211860Y-60052791D01*
X120302296Y-59846616D01*
X120357564Y-59628368D01*
X120376156Y-59404000D01*
X120357564Y-59179632D01*
X120302296Y-58961384D01*
X120211860Y-58755209D01*
X120088722Y-58566732D01*
X120027956Y-58500723D01*
X119939772Y-58404930D01*
X119939767Y-58404925D01*
X119936240Y-58401094D01*
X119758576Y-58262811D01*
X119753997Y-58260333D01*
X119753994Y-58260331D01*
X119565159Y-58158139D01*
X119565156Y-58158137D01*
X119560574Y-58155658D01*
X119555650Y-58153967D01*
X119555642Y-58153964D01*
X119352565Y-58084248D01*
X119352559Y-58084246D01*
X119347635Y-58082556D01*
X119342498Y-58081698D01*
X119342495Y-58081698D01*
X119130706Y-58046357D01*
X119130703Y-58046356D01*
X119125569Y-58045500D01*
X118900431Y-58045500D01*
X118895297Y-58046356D01*
X118895293Y-58046357D01*
X118683504Y-58081698D01*
X118683498Y-58081699D01*
X118678365Y-58082556D01*
X118673443Y-58084245D01*
X118673434Y-58084248D01*
X118470357Y-58153964D01*
X118470344Y-58153969D01*
X118465426Y-58155658D01*
X118460847Y-58158135D01*
X118460840Y-58158139D01*
X118272005Y-58260331D01*
X118271997Y-58260336D01*
X118267424Y-58262811D01*
X118263313Y-58266010D01*
X118263311Y-58266012D01*
X118093878Y-58397888D01*
X118093872Y-58397893D01*
X118089760Y-58401094D01*
X118086237Y-58404919D01*
X118086227Y-58404930D01*
X117940806Y-58562899D01*
X117940802Y-58562902D01*
X117937278Y-58566732D01*
X117934430Y-58571090D01*
X117934427Y-58571095D01*
X117848483Y-58702643D01*
X117802969Y-58744542D01*
X117743000Y-58759728D01*
X117683031Y-58744542D01*
X117637517Y-58702643D01*
X117551572Y-58571095D01*
X117548722Y-58566732D01*
X117487956Y-58500723D01*
X117399772Y-58404930D01*
X117399767Y-58404925D01*
X117396240Y-58401094D01*
X117218576Y-58262811D01*
X117213997Y-58260333D01*
X117213994Y-58260331D01*
X117025159Y-58158139D01*
X117025156Y-58158137D01*
X117020574Y-58155658D01*
X117015650Y-58153967D01*
X117015642Y-58153964D01*
X116812565Y-58084248D01*
X116812559Y-58084246D01*
X116807635Y-58082556D01*
X116802498Y-58081698D01*
X116802495Y-58081698D01*
X116590706Y-58046357D01*
X116590703Y-58046356D01*
X116585569Y-58045500D01*
X116360431Y-58045500D01*
X116355297Y-58046356D01*
X116355293Y-58046357D01*
X116143504Y-58081698D01*
X116143498Y-58081699D01*
X116138365Y-58082556D01*
X116133443Y-58084245D01*
X116133434Y-58084248D01*
X115930357Y-58153964D01*
X115930344Y-58153969D01*
X115925426Y-58155658D01*
X115920847Y-58158135D01*
X115920840Y-58158139D01*
X115732005Y-58260331D01*
X115731997Y-58260336D01*
X115727424Y-58262811D01*
X115723313Y-58266010D01*
X115723311Y-58266012D01*
X115553878Y-58397888D01*
X115553872Y-58397893D01*
X115549760Y-58401094D01*
X115546237Y-58404919D01*
X115546227Y-58404930D01*
X115400806Y-58562899D01*
X115400802Y-58562902D01*
X115397278Y-58566732D01*
X115394430Y-58571090D01*
X115394427Y-58571095D01*
X115308483Y-58702643D01*
X115274140Y-58755209D01*
X115272048Y-58759978D01*
X115272046Y-58759982D01*
X115185799Y-58956606D01*
X115185796Y-58956614D01*
X115183704Y-58961384D01*
X115128436Y-59179632D01*
X115128006Y-59184820D01*
X115128005Y-59184827D01*
X115110909Y-59391147D01*
X115109844Y-59404000D01*
X115128436Y-59628368D01*
X115183704Y-59846616D01*
X115185797Y-59851389D01*
X115185799Y-59851393D01*
X115261147Y-60023170D01*
X115274140Y-60052791D01*
X115397278Y-60241268D01*
X115400806Y-60245100D01*
X115546227Y-60403069D01*
X115546231Y-60403073D01*
X115549760Y-60406906D01*
X115727424Y-60545189D01*
X115760680Y-60563186D01*
X115808950Y-60609499D01*
X115826710Y-60673996D01*
X115808953Y-60738494D01*
X115760683Y-60784811D01*
X115732005Y-60800331D01*
X115731997Y-60800336D01*
X115727424Y-60802811D01*
X115723313Y-60806010D01*
X115723311Y-60806012D01*
X115553878Y-60937888D01*
X115553872Y-60937893D01*
X115549760Y-60941094D01*
X115546237Y-60944919D01*
X115546227Y-60944930D01*
X115400806Y-61102899D01*
X115400802Y-61102902D01*
X115397278Y-61106732D01*
X115394430Y-61111090D01*
X115394427Y-61111095D01*
X115308483Y-61242643D01*
X115274140Y-61295209D01*
X115272048Y-61299978D01*
X115272046Y-61299982D01*
X115185799Y-61496606D01*
X115185796Y-61496614D01*
X115183704Y-61501384D01*
X115128436Y-61719632D01*
X115128006Y-61724820D01*
X115128005Y-61724827D01*
X115110909Y-61931147D01*
X115109844Y-61944000D01*
X115128436Y-62168368D01*
X115183704Y-62386616D01*
X115185797Y-62391389D01*
X115185799Y-62391393D01*
X115261147Y-62563170D01*
X115274140Y-62592791D01*
X115397278Y-62781268D01*
X115400806Y-62785100D01*
X115546227Y-62943069D01*
X115546231Y-62943073D01*
X115549760Y-62946906D01*
X115727424Y-63085189D01*
X115732002Y-63087666D01*
X115732009Y-63087671D01*
X115760680Y-63103187D01*
X115808951Y-63149503D01*
X115826710Y-63214000D01*
X115808951Y-63278497D01*
X115760680Y-63324813D01*
X115732009Y-63340328D01*
X115731993Y-63340338D01*
X115727424Y-63342811D01*
X115723313Y-63346010D01*
X115723311Y-63346012D01*
X115553878Y-63477888D01*
X115553872Y-63477893D01*
X115549760Y-63481094D01*
X115546237Y-63484919D01*
X115546227Y-63484930D01*
X115400806Y-63642899D01*
X115400802Y-63642902D01*
X115397278Y-63646732D01*
X115394430Y-63651090D01*
X115394427Y-63651095D01*
X115308483Y-63782643D01*
X115274140Y-63835209D01*
X115272048Y-63839978D01*
X115272046Y-63839982D01*
X115185799Y-64036606D01*
X115185796Y-64036614D01*
X115183704Y-64041384D01*
X115128436Y-64259632D01*
X115128006Y-64264820D01*
X115128005Y-64264827D01*
X115110909Y-64471147D01*
X115109844Y-64484000D01*
X115128436Y-64708368D01*
X115183704Y-64926616D01*
X115185797Y-64931389D01*
X115185799Y-64931393D01*
X115261147Y-65103170D01*
X115274140Y-65132791D01*
X115397278Y-65321268D01*
X115400806Y-65325100D01*
X115546227Y-65483069D01*
X115546231Y-65483073D01*
X115549760Y-65486906D01*
X115727424Y-65625189D01*
X115760680Y-65643186D01*
X115808950Y-65689499D01*
X115826710Y-65753996D01*
X115808953Y-65818494D01*
X115760683Y-65864811D01*
X115732005Y-65880331D01*
X115731997Y-65880336D01*
X115727424Y-65882811D01*
X115723313Y-65886010D01*
X115723311Y-65886012D01*
X115553878Y-66017888D01*
X115553872Y-66017893D01*
X115549760Y-66021094D01*
X115546237Y-66024919D01*
X115546227Y-66024930D01*
X115400806Y-66182899D01*
X115400802Y-66182902D01*
X115397278Y-66186732D01*
X115394430Y-66191090D01*
X115394427Y-66191095D01*
X115308483Y-66322643D01*
X115274140Y-66375209D01*
X115272048Y-66379978D01*
X115272046Y-66379982D01*
X115185799Y-66576606D01*
X115185796Y-66576614D01*
X115183704Y-66581384D01*
X115128436Y-66799632D01*
X115128006Y-66804820D01*
X115128005Y-66804827D01*
X115110909Y-67011147D01*
X115109844Y-67024000D01*
X105919656Y-67024000D01*
X105901064Y-66799632D01*
X105845796Y-66581384D01*
X105755360Y-66375209D01*
X105632222Y-66186732D01*
X105571456Y-66120723D01*
X105483272Y-66024930D01*
X105483267Y-66024925D01*
X105479740Y-66021094D01*
X105302076Y-65882811D01*
X105297502Y-65880336D01*
X105297495Y-65880331D01*
X105268820Y-65864814D01*
X105220548Y-65818498D01*
X105202789Y-65754000D01*
X105220548Y-65689502D01*
X105268820Y-65643186D01*
X105297495Y-65627668D01*
X105297494Y-65627668D01*
X105302076Y-65625189D01*
X105479740Y-65486906D01*
X105632222Y-65321268D01*
X105755360Y-65132791D01*
X105845796Y-64926616D01*
X105901064Y-64708368D01*
X105919656Y-64484000D01*
X105901064Y-64259632D01*
X105845796Y-64041384D01*
X105755360Y-63835209D01*
X105632222Y-63646732D01*
X105571456Y-63580723D01*
X105483272Y-63484930D01*
X105483267Y-63484925D01*
X105479740Y-63481094D01*
X105302076Y-63342811D01*
X105297502Y-63340336D01*
X105297495Y-63340331D01*
X105268820Y-63324814D01*
X105220548Y-63278498D01*
X105202789Y-63214000D01*
X105220548Y-63149502D01*
X105268820Y-63103186D01*
X105297490Y-63087671D01*
X105302076Y-63085189D01*
X105479740Y-62946906D01*
X105632222Y-62781268D01*
X105755360Y-62592791D01*
X105845796Y-62386616D01*
X105901064Y-62168368D01*
X105919656Y-61944000D01*
X105901064Y-61719632D01*
X105845796Y-61501384D01*
X105755360Y-61295209D01*
X105632222Y-61106732D01*
X105571456Y-61040723D01*
X105483272Y-60944930D01*
X105483267Y-60944925D01*
X105479740Y-60941094D01*
X105302076Y-60802811D01*
X105297502Y-60800336D01*
X105297495Y-60800331D01*
X105268820Y-60784814D01*
X105220548Y-60738498D01*
X105202789Y-60674000D01*
X105220548Y-60609502D01*
X105268820Y-60563186D01*
X105297495Y-60547668D01*
X105297494Y-60547668D01*
X105302076Y-60545189D01*
X105479740Y-60406906D01*
X105632222Y-60241268D01*
X105755360Y-60052791D01*
X105845796Y-59846616D01*
X105901064Y-59628368D01*
X105919656Y-59404000D01*
X105901064Y-59179632D01*
X105845796Y-58961384D01*
X105755360Y-58755209D01*
X105632222Y-58566732D01*
X105571456Y-58500723D01*
X105483272Y-58404930D01*
X105483267Y-58404925D01*
X105479740Y-58401094D01*
X105302076Y-58262811D01*
X105297497Y-58260333D01*
X105297494Y-58260331D01*
X105108659Y-58158139D01*
X105108656Y-58158137D01*
X105104074Y-58155658D01*
X105099150Y-58153967D01*
X105099142Y-58153964D01*
X104896065Y-58084248D01*
X104896059Y-58084246D01*
X104891135Y-58082556D01*
X104885998Y-58081698D01*
X104885995Y-58081698D01*
X104674206Y-58046357D01*
X104674203Y-58046356D01*
X104669069Y-58045500D01*
X104443931Y-58045500D01*
X104438797Y-58046356D01*
X104438793Y-58046357D01*
X104227004Y-58081698D01*
X104226998Y-58081699D01*
X104221865Y-58082556D01*
X104216943Y-58084245D01*
X104216934Y-58084248D01*
X104013857Y-58153964D01*
X104013844Y-58153969D01*
X104008926Y-58155658D01*
X104004347Y-58158135D01*
X104004340Y-58158139D01*
X103815505Y-58260331D01*
X103815497Y-58260336D01*
X103810924Y-58262811D01*
X103806813Y-58266010D01*
X103806811Y-58266012D01*
X103637378Y-58397888D01*
X103637372Y-58397893D01*
X103633260Y-58401094D01*
X103629737Y-58404919D01*
X103629727Y-58404930D01*
X103484306Y-58562899D01*
X103484302Y-58562902D01*
X103480778Y-58566732D01*
X103477930Y-58571090D01*
X103477927Y-58571095D01*
X103391983Y-58702643D01*
X103346469Y-58744542D01*
X103286500Y-58759728D01*
X103226531Y-58744542D01*
X103181017Y-58702643D01*
X103095072Y-58571095D01*
X103092222Y-58566732D01*
X103031456Y-58500723D01*
X102943272Y-58404930D01*
X102943267Y-58404925D01*
X102939740Y-58401094D01*
X102762076Y-58262811D01*
X102757497Y-58260333D01*
X102757494Y-58260331D01*
X102568659Y-58158139D01*
X102568656Y-58158137D01*
X102564074Y-58155658D01*
X102559150Y-58153967D01*
X102559142Y-58153964D01*
X102356065Y-58084248D01*
X102356059Y-58084246D01*
X102351135Y-58082556D01*
X102345998Y-58081698D01*
X102345995Y-58081698D01*
X102134206Y-58046357D01*
X102134203Y-58046356D01*
X102129069Y-58045500D01*
X101903931Y-58045500D01*
X101898797Y-58046356D01*
X101898793Y-58046357D01*
X101687004Y-58081698D01*
X101686998Y-58081699D01*
X101681865Y-58082556D01*
X101676943Y-58084245D01*
X101676934Y-58084248D01*
X101473857Y-58153964D01*
X101473844Y-58153969D01*
X101468926Y-58155658D01*
X101464347Y-58158135D01*
X101464340Y-58158139D01*
X101275505Y-58260331D01*
X101275497Y-58260336D01*
X101270924Y-58262811D01*
X101266813Y-58266010D01*
X101266811Y-58266012D01*
X101097378Y-58397888D01*
X101097372Y-58397893D01*
X101093260Y-58401094D01*
X101089737Y-58404919D01*
X101089727Y-58404930D01*
X100944306Y-58562899D01*
X100944302Y-58562902D01*
X100940778Y-58566732D01*
X100937930Y-58571090D01*
X100937927Y-58571095D01*
X100851983Y-58702643D01*
X100817640Y-58755209D01*
X100815548Y-58759978D01*
X100815546Y-58759982D01*
X100729299Y-58956606D01*
X100729296Y-58956614D01*
X100727204Y-58961384D01*
X100671936Y-59179632D01*
X100671506Y-59184820D01*
X100671505Y-59184827D01*
X100654409Y-59391147D01*
X100653344Y-59404000D01*
X100671936Y-59628368D01*
X100727204Y-59846616D01*
X100729297Y-59851389D01*
X100729299Y-59851393D01*
X100804647Y-60023170D01*
X100817640Y-60052791D01*
X100940778Y-60241268D01*
X100944306Y-60245100D01*
X101089727Y-60403069D01*
X101089731Y-60403073D01*
X101093260Y-60406906D01*
X101270924Y-60545189D01*
X101304180Y-60563186D01*
X101352450Y-60609499D01*
X101370210Y-60673996D01*
X101352453Y-60738494D01*
X101304183Y-60784811D01*
X101275505Y-60800331D01*
X101275497Y-60800336D01*
X101270924Y-60802811D01*
X101266813Y-60806010D01*
X101266811Y-60806012D01*
X101097378Y-60937888D01*
X101097372Y-60937893D01*
X101093260Y-60941094D01*
X101089737Y-60944919D01*
X101089727Y-60944930D01*
X100944306Y-61102899D01*
X100944302Y-61102902D01*
X100940778Y-61106732D01*
X100937930Y-61111090D01*
X100937927Y-61111095D01*
X100851983Y-61242643D01*
X100817640Y-61295209D01*
X100815548Y-61299978D01*
X100815546Y-61299982D01*
X100729299Y-61496606D01*
X100729296Y-61496614D01*
X100727204Y-61501384D01*
X100671936Y-61719632D01*
X100671506Y-61724820D01*
X100671505Y-61724827D01*
X100654409Y-61931147D01*
X100653344Y-61944000D01*
X100671936Y-62168368D01*
X100727204Y-62386616D01*
X100729297Y-62391389D01*
X100729299Y-62391393D01*
X100804647Y-62563170D01*
X100817640Y-62592791D01*
X100940778Y-62781268D01*
X100944306Y-62785100D01*
X101089727Y-62943069D01*
X101089731Y-62943073D01*
X101093260Y-62946906D01*
X101270924Y-63085189D01*
X101275502Y-63087666D01*
X101275509Y-63087671D01*
X101304180Y-63103187D01*
X101352451Y-63149503D01*
X101370210Y-63214000D01*
X101352451Y-63278497D01*
X101304180Y-63324813D01*
X101275509Y-63340328D01*
X101275493Y-63340338D01*
X101270924Y-63342811D01*
X101266813Y-63346010D01*
X101266811Y-63346012D01*
X101097378Y-63477888D01*
X101097372Y-63477893D01*
X101093260Y-63481094D01*
X101089737Y-63484919D01*
X101089727Y-63484930D01*
X100944306Y-63642899D01*
X100944302Y-63642902D01*
X100940778Y-63646732D01*
X100937930Y-63651090D01*
X100937927Y-63651095D01*
X100851983Y-63782643D01*
X100817640Y-63835209D01*
X100815548Y-63839978D01*
X100815546Y-63839982D01*
X100729299Y-64036606D01*
X100729296Y-64036614D01*
X100727204Y-64041384D01*
X100671936Y-64259632D01*
X100671506Y-64264820D01*
X100671505Y-64264827D01*
X100654409Y-64471147D01*
X100653344Y-64484000D01*
X100671936Y-64708368D01*
X100727204Y-64926616D01*
X100729297Y-64931389D01*
X100729299Y-64931393D01*
X100804647Y-65103170D01*
X100817640Y-65132791D01*
X100940778Y-65321268D01*
X100944306Y-65325100D01*
X101089727Y-65483069D01*
X101089731Y-65483073D01*
X101093260Y-65486906D01*
X101270924Y-65625189D01*
X101304180Y-65643186D01*
X101352450Y-65689499D01*
X101370210Y-65753996D01*
X101352453Y-65818494D01*
X101304183Y-65864811D01*
X101275505Y-65880331D01*
X101275497Y-65880336D01*
X101270924Y-65882811D01*
X101266813Y-65886010D01*
X101266811Y-65886012D01*
X101097378Y-66017888D01*
X101097372Y-66017893D01*
X101093260Y-66021094D01*
X101089737Y-66024919D01*
X101089727Y-66024930D01*
X100944306Y-66182899D01*
X100944302Y-66182902D01*
X100940778Y-66186732D01*
X100937930Y-66191090D01*
X100937927Y-66191095D01*
X100851983Y-66322643D01*
X100817640Y-66375209D01*
X100815548Y-66379978D01*
X100815546Y-66379982D01*
X100729299Y-66576606D01*
X100729296Y-66576614D01*
X100727204Y-66581384D01*
X100671936Y-66799632D01*
X100671506Y-66804820D01*
X100671505Y-66804827D01*
X100654409Y-67011147D01*
X100653344Y-67024000D01*
X91463156Y-67024000D01*
X91444564Y-66799632D01*
X91389296Y-66581384D01*
X91298860Y-66375209D01*
X91175722Y-66186732D01*
X91114956Y-66120723D01*
X91026772Y-66024930D01*
X91026767Y-66024925D01*
X91023240Y-66021094D01*
X90845576Y-65882811D01*
X90841002Y-65880336D01*
X90840995Y-65880331D01*
X90812320Y-65864814D01*
X90764048Y-65818498D01*
X90746289Y-65754000D01*
X90764048Y-65689502D01*
X90812320Y-65643186D01*
X90840995Y-65627668D01*
X90840994Y-65627668D01*
X90845576Y-65625189D01*
X91023240Y-65486906D01*
X91175722Y-65321268D01*
X91298860Y-65132791D01*
X91389296Y-64926616D01*
X91444564Y-64708368D01*
X91463156Y-64484000D01*
X91444564Y-64259632D01*
X91389296Y-64041384D01*
X91298860Y-63835209D01*
X91175722Y-63646732D01*
X91114956Y-63580723D01*
X91026772Y-63484930D01*
X91026767Y-63484925D01*
X91023240Y-63481094D01*
X90845576Y-63342811D01*
X90841002Y-63340336D01*
X90840995Y-63340331D01*
X90812320Y-63324814D01*
X90764048Y-63278498D01*
X90746289Y-63214000D01*
X90764048Y-63149502D01*
X90812320Y-63103186D01*
X90840990Y-63087671D01*
X90845576Y-63085189D01*
X91023240Y-62946906D01*
X91175722Y-62781268D01*
X91298860Y-62592791D01*
X91389296Y-62386616D01*
X91444564Y-62168368D01*
X91463156Y-61944000D01*
X91444564Y-61719632D01*
X91389296Y-61501384D01*
X91298860Y-61295209D01*
X91175722Y-61106732D01*
X91114956Y-61040723D01*
X91026772Y-60944930D01*
X91026767Y-60944925D01*
X91023240Y-60941094D01*
X90845576Y-60802811D01*
X90841002Y-60800336D01*
X90840995Y-60800331D01*
X90812320Y-60784814D01*
X90764048Y-60738498D01*
X90746289Y-60674000D01*
X90764048Y-60609502D01*
X90812320Y-60563186D01*
X90840995Y-60547668D01*
X90840994Y-60547668D01*
X90845576Y-60545189D01*
X91023240Y-60406906D01*
X91175722Y-60241268D01*
X91298860Y-60052791D01*
X91389296Y-59846616D01*
X91444564Y-59628368D01*
X91463156Y-59404000D01*
X91444564Y-59179632D01*
X91389296Y-58961384D01*
X91298860Y-58755209D01*
X91175722Y-58566732D01*
X91114956Y-58500723D01*
X91026772Y-58404930D01*
X91026767Y-58404925D01*
X91023240Y-58401094D01*
X90845576Y-58262811D01*
X90840997Y-58260333D01*
X90840994Y-58260331D01*
X90652159Y-58158139D01*
X90652156Y-58158137D01*
X90647574Y-58155658D01*
X90642650Y-58153967D01*
X90642642Y-58153964D01*
X90439565Y-58084248D01*
X90439559Y-58084246D01*
X90434635Y-58082556D01*
X90429498Y-58081698D01*
X90429495Y-58081698D01*
X90217706Y-58046357D01*
X90217703Y-58046356D01*
X90212569Y-58045500D01*
X89987431Y-58045500D01*
X89982297Y-58046356D01*
X89982293Y-58046357D01*
X89770504Y-58081698D01*
X89770498Y-58081699D01*
X89765365Y-58082556D01*
X89760443Y-58084245D01*
X89760434Y-58084248D01*
X89557357Y-58153964D01*
X89557344Y-58153969D01*
X89552426Y-58155658D01*
X89547847Y-58158135D01*
X89547840Y-58158139D01*
X89359005Y-58260331D01*
X89358997Y-58260336D01*
X89354424Y-58262811D01*
X89350313Y-58266010D01*
X89350311Y-58266012D01*
X89180878Y-58397888D01*
X89180872Y-58397893D01*
X89176760Y-58401094D01*
X89173237Y-58404919D01*
X89173227Y-58404930D01*
X89027806Y-58562899D01*
X89027802Y-58562902D01*
X89024278Y-58566732D01*
X89021430Y-58571090D01*
X89021427Y-58571095D01*
X88935483Y-58702643D01*
X88889969Y-58744542D01*
X88830000Y-58759728D01*
X88770031Y-58744542D01*
X88724517Y-58702643D01*
X88638572Y-58571095D01*
X88635722Y-58566732D01*
X88574956Y-58500723D01*
X88486772Y-58404930D01*
X88486767Y-58404925D01*
X88483240Y-58401094D01*
X88305576Y-58262811D01*
X88300997Y-58260333D01*
X88300994Y-58260331D01*
X88112159Y-58158139D01*
X88112156Y-58158137D01*
X88107574Y-58155658D01*
X88102650Y-58153967D01*
X88102642Y-58153964D01*
X87899565Y-58084248D01*
X87899559Y-58084246D01*
X87894635Y-58082556D01*
X87889498Y-58081698D01*
X87889495Y-58081698D01*
X87677706Y-58046357D01*
X87677703Y-58046356D01*
X87672569Y-58045500D01*
X87447431Y-58045500D01*
X87442297Y-58046356D01*
X87442293Y-58046357D01*
X87230504Y-58081698D01*
X87230498Y-58081699D01*
X87225365Y-58082556D01*
X87220443Y-58084245D01*
X87220434Y-58084248D01*
X87017357Y-58153964D01*
X87017344Y-58153969D01*
X87012426Y-58155658D01*
X87007847Y-58158135D01*
X87007840Y-58158139D01*
X86819005Y-58260331D01*
X86818997Y-58260336D01*
X86814424Y-58262811D01*
X86810313Y-58266010D01*
X86810311Y-58266012D01*
X86640878Y-58397888D01*
X86640872Y-58397893D01*
X86636760Y-58401094D01*
X86633237Y-58404919D01*
X86633227Y-58404930D01*
X86487806Y-58562899D01*
X86487802Y-58562902D01*
X86484278Y-58566732D01*
X86481430Y-58571090D01*
X86481427Y-58571095D01*
X86395483Y-58702643D01*
X86361140Y-58755209D01*
X86359048Y-58759978D01*
X86359046Y-58759982D01*
X86272799Y-58956606D01*
X86272796Y-58956614D01*
X86270704Y-58961384D01*
X86215436Y-59179632D01*
X86215006Y-59184820D01*
X86215005Y-59184827D01*
X86197909Y-59391147D01*
X86196844Y-59404000D01*
X86215436Y-59628368D01*
X86270704Y-59846616D01*
X86272797Y-59851389D01*
X86272799Y-59851393D01*
X86348147Y-60023170D01*
X86361140Y-60052791D01*
X86484278Y-60241268D01*
X86487806Y-60245100D01*
X86633227Y-60403069D01*
X86633231Y-60403073D01*
X86636760Y-60406906D01*
X86814424Y-60545189D01*
X86847680Y-60563186D01*
X86895950Y-60609499D01*
X86913710Y-60673996D01*
X86895953Y-60738494D01*
X86847683Y-60784811D01*
X86819005Y-60800331D01*
X86818997Y-60800336D01*
X86814424Y-60802811D01*
X86810313Y-60806010D01*
X86810311Y-60806012D01*
X86640878Y-60937888D01*
X86640872Y-60937893D01*
X86636760Y-60941094D01*
X86633237Y-60944919D01*
X86633227Y-60944930D01*
X86487806Y-61102899D01*
X86487802Y-61102902D01*
X86484278Y-61106732D01*
X86481430Y-61111090D01*
X86481427Y-61111095D01*
X86395483Y-61242643D01*
X86361140Y-61295209D01*
X86359048Y-61299978D01*
X86359046Y-61299982D01*
X86272799Y-61496606D01*
X86272796Y-61496614D01*
X86270704Y-61501384D01*
X86215436Y-61719632D01*
X86215006Y-61724820D01*
X86215005Y-61724827D01*
X86197909Y-61931147D01*
X86196844Y-61944000D01*
X86215436Y-62168368D01*
X86270704Y-62386616D01*
X86272797Y-62391389D01*
X86272799Y-62391393D01*
X86348147Y-62563170D01*
X86361140Y-62592791D01*
X86484278Y-62781268D01*
X86487806Y-62785100D01*
X86633227Y-62943069D01*
X86633231Y-62943073D01*
X86636760Y-62946906D01*
X86814424Y-63085189D01*
X86819002Y-63087666D01*
X86819009Y-63087671D01*
X86847680Y-63103187D01*
X86895951Y-63149503D01*
X86913710Y-63214000D01*
X86895951Y-63278497D01*
X86847680Y-63324813D01*
X86819009Y-63340328D01*
X86818993Y-63340338D01*
X86814424Y-63342811D01*
X86810313Y-63346010D01*
X86810311Y-63346012D01*
X86640878Y-63477888D01*
X86640872Y-63477893D01*
X86636760Y-63481094D01*
X86633237Y-63484919D01*
X86633227Y-63484930D01*
X86487806Y-63642899D01*
X86487802Y-63642902D01*
X86484278Y-63646732D01*
X86481430Y-63651090D01*
X86481427Y-63651095D01*
X86395483Y-63782643D01*
X86361140Y-63835209D01*
X86359048Y-63839978D01*
X86359046Y-63839982D01*
X86272799Y-64036606D01*
X86272796Y-64036614D01*
X86270704Y-64041384D01*
X86215436Y-64259632D01*
X86215006Y-64264820D01*
X86215005Y-64264827D01*
X86197909Y-64471147D01*
X86196844Y-64484000D01*
X86215436Y-64708368D01*
X86270704Y-64926616D01*
X86272797Y-64931389D01*
X86272799Y-64931393D01*
X86348147Y-65103170D01*
X86361140Y-65132791D01*
X86484278Y-65321268D01*
X86487806Y-65325100D01*
X86633227Y-65483069D01*
X86633231Y-65483073D01*
X86636760Y-65486906D01*
X86814424Y-65625189D01*
X86847680Y-65643186D01*
X86895950Y-65689499D01*
X86913710Y-65753996D01*
X86895953Y-65818494D01*
X86847683Y-65864811D01*
X86819005Y-65880331D01*
X86818997Y-65880336D01*
X86814424Y-65882811D01*
X86810313Y-65886010D01*
X86810311Y-65886012D01*
X86640878Y-66017888D01*
X86640872Y-66017893D01*
X86636760Y-66021094D01*
X86633237Y-66024919D01*
X86633227Y-66024930D01*
X86487806Y-66182899D01*
X86487802Y-66182902D01*
X86484278Y-66186732D01*
X86481430Y-66191090D01*
X86481427Y-66191095D01*
X86395483Y-66322643D01*
X86361140Y-66375209D01*
X86359048Y-66379978D01*
X86359046Y-66379982D01*
X86272799Y-66576606D01*
X86272796Y-66576614D01*
X86270704Y-66581384D01*
X86215436Y-66799632D01*
X86215006Y-66804820D01*
X86215005Y-66804827D01*
X86197909Y-67011147D01*
X86196844Y-67024000D01*
X82893156Y-67024000D01*
X82874564Y-66799632D01*
X82819296Y-66581384D01*
X82728860Y-66375209D01*
X82605722Y-66186732D01*
X82544956Y-66120723D01*
X82456772Y-66024930D01*
X82456767Y-66024925D01*
X82453240Y-66021094D01*
X82275576Y-65882811D01*
X82271002Y-65880336D01*
X82270995Y-65880331D01*
X82242320Y-65864814D01*
X82194048Y-65818498D01*
X82176289Y-65754000D01*
X82194048Y-65689502D01*
X82242320Y-65643186D01*
X82270995Y-65627668D01*
X82270994Y-65627668D01*
X82275576Y-65625189D01*
X82453240Y-65486906D01*
X82605722Y-65321268D01*
X82728860Y-65132791D01*
X82819296Y-64926616D01*
X82874564Y-64708368D01*
X82893156Y-64484000D01*
X82874564Y-64259632D01*
X82819296Y-64041384D01*
X82728860Y-63835209D01*
X82605722Y-63646732D01*
X82544956Y-63580723D01*
X82456772Y-63484930D01*
X82456767Y-63484925D01*
X82453240Y-63481094D01*
X82275576Y-63342811D01*
X82271002Y-63340336D01*
X82270995Y-63340331D01*
X82242320Y-63324814D01*
X82194048Y-63278498D01*
X82176289Y-63214000D01*
X82194048Y-63149502D01*
X82242320Y-63103186D01*
X82270990Y-63087671D01*
X82275576Y-63085189D01*
X82453240Y-62946906D01*
X82605722Y-62781268D01*
X82728860Y-62592791D01*
X82819296Y-62386616D01*
X82874564Y-62168368D01*
X82893156Y-61944000D01*
X82874564Y-61719632D01*
X82819296Y-61501384D01*
X82728860Y-61295209D01*
X82605722Y-61106732D01*
X82544956Y-61040723D01*
X82456772Y-60944930D01*
X82456767Y-60944925D01*
X82453240Y-60941094D01*
X82275576Y-60802811D01*
X82271002Y-60800336D01*
X82270995Y-60800331D01*
X82242320Y-60784814D01*
X82194048Y-60738498D01*
X82176289Y-60674000D01*
X82194048Y-60609502D01*
X82242320Y-60563186D01*
X82270995Y-60547668D01*
X82270994Y-60547668D01*
X82275576Y-60545189D01*
X82453240Y-60406906D01*
X82605722Y-60241268D01*
X82728860Y-60052791D01*
X82819296Y-59846616D01*
X82874564Y-59628368D01*
X82893156Y-59404000D01*
X82874564Y-59179632D01*
X82819296Y-58961384D01*
X82728860Y-58755209D01*
X82605722Y-58566732D01*
X82544956Y-58500723D01*
X82456772Y-58404930D01*
X82456767Y-58404925D01*
X82453240Y-58401094D01*
X82275576Y-58262811D01*
X82270997Y-58260333D01*
X82270994Y-58260331D01*
X82082159Y-58158139D01*
X82082156Y-58158137D01*
X82077574Y-58155658D01*
X82072650Y-58153967D01*
X82072642Y-58153964D01*
X81869565Y-58084248D01*
X81869559Y-58084246D01*
X81864635Y-58082556D01*
X81859498Y-58081698D01*
X81859495Y-58081698D01*
X81647706Y-58046357D01*
X81647703Y-58046356D01*
X81642569Y-58045500D01*
X81417431Y-58045500D01*
X81412297Y-58046356D01*
X81412293Y-58046357D01*
X81200504Y-58081698D01*
X81200498Y-58081699D01*
X81195365Y-58082556D01*
X81190443Y-58084245D01*
X81190434Y-58084248D01*
X80987357Y-58153964D01*
X80987344Y-58153969D01*
X80982426Y-58155658D01*
X80977847Y-58158135D01*
X80977840Y-58158139D01*
X80789005Y-58260331D01*
X80788997Y-58260336D01*
X80784424Y-58262811D01*
X80780313Y-58266010D01*
X80780311Y-58266012D01*
X80610878Y-58397888D01*
X80610872Y-58397893D01*
X80606760Y-58401094D01*
X80603237Y-58404919D01*
X80603227Y-58404930D01*
X80457806Y-58562899D01*
X80457802Y-58562902D01*
X80454278Y-58566732D01*
X80451430Y-58571090D01*
X80451427Y-58571095D01*
X80365483Y-58702643D01*
X80331140Y-58755209D01*
X80329048Y-58759978D01*
X80329046Y-58759982D01*
X80242799Y-58956606D01*
X80242796Y-58956614D01*
X80240704Y-58961384D01*
X80185436Y-59179632D01*
X80185006Y-59184820D01*
X80185005Y-59184827D01*
X80167909Y-59391147D01*
X80166844Y-59404000D01*
X80185436Y-59628368D01*
X80240704Y-59846616D01*
X80242797Y-59851389D01*
X80242799Y-59851393D01*
X80318147Y-60023170D01*
X80331140Y-60052791D01*
X80454278Y-60241268D01*
X80457806Y-60245100D01*
X80603227Y-60403069D01*
X80603231Y-60403073D01*
X80606760Y-60406906D01*
X80784424Y-60545189D01*
X80817680Y-60563186D01*
X80865950Y-60609499D01*
X80883710Y-60673996D01*
X80865953Y-60738494D01*
X80817683Y-60784811D01*
X80789005Y-60800331D01*
X80788997Y-60800336D01*
X80784424Y-60802811D01*
X80780313Y-60806010D01*
X80780311Y-60806012D01*
X80610878Y-60937888D01*
X80610872Y-60937893D01*
X80606760Y-60941094D01*
X80603237Y-60944919D01*
X80603227Y-60944930D01*
X80457806Y-61102899D01*
X80457802Y-61102902D01*
X80454278Y-61106732D01*
X80451430Y-61111090D01*
X80451427Y-61111095D01*
X80365483Y-61242643D01*
X80331140Y-61295209D01*
X80329048Y-61299978D01*
X80329046Y-61299982D01*
X80242799Y-61496606D01*
X80242796Y-61496614D01*
X80240704Y-61501384D01*
X80185436Y-61719632D01*
X80185006Y-61724820D01*
X80185005Y-61724827D01*
X80167909Y-61931147D01*
X80166844Y-61944000D01*
X80185436Y-62168368D01*
X80240704Y-62386616D01*
X80242797Y-62391389D01*
X80242799Y-62391393D01*
X80318147Y-62563170D01*
X80331140Y-62592791D01*
X80454278Y-62781268D01*
X80457806Y-62785100D01*
X80603227Y-62943069D01*
X80603231Y-62943073D01*
X80606760Y-62946906D01*
X80784424Y-63085189D01*
X80789002Y-63087666D01*
X80789009Y-63087671D01*
X80817680Y-63103187D01*
X80865951Y-63149503D01*
X80883710Y-63214000D01*
X80865951Y-63278497D01*
X80817680Y-63324813D01*
X80789009Y-63340328D01*
X80788993Y-63340338D01*
X80784424Y-63342811D01*
X80780313Y-63346010D01*
X80780311Y-63346012D01*
X80610878Y-63477888D01*
X80610872Y-63477893D01*
X80606760Y-63481094D01*
X80603237Y-63484919D01*
X80603227Y-63484930D01*
X80457806Y-63642899D01*
X80457802Y-63642902D01*
X80454278Y-63646732D01*
X80451430Y-63651090D01*
X80451427Y-63651095D01*
X80365483Y-63782643D01*
X80331140Y-63835209D01*
X80329048Y-63839978D01*
X80329046Y-63839982D01*
X80242799Y-64036606D01*
X80242796Y-64036614D01*
X80240704Y-64041384D01*
X80185436Y-64259632D01*
X80185006Y-64264820D01*
X80185005Y-64264827D01*
X80167909Y-64471147D01*
X80166844Y-64484000D01*
X80185436Y-64708368D01*
X80240704Y-64926616D01*
X80242797Y-64931389D01*
X80242799Y-64931393D01*
X80318147Y-65103170D01*
X80331140Y-65132791D01*
X80454278Y-65321268D01*
X80457806Y-65325100D01*
X80603227Y-65483069D01*
X80603231Y-65483073D01*
X80606760Y-65486906D01*
X80784424Y-65625189D01*
X80817680Y-65643186D01*
X80865950Y-65689499D01*
X80883710Y-65753996D01*
X80865953Y-65818494D01*
X80817683Y-65864811D01*
X80789005Y-65880331D01*
X80788997Y-65880336D01*
X80784424Y-65882811D01*
X80780313Y-65886010D01*
X80780311Y-65886012D01*
X80610878Y-66017888D01*
X80610872Y-66017893D01*
X80606760Y-66021094D01*
X80603237Y-66024919D01*
X80603227Y-66024930D01*
X80457806Y-66182899D01*
X80457802Y-66182902D01*
X80454278Y-66186732D01*
X80451430Y-66191090D01*
X80451427Y-66191095D01*
X80365483Y-66322643D01*
X80331140Y-66375209D01*
X80329048Y-66379978D01*
X80329046Y-66379982D01*
X80242799Y-66576606D01*
X80242796Y-66576614D01*
X80240704Y-66581384D01*
X80185436Y-66799632D01*
X80185006Y-66804820D01*
X80185005Y-66804827D01*
X80167909Y-67011147D01*
X80166844Y-67024000D01*
X80185436Y-67248368D01*
X80240704Y-67466616D01*
X80242797Y-67471389D01*
X80242799Y-67471393D01*
X80318147Y-67643170D01*
X80331140Y-67672791D01*
X80454278Y-67861268D01*
X80457806Y-67865100D01*
X80603227Y-68023069D01*
X80603231Y-68023073D01*
X80606760Y-68026906D01*
X80784424Y-68165189D01*
X80982426Y-68272342D01*
X80987355Y-68274034D01*
X80987357Y-68274035D01*
X80998301Y-68277792D01*
X81195365Y-68345444D01*
X81417431Y-68382500D01*
X81551497Y-68382500D01*
X81599715Y-68392091D01*
X81640592Y-68419405D01*
X82034595Y-68813408D01*
X82061909Y-68854285D01*
X82071500Y-68902503D01*
X82071500Y-75699500D01*
X82054619Y-75762500D01*
X82008500Y-75808619D01*
X81945500Y-75825500D01*
X80631362Y-75825500D01*
X80628015Y-75825859D01*
X80628011Y-75825860D01*
X80578632Y-75831168D01*
X80578625Y-75831169D01*
X80570799Y-75832011D01*
X80563423Y-75834761D01*
X80563419Y-75834763D01*
X80442236Y-75879962D01*
X80442230Y-75879965D01*
X80433796Y-75883111D01*
X80426588Y-75888506D01*
X80426582Y-75888510D01*
X80323950Y-75965340D01*
X80323946Y-75965343D01*
X80316739Y-75970739D01*
X80311343Y-75977946D01*
X80311340Y-75977950D01*
X80234510Y-76080582D01*
X80234506Y-76080588D01*
X80229111Y-76087796D01*
X80225965Y-76096230D01*
X80225962Y-76096236D01*
X80180763Y-76217419D01*
X80180761Y-76217423D01*
X80178011Y-76224799D01*
X80177169Y-76232625D01*
X80177168Y-76232632D01*
X80173342Y-76268225D01*
X80171500Y-76285362D01*
X80171500Y-76288731D01*
X80171500Y-77205496D01*
X80161909Y-77253714D01*
X80134595Y-77294592D01*
X79485160Y-77944025D01*
X79470135Y-77956859D01*
X79464089Y-77961252D01*
X79464085Y-77961254D01*
X79458747Y-77965134D01*
X79454335Y-77970033D01*
X79454326Y-77970042D01*
X79412992Y-78015949D01*
X79408456Y-78020730D01*
X79396259Y-78032927D01*
X79396251Y-78032935D01*
X79393928Y-78035259D01*
X79391863Y-78037807D01*
X79391851Y-78037822D01*
X79381001Y-78051219D01*
X79376728Y-78056221D01*
X79335377Y-78102149D01*
X79335372Y-78102155D01*
X79330960Y-78107056D01*
X79327667Y-78112758D01*
X79327656Y-78112774D01*
X79323920Y-78119246D01*
X79312733Y-78135524D01*
X79308025Y-78141337D01*
X79308016Y-78141350D01*
X79303871Y-78146470D01*
X79300877Y-78152345D01*
X79300875Y-78152349D01*
X79272815Y-78207420D01*
X79269668Y-78213216D01*
X79235473Y-78272444D01*
X79233433Y-78278719D01*
X79233429Y-78278730D01*
X79231117Y-78285845D01*
X79223562Y-78304084D01*
X79220170Y-78310741D01*
X79220166Y-78310751D01*
X79217171Y-78316630D01*
X79215462Y-78323005D01*
X79215462Y-78323007D01*
X79199472Y-78382678D01*
X79197600Y-78388996D01*
X79178496Y-78447795D01*
X79178493Y-78447807D01*
X79176458Y-78454072D01*
X79175769Y-78460620D01*
X79175767Y-78460633D01*
X79174984Y-78468084D01*
X79171385Y-78487503D01*
X79169452Y-78494716D01*
X79169451Y-78494721D01*
X79167743Y-78501097D01*
X79167397Y-78507693D01*
X79167397Y-78507695D01*
X79164162Y-78569399D01*
X79163645Y-78575964D01*
X79161500Y-78596390D01*
X79161500Y-78599683D01*
X79161500Y-78616926D01*
X79161327Y-78623520D01*
X79158970Y-78668500D01*
X79157748Y-78691810D01*
X79158780Y-78698324D01*
X79159949Y-78705705D01*
X79161500Y-78725417D01*
X79161500Y-86808583D01*
X79159949Y-86828292D01*
X79157748Y-86842190D01*
X77555545Y-86842190D01*
X77609805Y-51735891D01*
X77626766Y-51672950D01*
X77672912Y-51626907D01*
X77735891Y-51610088D01*
X177274696Y-51679912D01*
G37*
%TD.AperFunction*%
%TD*%
M02*
