M48
; DRILL file {KiCad (6.0.11-0)} date Tuesday, July 04, 2023 at 02:05:35 am
; FORMAT={-:-/ absolute / inch / decimal}
; #@! TF.CreationDate,2023-07-04T02:05:35-04:00
; #@! TF.GenerationSoftware,Kicad,Pcbnew,(6.0.11-0)
; #@! TF.FileFunction,Plated,1,2,PTH
FMAT,2
INCH
; #@! TA.AperFunction,Plated,PTH,ComponentDrill
T1C0.0315
; #@! TA.AperFunction,Plated,PTH,ComponentDrill
T2C0.0354
; #@! TA.AperFunction,Plated,PTH,ComponentDrill
T3C0.0394
; #@! TA.AperFunction,Plated,PTH,ComponentDrill
T4C0.1260
%
G90
G05
T1
X3.5143Y-3.4814
X3.5143Y-3.6192
X4.0835Y-3.4814
X4.0835Y-3.6192
X4.6526Y-3.4814
X4.6526Y-3.6192
X5.4724Y-3.389
X5.4724Y-3.5362
X5.4724Y-3.6835
X5.7724Y-3.389
X5.7724Y-3.5362
X5.7724Y-3.6835
T2
X6.048Y-3.4335
X6.148Y-3.4335
X6.2945Y-3.4335
X6.3945Y-3.4335
X6.5409Y-3.4335
X6.6409Y-3.4335
T3
X3.2098Y-2.3387
X3.2098Y-2.4387
X3.2098Y-2.5387
X3.2098Y-2.6387
X3.2098Y-2.7387
X3.2098Y-2.8387
X3.2098Y-2.9387
X3.2098Y-3.0387
X3.2098Y-3.1783
X3.2098Y-3.2783
X3.2098Y-3.3783
X3.2098Y-3.4783
X3.4472Y-2.3387
X3.4472Y-2.4387
X3.4472Y-2.5387
X3.4472Y-2.6387
X3.4472Y-2.7387
X3.4472Y-2.8387
X3.4472Y-2.9387
X3.4472Y-3.0387
X3.5472Y-2.3387
X3.5472Y-2.4387
X3.5472Y-2.5387
X3.5472Y-2.6387
X3.5472Y-2.7387
X3.5472Y-2.8387
X3.5472Y-2.9387
X3.5472Y-3.0387
X4.0164Y-2.3387
X4.0164Y-2.4387
X4.0164Y-2.5387
X4.0164Y-2.6387
X4.0164Y-2.7387
X4.0164Y-2.8387
X4.0164Y-2.9387
X4.0164Y-3.0387
X4.1164Y-2.3387
X4.1164Y-2.4387
X4.1164Y-2.5387
X4.1164Y-2.6387
X4.1164Y-2.7387
X4.1164Y-2.8387
X4.1164Y-2.9387
X4.1164Y-3.0387
X4.5856Y-2.3387
X4.5856Y-2.4387
X4.5856Y-2.5387
X4.5856Y-2.6387
X4.5856Y-2.7387
X4.5856Y-2.8387
X4.5856Y-2.9387
X4.5856Y-3.0387
X4.6856Y-2.3387
X4.6856Y-2.4387
X4.6856Y-2.5387
X4.6856Y-2.6387
X4.6856Y-2.7387
X4.6856Y-2.8387
X4.6856Y-2.9387
X4.6856Y-3.0387
X5.1547Y-2.3387
X5.1547Y-2.4387
X5.1547Y-2.5387
X5.1547Y-2.6387
X5.1547Y-2.7387
X5.1547Y-2.8387
X5.1547Y-2.9387
X5.1547Y-3.0387
X5.2547Y-2.3387
X5.2547Y-2.4387
X5.2547Y-2.5387
X5.2547Y-2.6387
X5.2547Y-2.7387
X5.2547Y-2.8387
X5.2547Y-2.9387
X5.2547Y-3.0387
X5.7239Y-2.3387
X5.7239Y-2.4387
X5.7239Y-2.5387
X5.7239Y-2.6387
X5.7239Y-2.7387
X5.7239Y-2.8387
X5.7239Y-2.9387
X5.7239Y-3.0387
X5.8239Y-2.3387
X5.8239Y-2.4387
X5.8239Y-2.5387
X5.8239Y-2.6387
X5.8239Y-2.7387
X5.8239Y-2.8387
X5.8239Y-2.9387
X5.8239Y-3.0387
X6.048Y-3.6579
X6.148Y-3.6579
X6.293Y-2.3387
X6.293Y-2.4387
X6.293Y-2.5387
X6.293Y-2.6387
X6.293Y-2.7387
X6.293Y-2.8387
X6.293Y-2.9387
X6.293Y-3.0387
X6.2945Y-3.6579
X6.393Y-2.3387
X6.393Y-2.4387
X6.393Y-2.5387
X6.393Y-2.6387
X6.393Y-2.7387
X6.393Y-2.8387
X6.393Y-2.9387
X6.393Y-3.0387
X6.3945Y-3.6579
X6.5409Y-3.6579
X6.577Y-2.3387
X6.577Y-2.4387
X6.577Y-2.5387
X6.577Y-2.6387
X6.577Y-2.7387
X6.577Y-2.8387
X6.577Y-2.9387
X6.577Y-3.0387
X6.6409Y-3.6579
T4
X3.17Y-2.15
X3.17Y-3.6772
X6.8559Y-3.6772
X6.86Y-2.17
T0
M30
